%TF.GenerationSoftware,KiCad,Pcbnew,(5.1.6)-1*%
%TF.CreationDate,2020-09-28T13:00:59+07:00*%
%TF.ProjectId,HHKR,48484b52-2e6b-4696-9361-645f70636258,rev?*%
%TF.SameCoordinates,Original*%
%TF.FileFunction,Legend,Top*%
%TF.FilePolarity,Positive*%
%FSLAX46Y46*%
G04 Gerber Fmt 4.6, Leading zero omitted, Abs format (unit mm)*
G04 Created by KiCad (PCBNEW (5.1.6)-1) date 2020-09-28 13:00:59*
%MOMM*%
%LPD*%
G01*
G04 APERTURE LIST*
%ADD10C,0.150000*%
%ADD11C,0.600000*%
%ADD12C,0.120000*%
G04 APERTURE END LIST*
D10*
X157731428Y18752857D02*
X157683809Y18705238D01*
X157540952Y18657619D01*
X157445714Y18657619D01*
X157302857Y18705238D01*
X157207619Y18800476D01*
X157159999Y18895714D01*
X157112380Y19086190D01*
X157112380Y19229047D01*
X157159999Y19419523D01*
X157207619Y19514761D01*
X157302857Y19610000D01*
X157445714Y19657619D01*
X157540952Y19657619D01*
X157683809Y19610000D01*
X157731428Y19562380D01*
X158588571Y19324285D02*
X158588571Y18657619D01*
X158159999Y19324285D02*
X158159999Y18800476D01*
X158207619Y18705238D01*
X158302857Y18657619D01*
X158445714Y18657619D01*
X158540952Y18705238D01*
X158588571Y18752857D01*
X159017142Y18705238D02*
X159112380Y18657619D01*
X159302857Y18657619D01*
X159398095Y18705238D01*
X159445714Y18800476D01*
X159445714Y18848095D01*
X159398095Y18943333D01*
X159302857Y18990952D01*
X159159999Y18990952D01*
X159064761Y19038571D01*
X159017142Y19133809D01*
X159017142Y19181428D01*
X159064761Y19276666D01*
X159159999Y19324285D01*
X159302857Y19324285D01*
X159398095Y19276666D01*
X159731428Y19324285D02*
X160112380Y19324285D01*
X159874285Y19657619D02*
X159874285Y18800476D01*
X159921904Y18705238D01*
X160017142Y18657619D01*
X160112380Y18657619D01*
X160588571Y18657619D02*
X160493333Y18705238D01*
X160445714Y18752857D01*
X160398095Y18848095D01*
X160398095Y19133809D01*
X160445714Y19229047D01*
X160493333Y19276666D01*
X160588571Y19324285D01*
X160731428Y19324285D01*
X160826666Y19276666D01*
X160874285Y19229047D01*
X160921904Y19133809D01*
X160921904Y18848095D01*
X160874285Y18752857D01*
X160826666Y18705238D01*
X160731428Y18657619D01*
X160588571Y18657619D01*
X161350476Y18657619D02*
X161350476Y19324285D01*
X161350476Y19229047D02*
X161398095Y19276666D01*
X161493333Y19324285D01*
X161636190Y19324285D01*
X161731428Y19276666D01*
X161779047Y19181428D01*
X161779047Y18657619D01*
X161779047Y19181428D02*
X161826666Y19276666D01*
X161921904Y19324285D01*
X162064761Y19324285D01*
X162159999Y19276666D01*
X162207619Y19181428D01*
X162207619Y18657619D01*
X163445714Y18657619D02*
X163445714Y19657619D01*
X163445714Y19181428D02*
X164017142Y19181428D01*
X164017142Y18657619D02*
X164017142Y19657619D01*
X164493333Y18657619D02*
X164493333Y19657619D01*
X164493333Y19181428D02*
X165064761Y19181428D01*
X165064761Y18657619D02*
X165064761Y19657619D01*
X165540952Y18657619D02*
X165540952Y19657619D01*
X166112380Y18657619D02*
X165683809Y19229047D01*
X166112380Y19657619D02*
X165540952Y19086190D01*
X166874285Y19181428D02*
X167017142Y19133809D01*
X167064761Y19086190D01*
X167112380Y18990952D01*
X167112380Y18848095D01*
X167064761Y18752857D01*
X167017142Y18705238D01*
X166921904Y18657619D01*
X166540952Y18657619D01*
X166540952Y19657619D01*
X166874285Y19657619D01*
X166969523Y19610000D01*
X167017142Y19562380D01*
X167064761Y19467142D01*
X167064761Y19371904D01*
X167017142Y19276666D01*
X166969523Y19229047D01*
X166874285Y19181428D01*
X166540952Y19181428D01*
X168207619Y19324285D02*
X168398095Y18657619D01*
X168588571Y19133809D01*
X168779047Y18657619D01*
X168969523Y19324285D01*
X169350476Y18657619D02*
X169350476Y19324285D01*
X169350476Y19657619D02*
X169302857Y19610000D01*
X169350476Y19562380D01*
X169398095Y19610000D01*
X169350476Y19657619D01*
X169350476Y19562380D01*
X169683809Y19324285D02*
X170064761Y19324285D01*
X169826666Y19657619D02*
X169826666Y18800476D01*
X169874285Y18705238D01*
X169969523Y18657619D01*
X170064761Y18657619D01*
X170398095Y18657619D02*
X170398095Y19657619D01*
X170826666Y18657619D02*
X170826666Y19181428D01*
X170779047Y19276666D01*
X170683809Y19324285D01*
X170540952Y19324285D01*
X170445714Y19276666D01*
X170398095Y19229047D01*
X172255238Y19657619D02*
X172445714Y19657619D01*
X172540952Y19610000D01*
X172636190Y19514761D01*
X172683809Y19324285D01*
X172683809Y18990952D01*
X172636190Y18800476D01*
X172540952Y18705238D01*
X172445714Y18657619D01*
X172255238Y18657619D01*
X172159999Y18705238D01*
X172064761Y18800476D01*
X172017142Y18990952D01*
X172017142Y19324285D01*
X172064761Y19514761D01*
X172159999Y19610000D01*
X172255238Y19657619D01*
X173588571Y18657619D02*
X173112380Y18657619D01*
X173112380Y19657619D01*
X173921904Y19181428D02*
X174255238Y19181428D01*
X174398095Y18657619D02*
X173921904Y18657619D01*
X173921904Y19657619D01*
X174398095Y19657619D01*
X174826666Y18657619D02*
X174826666Y19657619D01*
X175064761Y19657619D01*
X175207619Y19610000D01*
X175302857Y19514761D01*
X175350476Y19419523D01*
X175398095Y19229047D01*
X175398095Y19086190D01*
X175350476Y18895714D01*
X175302857Y18800476D01*
X175207619Y18705238D01*
X175064761Y18657619D01*
X174826666Y18657619D01*
X176540952Y18705238D02*
X176683809Y18657619D01*
X176921904Y18657619D01*
X177017142Y18705238D01*
X177064761Y18752857D01*
X177112380Y18848095D01*
X177112380Y18943333D01*
X177064761Y19038571D01*
X177017142Y19086190D01*
X176921904Y19133809D01*
X176731428Y19181428D01*
X176636190Y19229047D01*
X176588571Y19276666D01*
X176540952Y19371904D01*
X176540952Y19467142D01*
X176588571Y19562380D01*
X176636190Y19610000D01*
X176731428Y19657619D01*
X176969523Y19657619D01*
X177112380Y19610000D01*
X177969523Y18705238D02*
X177874285Y18657619D01*
X177683809Y18657619D01*
X177588571Y18705238D01*
X177540952Y18752857D01*
X177493333Y18848095D01*
X177493333Y19133809D01*
X177540952Y19229047D01*
X177588571Y19276666D01*
X177683809Y19324285D01*
X177874285Y19324285D01*
X177969523Y19276666D01*
X178398095Y18657619D02*
X178398095Y19324285D01*
X178398095Y19133809D02*
X178445714Y19229047D01*
X178493333Y19276666D01*
X178588571Y19324285D01*
X178683809Y19324285D01*
X179398095Y18705238D02*
X179302857Y18657619D01*
X179112380Y18657619D01*
X179017142Y18705238D01*
X178969523Y18800476D01*
X178969523Y19181428D01*
X179017142Y19276666D01*
X179112380Y19324285D01*
X179302857Y19324285D01*
X179398095Y19276666D01*
X179445714Y19181428D01*
X179445714Y19086190D01*
X178969523Y18990952D01*
X180255238Y18705238D02*
X180159999Y18657619D01*
X179969523Y18657619D01*
X179874285Y18705238D01*
X179826666Y18800476D01*
X179826666Y19181428D01*
X179874285Y19276666D01*
X179969523Y19324285D01*
X180159999Y19324285D01*
X180255238Y19276666D01*
X180302857Y19181428D01*
X180302857Y19086190D01*
X179826666Y18990952D01*
X180731428Y19324285D02*
X180731428Y18657619D01*
X180731428Y19229047D02*
X180779047Y19276666D01*
X180874285Y19324285D01*
X181017142Y19324285D01*
X181112380Y19276666D01*
X181159999Y19181428D01*
X181159999Y18657619D01*
D11*
X157311428Y20502857D02*
X157311428Y23502857D01*
X157311428Y22074285D02*
X159025714Y22074285D01*
X159025714Y20502857D02*
X159025714Y23502857D01*
X160454285Y20502857D02*
X160454285Y23502857D01*
X160454285Y22074285D02*
X162168571Y22074285D01*
X162168571Y20502857D02*
X162168571Y23502857D01*
X163597142Y20502857D02*
X163597142Y23502857D01*
X165311428Y20502857D02*
X164025714Y22217142D01*
X165311428Y23502857D02*
X163597142Y21788571D01*
X168311428Y20502857D02*
X167311428Y21931428D01*
X166597142Y20502857D02*
X166597142Y23502857D01*
X167740000Y23502857D01*
X168025714Y23360000D01*
X168168571Y23217142D01*
X168311428Y22931428D01*
X168311428Y22502857D01*
X168168571Y22217142D01*
X168025714Y22074285D01*
X167740000Y21931428D01*
X166597142Y21931428D01*
D10*
X157121428Y17080714D02*
X157121428Y17830714D01*
X157300000Y17830714D01*
X157407142Y17795000D01*
X157478571Y17723571D01*
X157514285Y17652142D01*
X157550000Y17509285D01*
X157550000Y17402142D01*
X157514285Y17259285D01*
X157478571Y17187857D01*
X157407142Y17116428D01*
X157300000Y17080714D01*
X157121428Y17080714D01*
X158157142Y17116428D02*
X158085714Y17080714D01*
X157942857Y17080714D01*
X157871428Y17116428D01*
X157835714Y17187857D01*
X157835714Y17473571D01*
X157871428Y17545000D01*
X157942857Y17580714D01*
X158085714Y17580714D01*
X158157142Y17545000D01*
X158192857Y17473571D01*
X158192857Y17402142D01*
X157835714Y17330714D01*
X158478571Y17116428D02*
X158550000Y17080714D01*
X158692857Y17080714D01*
X158764285Y17116428D01*
X158800000Y17187857D01*
X158800000Y17223571D01*
X158764285Y17295000D01*
X158692857Y17330714D01*
X158585714Y17330714D01*
X158514285Y17366428D01*
X158478571Y17437857D01*
X158478571Y17473571D01*
X158514285Y17545000D01*
X158585714Y17580714D01*
X158692857Y17580714D01*
X158764285Y17545000D01*
X159121428Y17080714D02*
X159121428Y17580714D01*
X159121428Y17830714D02*
X159085714Y17795000D01*
X159121428Y17759285D01*
X159157142Y17795000D01*
X159121428Y17830714D01*
X159121428Y17759285D01*
X159800000Y17580714D02*
X159800000Y16973571D01*
X159764285Y16902142D01*
X159728571Y16866428D01*
X159657142Y16830714D01*
X159550000Y16830714D01*
X159478571Y16866428D01*
X159800000Y17116428D02*
X159728571Y17080714D01*
X159585714Y17080714D01*
X159514285Y17116428D01*
X159478571Y17152142D01*
X159442857Y17223571D01*
X159442857Y17437857D01*
X159478571Y17509285D01*
X159514285Y17545000D01*
X159585714Y17580714D01*
X159728571Y17580714D01*
X159800000Y17545000D01*
X160157142Y17580714D02*
X160157142Y17080714D01*
X160157142Y17509285D02*
X160192857Y17545000D01*
X160264285Y17580714D01*
X160371428Y17580714D01*
X160442857Y17545000D01*
X160478571Y17473571D01*
X160478571Y17080714D01*
X161121428Y17116428D02*
X161050000Y17080714D01*
X160907142Y17080714D01*
X160835714Y17116428D01*
X160800000Y17187857D01*
X160800000Y17473571D01*
X160835714Y17545000D01*
X160907142Y17580714D01*
X161050000Y17580714D01*
X161121428Y17545000D01*
X161157142Y17473571D01*
X161157142Y17402142D01*
X160800000Y17330714D01*
X161800000Y17080714D02*
X161800000Y17830714D01*
X161800000Y17116428D02*
X161728571Y17080714D01*
X161585714Y17080714D01*
X161514285Y17116428D01*
X161478571Y17152142D01*
X161442857Y17223571D01*
X161442857Y17437857D01*
X161478571Y17509285D01*
X161514285Y17545000D01*
X161585714Y17580714D01*
X161728571Y17580714D01*
X161800000Y17545000D01*
X162728571Y17080714D02*
X162728571Y17830714D01*
X162728571Y17545000D02*
X162800000Y17580714D01*
X162942857Y17580714D01*
X163014285Y17545000D01*
X163050000Y17509285D01*
X163085714Y17437857D01*
X163085714Y17223571D01*
X163050000Y17152142D01*
X163014285Y17116428D01*
X162942857Y17080714D01*
X162800000Y17080714D01*
X162728571Y17116428D01*
X163335714Y17580714D02*
X163514285Y17080714D01*
X163692857Y17580714D02*
X163514285Y17080714D01*
X163442857Y16902142D01*
X163407142Y16866428D01*
X163335714Y16830714D01*
X164550000Y17080714D02*
X164550000Y17830714D01*
X164907142Y17080714D02*
X164907142Y17830714D01*
X164978571Y17366428D02*
X165192857Y17080714D01*
X165192857Y17580714D02*
X164907142Y17295000D01*
X165407142Y17580714D02*
X165692857Y17580714D01*
X165514285Y17830714D02*
X165514285Y17187857D01*
X165550000Y17116428D01*
X165621428Y17080714D01*
X165692857Y17080714D01*
X166264285Y17080714D02*
X166264285Y17473571D01*
X166228571Y17545000D01*
X166157142Y17580714D01*
X166014285Y17580714D01*
X165942857Y17545000D01*
X166264285Y17116428D02*
X166192857Y17080714D01*
X166014285Y17080714D01*
X165942857Y17116428D01*
X165907142Y17187857D01*
X165907142Y17259285D01*
X165942857Y17330714D01*
X166014285Y17366428D01*
X166192857Y17366428D01*
X166264285Y17402142D01*
X166585714Y17116428D02*
X166692857Y17080714D01*
X166871428Y17080714D01*
X166942857Y17116428D01*
X166978571Y17152142D01*
X167014285Y17223571D01*
X167014285Y17295000D01*
X166978571Y17366428D01*
X166942857Y17402142D01*
X166871428Y17437857D01*
X166728571Y17473571D01*
X166657142Y17509285D01*
X166621428Y17545000D01*
X166585714Y17616428D01*
X166585714Y17687857D01*
X166621428Y17759285D01*
X166657142Y17795000D01*
X166728571Y17830714D01*
X166907142Y17830714D01*
X167014285Y17795000D01*
D12*
%TO.C,SWE1*%
X285868750Y94750000D02*
X285868750Y95750000D01*
X285368750Y95250000D02*
X286368750Y95250000D01*
X289368750Y101350000D02*
X291768750Y101350000D01*
X284568750Y101350000D02*
X287168750Y101350000D01*
X279968750Y101350000D02*
X282368750Y101350000D01*
X281768750Y88050000D02*
X282068750Y87750000D01*
X281768750Y87450000D02*
X281768750Y88050000D01*
X282068750Y87750000D02*
X281768750Y87450000D01*
X279968750Y89150000D02*
X291768750Y89150000D01*
X279968750Y93250000D02*
X279968750Y89150000D01*
X291768750Y93250000D02*
X291768750Y89150000D01*
X291768750Y101350000D02*
X291768750Y97250000D01*
X279968750Y97250000D02*
X279968750Y101350000D01*
X288868750Y95250000D02*
G75*
G03*
X288868750Y95250000I-3000000J0D01*
G01*
%TO.C,J1*%
X250150000Y13910000D02*
X248820000Y13910000D01*
X250150000Y15240000D02*
X250150000Y13910000D01*
X250150000Y16510000D02*
X247490000Y16510000D01*
X247490000Y16510000D02*
X247490000Y24190000D01*
X250150000Y16510000D02*
X250150000Y24190000D01*
X250150000Y24190000D02*
X247490000Y24190000D01*
%TO.C,H6*%
D10*
X137488095Y56297619D02*
X137488095Y57297619D01*
X137488095Y56821428D02*
X138059523Y56821428D01*
X138059523Y56297619D02*
X138059523Y57297619D01*
X138964285Y57297619D02*
X138773809Y57297619D01*
X138678571Y57250000D01*
X138630952Y57202380D01*
X138535714Y57059523D01*
X138488095Y56869047D01*
X138488095Y56488095D01*
X138535714Y56392857D01*
X138583333Y56345238D01*
X138678571Y56297619D01*
X138869047Y56297619D01*
X138964285Y56345238D01*
X139011904Y56392857D01*
X139059523Y56488095D01*
X139059523Y56726190D01*
X139011904Y56821428D01*
X138964285Y56869047D01*
X138869047Y56916666D01*
X138678571Y56916666D01*
X138583333Y56869047D01*
X138535714Y56821428D01*
X138488095Y56726190D01*
%TO.C,H5*%
X199788095Y18097619D02*
X199788095Y19097619D01*
X199788095Y18621428D02*
X200359523Y18621428D01*
X200359523Y18097619D02*
X200359523Y19097619D01*
X201311904Y19097619D02*
X200835714Y19097619D01*
X200788095Y18621428D01*
X200835714Y18669047D01*
X200930952Y18716666D01*
X201169047Y18716666D01*
X201264285Y18669047D01*
X201311904Y18621428D01*
X201359523Y18526190D01*
X201359523Y18288095D01*
X201311904Y18192857D01*
X201264285Y18145238D01*
X201169047Y18097619D01*
X200930952Y18097619D01*
X200835714Y18145238D01*
X200788095Y18192857D01*
%TO.C,H4*%
X269338095Y75397619D02*
X269338095Y76397619D01*
X269338095Y75921428D02*
X269909523Y75921428D01*
X269909523Y75397619D02*
X269909523Y76397619D01*
X270814285Y76064285D02*
X270814285Y75397619D01*
X270576190Y76445238D02*
X270338095Y75730952D01*
X270957142Y75730952D01*
%TO.C,H3*%
X294288095Y46797619D02*
X294288095Y47797619D01*
X294288095Y47321428D02*
X294859523Y47321428D01*
X294859523Y46797619D02*
X294859523Y47797619D01*
X295240476Y47797619D02*
X295859523Y47797619D01*
X295526190Y47416666D01*
X295669047Y47416666D01*
X295764285Y47369047D01*
X295811904Y47321428D01*
X295859523Y47226190D01*
X295859523Y46988095D01*
X295811904Y46892857D01*
X295764285Y46845238D01*
X295669047Y46797619D01*
X295383333Y46797619D01*
X295288095Y46845238D01*
X295240476Y46892857D01*
%TO.C,H2*%
X9288095Y46797619D02*
X9288095Y47797619D01*
X9288095Y47321428D02*
X9859523Y47321428D01*
X9859523Y46797619D02*
X9859523Y47797619D01*
X10288095Y47702380D02*
X10335714Y47750000D01*
X10430952Y47797619D01*
X10669047Y47797619D01*
X10764285Y47750000D01*
X10811904Y47702380D01*
X10859523Y47607142D01*
X10859523Y47511904D01*
X10811904Y47369047D01*
X10240476Y46797619D01*
X10859523Y46797619D01*
%TO.C,SWE1*%
X279073511Y88764285D02*
X279121130Y88907142D01*
X279121130Y89145238D01*
X279073511Y89240476D01*
X279025892Y89288095D01*
X278930654Y89335714D01*
X278835416Y89335714D01*
X278740178Y89288095D01*
X278692559Y89240476D01*
X278644940Y89145238D01*
X278597321Y88954761D01*
X278549702Y88859523D01*
X278502083Y88811904D01*
X278406845Y88764285D01*
X278311607Y88764285D01*
X278216369Y88811904D01*
X278168750Y88859523D01*
X278121130Y88954761D01*
X278121130Y89192857D01*
X278168750Y89335714D01*
X278121130Y89669047D02*
X279121130Y89907142D01*
X278406845Y90097619D01*
X279121130Y90288095D01*
X278121130Y90526190D01*
X278597321Y90907142D02*
X278597321Y91240476D01*
X279121130Y91383333D02*
X279121130Y90907142D01*
X278121130Y90907142D01*
X278121130Y91383333D01*
X279121130Y92335714D02*
X279121130Y91764285D01*
X279121130Y92050000D02*
X278121130Y92050000D01*
X278263988Y91954761D01*
X278359226Y91859523D01*
X278406845Y91764285D01*
%TO.C,J1*%
X248486666Y13457619D02*
X248486666Y12743333D01*
X248439047Y12600476D01*
X248343809Y12505238D01*
X248200952Y12457619D01*
X248105714Y12457619D01*
X249486666Y12457619D02*
X248915238Y12457619D01*
X249200952Y12457619D02*
X249200952Y13457619D01*
X249105714Y13314761D01*
X249010476Y13219523D01*
X248915238Y13171904D01*
%TD*%
M02*
