M48
; DRILL file {KiCad (5.1.6)-1} date 09/28/20 17:44:50
; FORMAT={-:-/ absolute / metric / decimal}
; #@! TF.CreationDate,2020-09-28T17:44:50+07:00
; #@! TF.GenerationSoftware,Kicad,Pcbnew,(5.1.6)-1
; #@! TF.FileFunction,Plated,1,2,PTH
FMAT,2
METRIC
T1C0.400
T2C0.600
T3C1.000
T4C1.470
T5C1.500
T6C2.200
T7C2.499
T8C3.000
%
G90
G05
T1
X17.65Y85.9
X24.11Y69.72
X25.457Y88.837
X25.56Y94.96
X26.24Y96.69
X27.34Y100.24
X30.34Y100.32
X30.444Y96.706
X30.62Y69.72
X31.19Y95.3
X33.13Y50.76
X33.39Y85.63
X37.78Y32.3
X41.28Y88.84
X50.28Y69.72
X55.337Y50.737
X57.55Y30.828
X58.38Y28.388
X58.68Y30.99
X59.9Y27.65
X63.99Y32.3
X78.14Y12.72
X90.7Y11.52
X94.96Y25.45
X94.96Y16.03
X97.99Y28.972
X99.22Y27.63
X100.1Y16.4
X100.9Y16.977
X101.7Y17.61
X102.5Y18.215
X103.3Y18.822
X103.31Y27.63
X104.1Y19.427
X104.42Y28.424
X104.9Y20.033
X105.417Y28.533
X105.617Y16.916
X105.67Y17.92
X105.708Y18.923
X105.79Y13.07
X106.418Y28.604
X106.73Y24.2
X107.414Y28.484
X110.21Y13.09
X110.612Y23.868
X121.3Y29.01
X130.42Y29.03
X146.01Y12.04
X152.66Y13.459
X246.542Y17.048
X275.2Y45.78
X279.75Y30.984
X279.75Y27.647
X291.56Y76.97
X291.58Y73.49
X272.097Y79.502
X272.097Y77.978
X288.607Y82.042
X288.607Y80.518
X57.785Y79.502
X57.785Y77.978
X74.295Y82.042
X74.295Y80.518
X143.51Y98.552
X143.51Y97.028
X160.02Y101.092
X160.02Y99.568
X105.41Y98.552
X105.41Y97.028
X121.92Y101.092
X121.92Y99.568
X138.748Y60.452
X138.748Y58.928
X155.257Y62.992
X155.257Y61.468
X214.947Y60.452
X214.947Y58.928
X231.457Y62.992
X231.457Y61.468
X167.322Y41.402
X167.322Y39.878
X183.832Y43.942
X183.832Y42.418
X238.76Y98.552
X238.76Y97.028
X255.27Y101.092
X255.27Y99.568
X276.86Y98.552
X276.86Y97.028
X293.37Y101.092
X293.37Y99.568
X62.547Y60.452
X62.547Y58.928
X79.057Y62.992
X79.057Y61.468
X148.272Y41.402
X148.272Y39.878
X164.782Y43.942
X164.782Y42.418
X133.985Y79.502
X133.985Y77.978
X150.495Y82.042
X150.495Y80.518
X195.897Y60.452
X195.897Y58.928
X212.407Y62.992
X212.407Y61.468
X200.66Y98.552
X200.66Y97.028
X217.17Y101.092
X217.17Y99.568
X248.285Y79.502
X248.285Y77.978
X264.795Y82.042
X264.795Y80.518
X91.123Y41.402
X91.123Y39.878
X107.632Y43.942
X107.632Y42.418
X72.072Y41.402
X72.072Y39.878
X88.582Y43.942
X88.582Y42.418
X95.885Y79.502
X95.885Y77.978
X112.395Y82.042
X112.395Y80.518
X157.797Y60.452
X157.797Y58.928
X174.308Y62.992
X174.308Y61.468
X205.422Y41.402
X205.422Y39.878
X221.932Y43.942
X221.932Y42.418
X205.422Y22.352
X205.422Y20.828
X221.932Y24.892
X221.932Y23.368
X38.735Y22.352
X38.735Y20.828
X55.245Y24.892
X55.245Y23.368
X53.023Y41.402
X53.023Y39.878
X69.532Y43.942
X69.532Y42.418
X276.86Y41.402
X276.86Y39.878
X293.37Y43.942
X293.37Y42.418
X81.597Y60.452
X81.597Y58.928
X98.108Y62.992
X98.108Y61.468
X67.31Y98.552
X67.31Y97.028
X83.82Y101.092
X83.82Y99.568
X100.647Y60.452
X100.647Y58.928
X117.157Y62.992
X117.157Y61.468
X181.61Y98.552
X181.61Y97.028
X198.12Y101.092
X198.12Y99.568
X210.185Y79.502
X210.185Y77.978
X226.695Y82.042
X226.695Y80.518
X224.472Y41.402
X224.472Y39.878
X240.982Y43.942
X240.982Y42.418
X43.497Y60.452
X43.497Y58.928
X60.008Y62.992
X60.008Y61.468
X22.066Y41.402
X22.066Y39.878
X38.576Y43.942
X38.576Y42.418
X264.954Y60.452
X264.954Y58.928
X281.464Y62.992
X281.464Y61.468
X153.035Y79.502
X153.035Y77.978
X169.545Y82.042
X169.545Y80.518
X119.697Y60.452
X119.697Y58.928
X136.207Y62.992
X136.207Y61.468
X172.085Y79.502
X172.085Y77.978
X188.595Y82.042
X188.595Y80.518
X233.998Y60.452
X233.998Y58.928
X250.507Y62.992
X250.507Y61.468
X162.56Y98.552
X162.56Y97.028
X179.07Y101.092
X179.07Y99.568
X110.172Y41.402
X110.172Y39.878
X126.682Y43.942
X126.682Y42.418
X76.835Y79.502
X76.835Y77.978
X93.345Y82.042
X93.345Y80.518
X86.36Y98.552
X86.36Y97.028
X102.87Y101.092
X102.87Y99.568
X124.46Y98.552
X124.46Y97.028
X140.97Y101.092
X140.97Y99.568
X176.847Y60.452
X176.847Y58.928
X193.357Y62.992
X193.357Y61.468
X229.235Y22.352
X229.235Y20.828
X245.745Y24.892
X245.745Y23.368
X219.71Y98.552
X219.71Y97.028
X236.22Y101.092
X236.22Y99.568
X14.922Y79.502
X14.922Y77.978
X31.432Y82.042
X31.432Y80.518
X133.985Y22.352
X133.985Y20.828
X150.495Y24.892
X150.495Y23.368
X250.666Y41.402
X250.666Y39.878
X267.176Y43.942
X267.176Y42.418
X48.26Y98.552
X48.26Y97.028
X64.77Y101.092
X64.77Y99.568
X114.935Y79.502
X114.935Y77.978
X131.445Y82.042
X131.445Y80.518
X129.222Y41.402
X129.222Y39.878
X145.732Y43.942
X145.732Y42.418
X191.135Y79.502
X191.135Y77.978
X207.645Y82.042
X207.645Y80.518
X229.235Y79.502
X229.235Y77.978
X245.745Y82.042
X245.745Y80.518
X186.373Y41.402
X186.373Y39.878
X202.882Y43.942
X202.882Y42.418
X38.735Y79.502
X38.735Y77.978
X55.245Y82.042
X55.245Y80.518
X62.547Y22.352
X62.547Y20.828
X79.057Y24.892
X79.057Y23.368
X257.81Y98.552
X257.81Y97.028
X274.32Y101.092
X274.32Y99.568
T3
X283.369Y102.25
X283.369Y87.75
X285.869Y87.75
X288.369Y102.25
X288.369Y87.75
X248.82Y22.86
X248.82Y20.32
X248.82Y17.78
X248.82Y15.24
T4
X34.29Y97.79
X40.64Y100.33
X17.621Y59.69
X23.971Y62.23
X22.384Y59.69
X28.734Y62.23
X15.24Y97.79
X21.59Y100.33
T6
X35.25Y76.35
T8
X162.877Y59.69
X169.227Y62.23
X210.502Y40.64
X216.852Y43.18
X210.502Y21.59
X216.852Y24.13
X43.815Y21.59
X50.165Y24.13
X58.102Y40.64
X64.453Y43.18
X281.94Y40.64
X288.29Y43.18
X86.677Y59.69
X93.027Y62.23
X72.39Y97.79
X78.74Y100.33
X105.727Y59.69
X112.078Y62.23
X186.69Y97.79
X193.04Y100.33
X215.265Y78.74
X221.615Y81.28
X229.552Y40.64
X235.903Y43.18
X48.578Y59.69
X54.927Y62.23
X27.146Y40.64
X33.496Y43.18
X270.034Y59.69
X276.384Y62.23
X158.115Y78.74
X164.465Y81.28
X124.777Y59.69
X131.127Y62.23
X177.165Y78.74
X183.515Y81.28
X239.077Y59.69
X245.427Y62.23
X167.64Y97.79
X173.99Y100.33
X115.252Y40.64
X121.602Y43.18
X81.915Y78.74
X88.265Y81.28
X91.44Y97.79
X97.79Y100.33
X129.54Y97.79
X135.89Y100.33
X181.927Y59.69
X188.278Y62.23
X234.315Y21.59
X240.665Y24.13
X224.79Y97.79
X231.14Y100.33
X20.002Y78.74
X26.352Y81.28
X139.065Y21.59
X145.415Y24.13
X255.746Y40.64
X262.096Y43.18
X53.34Y97.79
X59.69Y100.33
X120.015Y78.74
X126.365Y81.28
X134.302Y40.64
X140.653Y43.18
X196.215Y78.74
X202.565Y81.28
X234.315Y78.74
X240.665Y81.28
X191.452Y40.64
X197.802Y43.18
X43.815Y78.74
X50.165Y81.28
X67.627Y21.59
X73.977Y24.13
X262.89Y97.79
X269.24Y100.33
X277.178Y78.74
X283.527Y81.28
X62.865Y78.74
X69.215Y81.28
X148.59Y97.79
X154.94Y100.33
X110.49Y97.79
X116.84Y100.33
X143.827Y59.69
X150.177Y62.23
X220.028Y59.69
X226.377Y62.23
X172.403Y40.64
X178.752Y43.18
X243.84Y97.79
X250.19Y100.33
X281.94Y97.79
X288.29Y100.33
X67.627Y59.69
X73.977Y62.23
X153.352Y40.64
X159.702Y43.18
X139.065Y78.74
X145.415Y81.28
X200.977Y59.69
X207.327Y62.23
X205.74Y97.79
X212.09Y100.33
X253.365Y78.74
X259.715Y81.28
X96.203Y40.64
X102.552Y43.18
X77.153Y40.64
X83.502Y43.18
X100.965Y78.74
X107.315Y81.28
T2
G00X24.27Y104.455
M15
G01X24.27Y103.855
M16
G05
G00X24.27Y100.525
M15
G01X24.27Y99.425
M16
G05
G00X32.91Y104.455
M15
G01X32.91Y103.855
M16
G05
G00X32.91Y100.525
M15
G01X32.91Y99.425
M16
G05
T5
G00X280.269Y94.6
M15
G01X280.269Y95.9
M16
G05
G00X291.469Y94.6
M15
G01X291.469Y95.9
M16
G05
T7
G00X199.299Y19.05
M15
G01X201.801Y19.05
M16
G05
G00X136.999Y57.25
M15
G01X139.501Y57.25
M16
G05
G00X292.8Y47.75
M15
G01X297.3Y47.75
M16
G05
G00X268.849Y76.35
M15
G01X271.351Y76.35
M16
G05
G00X7.8Y47.75
M15
G01X12.3Y47.75
M16
G05
T0
M30
