%TF.GenerationSoftware,KiCad,Pcbnew,(5.1.6)-1*%
%TF.CreationDate,2020-09-28T17:44:52+07:00*%
%TF.ProjectId,HHKR,48484b52-2e6b-4696-9361-645f70636258,rev?*%
%TF.SameCoordinates,Original*%
%TF.FileFunction,Paste,Bot*%
%TF.FilePolarity,Positive*%
%FSLAX46Y46*%
G04 Gerber Fmt 4.6, Leading zero omitted, Abs format (unit mm)*
G04 Created by KiCad (PCBNEW (5.1.6)-1) date 2020-09-28 17:44:52*
%MOMM*%
%LPD*%
G01*
G04 APERTURE LIST*
%ADD10R,2.550000X2.500000*%
%ADD11R,1.800000X2.100000*%
%ADD12R,1.000000X1.700000*%
%ADD13R,0.700000X1.000000*%
%ADD14R,0.700000X0.600000*%
%ADD15R,1.200000X0.900000*%
%ADD16R,0.600000X2.450000*%
%ADD17R,0.300000X2.450000*%
%ADD18R,1.500000X0.550000*%
%ADD19R,0.550000X1.500000*%
G04 APERTURE END LIST*
D10*
%TO.C,MX60*%
X286802500Y81280000D03*
X273902500Y78740000D03*
%TD*%
%TO.C,MX30*%
X153452500Y62230000D03*
X140552500Y59690000D03*
%TD*%
%TO.C,MX27*%
X135790000Y21590000D03*
X148690000Y24130000D03*
%TD*%
%TO.C,MX22*%
X124877500Y43180000D03*
X111977500Y40640000D03*
%TD*%
%TO.C,R5*%
G36*
G01*
X112010000Y30160001D02*
X112010000Y29259999D01*
G75*
G02*
X111760001Y29010000I-249999J0D01*
G01*
X111109999Y29010000D01*
G75*
G02*
X110860000Y29259999I0J249999D01*
G01*
X110860000Y30160001D01*
G75*
G02*
X111109999Y30410000I249999J0D01*
G01*
X111760001Y30410000D01*
G75*
G02*
X112010000Y30160001I0J-249999D01*
G01*
G37*
G36*
G01*
X114060000Y30160001D02*
X114060000Y29259999D01*
G75*
G02*
X113810001Y29010000I-249999J0D01*
G01*
X113159999Y29010000D01*
G75*
G02*
X112910000Y29259999I0J249999D01*
G01*
X112910000Y30160001D01*
G75*
G02*
X113159999Y30410000I249999J0D01*
G01*
X113810001Y30410000D01*
G75*
G02*
X114060000Y30160001I0J-249999D01*
G01*
G37*
%TD*%
%TO.C,C2*%
G36*
G01*
X112910000Y27269999D02*
X112910000Y28170001D01*
G75*
G02*
X113159999Y28420000I249999J0D01*
G01*
X113810001Y28420000D01*
G75*
G02*
X114060000Y28170001I0J-249999D01*
G01*
X114060000Y27269999D01*
G75*
G02*
X113810001Y27020000I-249999J0D01*
G01*
X113159999Y27020000D01*
G75*
G02*
X112910000Y27269999I0J249999D01*
G01*
G37*
G36*
G01*
X110860000Y27269999D02*
X110860000Y28170001D01*
G75*
G02*
X111109999Y28420000I249999J0D01*
G01*
X111760001Y28420000D01*
G75*
G02*
X112010000Y28170001I0J-249999D01*
G01*
X112010000Y27269999D01*
G75*
G02*
X111760001Y27020000I-249999J0D01*
G01*
X111109999Y27020000D01*
G75*
G02*
X110860000Y27269999I0J249999D01*
G01*
G37*
%TD*%
%TO.C,C4*%
G36*
G01*
X117146250Y23947499D02*
X117146250Y24847501D01*
G75*
G02*
X117396249Y25097500I249999J0D01*
G01*
X118046251Y25097500D01*
G75*
G02*
X118296250Y24847501I0J-249999D01*
G01*
X118296250Y23947499D01*
G75*
G02*
X118046251Y23697500I-249999J0D01*
G01*
X117396249Y23697500D01*
G75*
G02*
X117146250Y23947499I0J249999D01*
G01*
G37*
G36*
G01*
X115096250Y23947499D02*
X115096250Y24847501D01*
G75*
G02*
X115346249Y25097500I249999J0D01*
G01*
X115996251Y25097500D01*
G75*
G02*
X116246250Y24847501I0J-249999D01*
G01*
X116246250Y23947499D01*
G75*
G02*
X115996251Y23697500I-249999J0D01*
G01*
X115346249Y23697500D01*
G75*
G02*
X115096250Y23947499I0J249999D01*
G01*
G37*
%TD*%
D11*
%TO.C,Y1*%
X117851250Y18507500D03*
X117851250Y21407500D03*
X115551250Y21407500D03*
X115551250Y18507500D03*
%TD*%
D12*
%TO.C,SW1*%
X127570000Y27390000D03*
X127570000Y21090000D03*
X131370000Y27390000D03*
X131370000Y21090000D03*
%TD*%
%TO.C,R6*%
G36*
G01*
X98090000Y11179999D02*
X98090000Y12080001D01*
G75*
G02*
X98339999Y12330000I249999J0D01*
G01*
X98990001Y12330000D01*
G75*
G02*
X99240000Y12080001I0J-249999D01*
G01*
X99240000Y11179999D01*
G75*
G02*
X98990001Y10930000I-249999J0D01*
G01*
X98339999Y10930000D01*
G75*
G02*
X98090000Y11179999I0J249999D01*
G01*
G37*
G36*
G01*
X96040000Y11179999D02*
X96040000Y12080001D01*
G75*
G02*
X96289999Y12330000I249999J0D01*
G01*
X96940001Y12330000D01*
G75*
G02*
X97190000Y12080001I0J-249999D01*
G01*
X97190000Y11179999D01*
G75*
G02*
X96940001Y10930000I-249999J0D01*
G01*
X96289999Y10930000D01*
G75*
G02*
X96040000Y11179999I0J249999D01*
G01*
G37*
%TD*%
%TO.C,C1*%
G36*
G01*
X107800000Y11189999D02*
X107800000Y12090001D01*
G75*
G02*
X108049999Y12340000I249999J0D01*
G01*
X108700001Y12340000D01*
G75*
G02*
X108950000Y12090001I0J-249999D01*
G01*
X108950000Y11189999D01*
G75*
G02*
X108700001Y10940000I-249999J0D01*
G01*
X108049999Y10940000D01*
G75*
G02*
X107800000Y11189999I0J249999D01*
G01*
G37*
G36*
G01*
X105750000Y11189999D02*
X105750000Y12090001D01*
G75*
G02*
X105999999Y12340000I249999J0D01*
G01*
X106650001Y12340000D01*
G75*
G02*
X106900000Y12090001I0J-249999D01*
G01*
X106900000Y11189999D01*
G75*
G02*
X106650001Y10940000I-249999J0D01*
G01*
X105999999Y10940000D01*
G75*
G02*
X105750000Y11189999I0J249999D01*
G01*
G37*
%TD*%
%TO.C,C7*%
G36*
G01*
X101700000Y30070001D02*
X101700000Y29169999D01*
G75*
G02*
X101450001Y28920000I-249999J0D01*
G01*
X100799999Y28920000D01*
G75*
G02*
X100550000Y29169999I0J249999D01*
G01*
X100550000Y30070001D01*
G75*
G02*
X100799999Y30320000I249999J0D01*
G01*
X101450001Y30320000D01*
G75*
G02*
X101700000Y30070001I0J-249999D01*
G01*
G37*
G36*
G01*
X103750000Y30070001D02*
X103750000Y29169999D01*
G75*
G02*
X103500001Y28920000I-249999J0D01*
G01*
X102849999Y28920000D01*
G75*
G02*
X102600000Y29169999I0J249999D01*
G01*
X102600000Y30070001D01*
G75*
G02*
X102849999Y30320000I249999J0D01*
G01*
X103500001Y30320000D01*
G75*
G02*
X103750000Y30070001I0J-249999D01*
G01*
G37*
%TD*%
%TO.C,C6*%
G36*
G01*
X93260001Y25500000D02*
X92359999Y25500000D01*
G75*
G02*
X92110000Y25749999I0J249999D01*
G01*
X92110000Y26400001D01*
G75*
G02*
X92359999Y26650000I249999J0D01*
G01*
X93260001Y26650000D01*
G75*
G02*
X93510000Y26400001I0J-249999D01*
G01*
X93510000Y25749999D01*
G75*
G02*
X93260001Y25500000I-249999J0D01*
G01*
G37*
G36*
G01*
X93260001Y23450000D02*
X92359999Y23450000D01*
G75*
G02*
X92110000Y23699999I0J249999D01*
G01*
X92110000Y24350001D01*
G75*
G02*
X92359999Y24600000I249999J0D01*
G01*
X93260001Y24600000D01*
G75*
G02*
X93510000Y24350001I0J-249999D01*
G01*
X93510000Y23699999D01*
G75*
G02*
X93260001Y23450000I-249999J0D01*
G01*
G37*
%TD*%
%TO.C,C5*%
G36*
G01*
X92359999Y14910000D02*
X93260001Y14910000D01*
G75*
G02*
X93510000Y14660001I0J-249999D01*
G01*
X93510000Y14009999D01*
G75*
G02*
X93260001Y13760000I-249999J0D01*
G01*
X92359999Y13760000D01*
G75*
G02*
X92110000Y14009999I0J249999D01*
G01*
X92110000Y14660001D01*
G75*
G02*
X92359999Y14910000I249999J0D01*
G01*
G37*
G36*
G01*
X92359999Y16960000D02*
X93260001Y16960000D01*
G75*
G02*
X93510000Y16710001I0J-249999D01*
G01*
X93510000Y16059999D01*
G75*
G02*
X93260001Y15810000I-249999J0D01*
G01*
X92359999Y15810000D01*
G75*
G02*
X92110000Y16059999I0J249999D01*
G01*
X92110000Y16710001D01*
G75*
G02*
X92359999Y16960000I249999J0D01*
G01*
G37*
%TD*%
%TO.C,C3*%
G36*
G01*
X116281250Y15637501D02*
X116281250Y14737499D01*
G75*
G02*
X116031251Y14487500I-249999J0D01*
G01*
X115381249Y14487500D01*
G75*
G02*
X115131250Y14737499I0J249999D01*
G01*
X115131250Y15637501D01*
G75*
G02*
X115381249Y15887500I249999J0D01*
G01*
X116031251Y15887500D01*
G75*
G02*
X116281250Y15637501I0J-249999D01*
G01*
G37*
G36*
G01*
X118331250Y15637501D02*
X118331250Y14737499D01*
G75*
G02*
X118081251Y14487500I-249999J0D01*
G01*
X117431249Y14487500D01*
G75*
G02*
X117181250Y14737499I0J249999D01*
G01*
X117181250Y15637501D01*
G75*
G02*
X117431249Y15887500I249999J0D01*
G01*
X118081251Y15887500D01*
G75*
G02*
X118331250Y15637501I0J-249999D01*
G01*
G37*
%TD*%
%TO.C,R1*%
G36*
G01*
X18100001Y88775000D02*
X17199999Y88775000D01*
G75*
G02*
X16950000Y89024999I0J249999D01*
G01*
X16950000Y89675001D01*
G75*
G02*
X17199999Y89925000I249999J0D01*
G01*
X18100001Y89925000D01*
G75*
G02*
X18350000Y89675001I0J-249999D01*
G01*
X18350000Y89024999D01*
G75*
G02*
X18100001Y88775000I-249999J0D01*
G01*
G37*
G36*
G01*
X18100001Y86725000D02*
X17199999Y86725000D01*
G75*
G02*
X16950000Y86974999I0J249999D01*
G01*
X16950000Y87625001D01*
G75*
G02*
X17199999Y87875000I249999J0D01*
G01*
X18100001Y87875000D01*
G75*
G02*
X18350000Y87625001I0J-249999D01*
G01*
X18350000Y86974999D01*
G75*
G02*
X18100001Y86725000I-249999J0D01*
G01*
G37*
%TD*%
D13*
%TO.C,U2*%
X29570000Y93880000D03*
D14*
X27570000Y94080000D03*
X29570000Y92180000D03*
X27570000Y92180000D03*
%TD*%
%TO.C,F1*%
G36*
G01*
X21480001Y88770000D02*
X20579999Y88770000D01*
G75*
G02*
X20330000Y89019999I0J249999D01*
G01*
X20330000Y89670001D01*
G75*
G02*
X20579999Y89920000I249999J0D01*
G01*
X21480001Y89920000D01*
G75*
G02*
X21730000Y89670001I0J-249999D01*
G01*
X21730000Y89019999D01*
G75*
G02*
X21480001Y88770000I-249999J0D01*
G01*
G37*
G36*
G01*
X21480001Y86720000D02*
X20579999Y86720000D01*
G75*
G02*
X20330000Y86969999I0J249999D01*
G01*
X20330000Y87620001D01*
G75*
G02*
X20579999Y87870000I249999J0D01*
G01*
X21480001Y87870000D01*
G75*
G02*
X21730000Y87620001I0J-249999D01*
G01*
X21730000Y86969999D01*
G75*
G02*
X21480001Y86720000I-249999J0D01*
G01*
G37*
%TD*%
D10*
%TO.C,MX4*%
X36771250Y43180000D03*
X23871250Y40640000D03*
%TD*%
%TO.C,MX56*%
X279658750Y62230000D03*
X266758750Y59690000D03*
%TD*%
%TO.C,MX18*%
X105827500Y43180000D03*
X92927500Y40640000D03*
%TD*%
%TO.C,MX17*%
X96302500Y62230000D03*
X83402500Y59690000D03*
%TD*%
%TO.C,MX16*%
X91540000Y81280000D03*
X78640000Y78740000D03*
%TD*%
D15*
%TO.C,D16*%
X90487500Y69787500D03*
X90487500Y73087500D03*
%TD*%
D16*
%TO.C,USB1*%
X31815000Y98560000D03*
X25365000Y98560000D03*
X31040000Y98560000D03*
X26140000Y98560000D03*
D17*
X26840000Y98560000D03*
X30340000Y98560000D03*
X27340000Y98560000D03*
X29840000Y98560000D03*
X27840000Y98560000D03*
X29340000Y98560000D03*
X28840000Y98560000D03*
X28340000Y98560000D03*
%TD*%
D18*
%TO.C,U1*%
X96800000Y24200000D03*
X96800000Y23400000D03*
X96800000Y22600000D03*
X96800000Y21800000D03*
X96800000Y21000000D03*
X96800000Y20200000D03*
X96800000Y19400000D03*
X96800000Y18600000D03*
X96800000Y17800000D03*
X96800000Y17000000D03*
X96800000Y16200000D03*
D19*
X98500000Y14500000D03*
X99300000Y14500000D03*
X100100000Y14500000D03*
X100900000Y14500000D03*
X101700000Y14500000D03*
X102500000Y14500000D03*
X103300000Y14500000D03*
X104100000Y14500000D03*
X104900000Y14500000D03*
X105700000Y14500000D03*
X106500000Y14500000D03*
D18*
X108200000Y16200000D03*
X108200000Y17000000D03*
X108200000Y17800000D03*
X108200000Y18600000D03*
X108200000Y19400000D03*
X108200000Y20200000D03*
X108200000Y21000000D03*
X108200000Y21800000D03*
X108200000Y22600000D03*
X108200000Y23400000D03*
X108200000Y24200000D03*
D19*
X106500000Y25900000D03*
X105700000Y25900000D03*
X104900000Y25900000D03*
X104100000Y25900000D03*
X103300000Y25900000D03*
X102500000Y25900000D03*
X101700000Y25900000D03*
X100900000Y25900000D03*
X100100000Y25900000D03*
X99300000Y25900000D03*
X98500000Y25900000D03*
%TD*%
%TO.C,R4*%
G36*
G01*
X27149999Y87320000D02*
X28050001Y87320000D01*
G75*
G02*
X28300000Y87070001I0J-249999D01*
G01*
X28300000Y86419999D01*
G75*
G02*
X28050001Y86170000I-249999J0D01*
G01*
X27149999Y86170000D01*
G75*
G02*
X26900000Y86419999I0J249999D01*
G01*
X26900000Y87070001D01*
G75*
G02*
X27149999Y87320000I249999J0D01*
G01*
G37*
G36*
G01*
X27149999Y89370000D02*
X28050001Y89370000D01*
G75*
G02*
X28300000Y89120001I0J-249999D01*
G01*
X28300000Y88469999D01*
G75*
G02*
X28050001Y88220000I-249999J0D01*
G01*
X27149999Y88220000D01*
G75*
G02*
X26900000Y88469999I0J249999D01*
G01*
X26900000Y89120001D01*
G75*
G02*
X27149999Y89370000I249999J0D01*
G01*
G37*
%TD*%
%TO.C,R3*%
G36*
G01*
X29099999Y87330000D02*
X30000001Y87330000D01*
G75*
G02*
X30250000Y87080001I0J-249999D01*
G01*
X30250000Y86429999D01*
G75*
G02*
X30000001Y86180000I-249999J0D01*
G01*
X29099999Y86180000D01*
G75*
G02*
X28850000Y86429999I0J249999D01*
G01*
X28850000Y87080001D01*
G75*
G02*
X29099999Y87330000I249999J0D01*
G01*
G37*
G36*
G01*
X29099999Y89380000D02*
X30000001Y89380000D01*
G75*
G02*
X30250000Y89130001I0J-249999D01*
G01*
X30250000Y88479999D01*
G75*
G02*
X30000001Y88230000I-249999J0D01*
G01*
X29099999Y88230000D01*
G75*
G02*
X28850000Y88479999I0J249999D01*
G01*
X28850000Y89130001D01*
G75*
G02*
X29099999Y89380000I249999J0D01*
G01*
G37*
%TD*%
%TO.C,R2*%
G36*
G01*
X34500001Y88700000D02*
X33599999Y88700000D01*
G75*
G02*
X33350000Y88949999I0J249999D01*
G01*
X33350000Y89600001D01*
G75*
G02*
X33599999Y89850000I249999J0D01*
G01*
X34500001Y89850000D01*
G75*
G02*
X34750000Y89600001I0J-249999D01*
G01*
X34750000Y88949999D01*
G75*
G02*
X34500001Y88700000I-249999J0D01*
G01*
G37*
G36*
G01*
X34500001Y86650000D02*
X33599999Y86650000D01*
G75*
G02*
X33350000Y86899999I0J249999D01*
G01*
X33350000Y87550001D01*
G75*
G02*
X33599999Y87800000I249999J0D01*
G01*
X34500001Y87800000D01*
G75*
G02*
X34750000Y87550001I0J-249999D01*
G01*
X34750000Y86899999D01*
G75*
G02*
X34500001Y86650000I-249999J0D01*
G01*
G37*
%TD*%
D10*
%TO.C,MX59*%
X291565000Y100330000D03*
X278665000Y97790000D03*
%TD*%
%TO.C,MX58*%
X272515000Y100330000D03*
X259615000Y97790000D03*
%TD*%
%TO.C,MX57*%
X291565000Y43180000D03*
X278665000Y40640000D03*
%TD*%
%TO.C,MX55*%
X262990000Y81280000D03*
X250090000Y78740000D03*
%TD*%
%TO.C,MX54*%
X253465000Y100330000D03*
X240565000Y97790000D03*
%TD*%
%TO.C,MX53*%
X265371250Y43180000D03*
X252471250Y40640000D03*
%TD*%
%TO.C,MX52*%
X248702500Y62230000D03*
X235802500Y59690000D03*
%TD*%
%TO.C,MX51*%
X243940000Y81280000D03*
X231040000Y78740000D03*
%TD*%
%TO.C,MX50*%
X234415000Y100330000D03*
X221515000Y97790000D03*
%TD*%
%TO.C,MX49*%
X243940000Y24130000D03*
X231040000Y21590000D03*
%TD*%
%TO.C,MX48*%
X239177500Y43180000D03*
X226277500Y40640000D03*
%TD*%
%TO.C,MX47*%
X229652500Y62230000D03*
X216752500Y59690000D03*
%TD*%
%TO.C,MX46*%
X224890000Y81280000D03*
X211990000Y78740000D03*
%TD*%
%TO.C,MX45*%
X215365000Y100330000D03*
X202465000Y97790000D03*
%TD*%
%TO.C,MX44*%
X220127500Y24130000D03*
X207227500Y21590000D03*
%TD*%
%TO.C,MX43*%
X220127500Y43180000D03*
X207227500Y40640000D03*
%TD*%
%TO.C,MX42*%
X210602500Y62230000D03*
X197702500Y59690000D03*
%TD*%
%TO.C,MX41*%
X205840000Y81280000D03*
X192940000Y78740000D03*
%TD*%
%TO.C,MX40*%
X196315000Y100330000D03*
X183415000Y97790000D03*
%TD*%
%TO.C,MX39*%
X201077500Y43180000D03*
X188177500Y40640000D03*
%TD*%
%TO.C,MX38*%
X191552500Y62230000D03*
X178652500Y59690000D03*
%TD*%
%TO.C,MX37*%
X186790000Y81280000D03*
X173890000Y78740000D03*
%TD*%
%TO.C,MX36*%
X177265000Y100330000D03*
X164365000Y97790000D03*
%TD*%
%TO.C,MX35*%
X182027500Y43180000D03*
X169127500Y40640000D03*
%TD*%
%TO.C,MX34*%
X172502500Y62230000D03*
X159602500Y59690000D03*
%TD*%
%TO.C,MX33*%
X167740000Y81280000D03*
X154840000Y78740000D03*
%TD*%
%TO.C,MX32*%
X158215000Y100330000D03*
X145315000Y97790000D03*
%TD*%
%TO.C,MX31*%
X162977500Y43180000D03*
X150077500Y40640000D03*
%TD*%
%TO.C,MX29*%
X148690000Y81280000D03*
X135790000Y78740000D03*
%TD*%
%TO.C,MX28*%
X139165000Y100330000D03*
X126265000Y97790000D03*
%TD*%
%TO.C,MX26*%
X143927500Y43180000D03*
X131027500Y40640000D03*
%TD*%
%TO.C,MX25*%
X134402500Y62230000D03*
X121502500Y59690000D03*
%TD*%
%TO.C,MX24*%
X129640000Y81280000D03*
X116740000Y78740000D03*
%TD*%
%TO.C,MX23*%
X120115000Y100330000D03*
X107215000Y97790000D03*
%TD*%
%TO.C,MX21*%
X115352500Y62230000D03*
X102452500Y59690000D03*
%TD*%
%TO.C,MX20*%
X110590000Y81280000D03*
X97690000Y78740000D03*
%TD*%
%TO.C,MX19*%
X101065000Y100330000D03*
X88165000Y97790000D03*
%TD*%
%TO.C,MX15*%
X82015000Y100330000D03*
X69115000Y97790000D03*
%TD*%
%TO.C,MX14*%
X86777500Y43180000D03*
X73877500Y40640000D03*
%TD*%
%TO.C,MX13*%
X77252500Y62230000D03*
X64352500Y59690000D03*
%TD*%
%TO.C,MX12*%
X72490000Y81280000D03*
X59590000Y78740000D03*
%TD*%
%TO.C,MX11*%
X62965000Y100330000D03*
X50065000Y97790000D03*
%TD*%
%TO.C,MX10*%
X77252500Y24130000D03*
X64352500Y21590000D03*
%TD*%
%TO.C,MX9*%
X67727500Y43180000D03*
X54827500Y40640000D03*
%TD*%
%TO.C,MX8*%
X58202500Y62230000D03*
X45302500Y59690000D03*
%TD*%
%TO.C,MX7*%
X53440000Y81280000D03*
X40540000Y78740000D03*
%TD*%
%TO.C,MX5*%
X53440000Y24130000D03*
X40540000Y21590000D03*
%TD*%
%TO.C,MX2*%
X29627500Y81280000D03*
X16727500Y78740000D03*
%TD*%
D15*
%TO.C,D60*%
X285750000Y69787500D03*
X285750000Y73087500D03*
%TD*%
%TO.C,D59*%
X292893750Y88837500D03*
X292893750Y92137500D03*
%TD*%
%TO.C,D58*%
X271462500Y88837500D03*
X271462500Y92137500D03*
%TD*%
%TO.C,D57*%
X290512500Y31687500D03*
X290512500Y34987500D03*
%TD*%
%TO.C,D56*%
X278606250Y50737500D03*
X278606250Y54037500D03*
%TD*%
%TO.C,D55*%
X261937500Y69787500D03*
X261937500Y73087500D03*
%TD*%
%TO.C,D54*%
X252412500Y88837500D03*
X252412500Y92137500D03*
%TD*%
%TO.C,D53*%
X264318750Y31687500D03*
X264318750Y34987500D03*
%TD*%
%TO.C,D52*%
X247650000Y50737500D03*
X247650000Y54037500D03*
%TD*%
%TO.C,D51*%
X242887500Y69787500D03*
X242887500Y73087500D03*
%TD*%
%TO.C,D50*%
X233362500Y88837500D03*
X233362500Y92137500D03*
%TD*%
%TO.C,D49*%
X242887500Y12637500D03*
X242887500Y15937500D03*
%TD*%
%TO.C,D48*%
X238125000Y31687500D03*
X238125000Y34987500D03*
%TD*%
%TO.C,D47*%
X228600000Y50737500D03*
X228600000Y54037500D03*
%TD*%
%TO.C,D46*%
X223837500Y69787500D03*
X223837500Y73087500D03*
%TD*%
%TO.C,D45*%
X214312500Y88837500D03*
X214312500Y92137500D03*
%TD*%
%TO.C,D44*%
X219075000Y12637500D03*
X219075000Y15937500D03*
%TD*%
%TO.C,D43*%
X219075000Y31687500D03*
X219075000Y34987500D03*
%TD*%
%TO.C,D42*%
X209550000Y50737500D03*
X209550000Y54037500D03*
%TD*%
%TO.C,D41*%
X204787500Y69787500D03*
X204787500Y73087500D03*
%TD*%
%TO.C,D40*%
X195262500Y88837500D03*
X195262500Y92137500D03*
%TD*%
%TO.C,D39*%
X200025000Y31687500D03*
X200025000Y34987500D03*
%TD*%
%TO.C,D38*%
X190500000Y50737500D03*
X190500000Y54037500D03*
%TD*%
%TO.C,D37*%
X185737500Y69787500D03*
X185737500Y73087500D03*
%TD*%
%TO.C,D36*%
X176212500Y88837500D03*
X176212500Y92137500D03*
%TD*%
%TO.C,D35*%
X180975000Y31687500D03*
X180975000Y34987500D03*
%TD*%
%TO.C,D34*%
X171450000Y50737500D03*
X171450000Y54037500D03*
%TD*%
%TO.C,D33*%
X166687500Y69787500D03*
X166687500Y73087500D03*
%TD*%
%TO.C,D32*%
X157162500Y88837500D03*
X157162500Y92137500D03*
%TD*%
%TO.C,D31*%
X161925000Y31687500D03*
X161925000Y34987500D03*
%TD*%
%TO.C,D30*%
X152400000Y50737500D03*
X152400000Y54037500D03*
%TD*%
%TO.C,D29*%
X147637500Y69787500D03*
X147637500Y73087500D03*
%TD*%
%TO.C,D28*%
X138112500Y88837500D03*
X138112500Y92137500D03*
%TD*%
%TO.C,D27*%
X147637500Y12637500D03*
X147637500Y15937500D03*
%TD*%
%TO.C,D26*%
X142875000Y31687500D03*
X142875000Y34987500D03*
%TD*%
%TO.C,D25*%
X133350000Y50737500D03*
X133350000Y54037500D03*
%TD*%
%TO.C,D24*%
X128587500Y69787500D03*
X128587500Y73087500D03*
%TD*%
%TO.C,D23*%
X119062500Y88837500D03*
X119062500Y92137500D03*
%TD*%
%TO.C,D22*%
X123825000Y31687500D03*
X123825000Y34987500D03*
%TD*%
%TO.C,D21*%
X114300000Y50737500D03*
X114300000Y54037500D03*
%TD*%
%TO.C,D20*%
X109537500Y69787500D03*
X109537500Y73087500D03*
%TD*%
%TO.C,D19*%
X100012500Y88837500D03*
X100012500Y92137500D03*
%TD*%
%TO.C,D18*%
X104775000Y31687500D03*
X104775000Y34987500D03*
%TD*%
%TO.C,D17*%
X95250000Y50737500D03*
X95250000Y54037500D03*
%TD*%
%TO.C,D15*%
X80962500Y88837500D03*
X80962500Y92137500D03*
%TD*%
%TO.C,D14*%
X85725000Y31687500D03*
X85725000Y34987500D03*
%TD*%
%TO.C,D13*%
X76200000Y50737500D03*
X76200000Y54037500D03*
%TD*%
%TO.C,D12*%
X71437500Y69787500D03*
X71437500Y73087500D03*
%TD*%
%TO.C,D11*%
X61912500Y88837500D03*
X61912500Y92137500D03*
%TD*%
%TO.C,D10*%
X76200000Y12637500D03*
X76200000Y15937500D03*
%TD*%
%TO.C,D9*%
X66675000Y31687500D03*
X66675000Y34987500D03*
%TD*%
%TO.C,D8*%
X57150000Y50737500D03*
X57150000Y54037500D03*
%TD*%
%TO.C,D7*%
X52387500Y69787500D03*
X52387500Y73087500D03*
%TD*%
%TO.C,D6*%
X42862500Y88837500D03*
X42862500Y92137500D03*
%TD*%
%TO.C,D5*%
X52387500Y12637500D03*
X52387500Y15937500D03*
%TD*%
%TO.C,D4*%
X35718750Y31687500D03*
X35718750Y34987500D03*
%TD*%
%TO.C,D3*%
X30956250Y50737500D03*
X30956250Y54037500D03*
%TD*%
%TO.C,D2*%
X28575000Y69787500D03*
X28575000Y73087500D03*
%TD*%
%TO.C,D1*%
X23812500Y88837500D03*
X23812500Y92137500D03*
%TD*%
M02*
