%TF.GenerationSoftware,KiCad,Pcbnew,(5.1.6)-1*%
%TF.CreationDate,2020-09-28T13:00:59+07:00*%
%TF.ProjectId,HHKR,48484b52-2e6b-4696-9361-645f70636258,rev?*%
%TF.SameCoordinates,Original*%
%TF.FileFunction,Soldermask,Bot*%
%TF.FilePolarity,Negative*%
%FSLAX46Y46*%
G04 Gerber Fmt 4.6, Leading zero omitted, Abs format (unit mm)*
G04 Created by KiCad (PCBNEW (5.1.6)-1) date 2020-09-28 13:00:59*
%MOMM*%
%LPD*%
G01*
G04 APERTURE LIST*
%ADD10R,2.550000X2.500000*%
%ADD11C,1.850000*%
%ADD12C,4.087800*%
%ADD13C,7.100240*%
%ADD14O,10.099980X5.101260*%
%ADD15C,3.600000*%
%ADD16C,3.148000*%
%ADD17R,1.900000X2.200000*%
%ADD18R,1.100000X1.800000*%
%ADD19R,0.800000X1.100000*%
%ADD20R,0.800000X0.700000*%
%ADD21C,2.350000*%
%ADD22R,1.300000X1.000000*%
%ADD23R,0.700000X2.550000*%
%ADD24R,0.400000X2.550000*%
%ADD25C,0.750000*%
%ADD26R,1.600000X0.650000*%
%ADD27R,0.650000X1.600000*%
%ADD28C,2.100000*%
%ADD29R,2.100000X3.300000*%
%ADD30R,2.100000X2.100000*%
%ADD31O,1.800000X1.800000*%
%ADD32R,1.800000X1.800000*%
G04 APERTURE END LIST*
D10*
%TO.C,MX60*%
X286802500Y81280000D03*
X273902500Y78740000D03*
D11*
X286067500Y76200000D03*
X275907500Y76200000D03*
D12*
X280987500Y76200000D03*
%TD*%
D10*
%TO.C,MX30*%
X153452500Y62230000D03*
X140552500Y59690000D03*
D11*
X152717500Y57150000D03*
X142557500Y57150000D03*
D12*
X147637500Y57150000D03*
%TD*%
D13*
%TO.C,H6*%
X138250000Y57250000D03*
%TD*%
%TO.C,H5*%
X200550000Y19050000D03*
%TD*%
%TO.C,H4*%
X270100000Y76350000D03*
%TD*%
D14*
%TO.C,H3*%
X295050000Y47750000D03*
%TD*%
%TO.C,H2*%
X10050000Y47750000D03*
%TD*%
D15*
%TO.C,H1*%
X35250000Y76350000D03*
%TD*%
D11*
%TO.C,MX27*%
X137795000Y19050000D03*
D10*
X135790000Y21590000D03*
D11*
X147955000Y19050000D03*
D10*
X148690000Y24130000D03*
D12*
X142875000Y19050000D03*
D16*
X85725000Y12065000D03*
X180975000Y12065000D03*
D12*
X85725000Y27305000D03*
X180975000Y27305000D03*
%TD*%
D10*
%TO.C,MX22*%
X124877500Y43180000D03*
X111977500Y40640000D03*
D11*
X124142500Y38100000D03*
X113982500Y38100000D03*
D12*
X119062500Y38100000D03*
%TD*%
%TO.C,R5*%
G36*
G01*
X112060000Y30188262D02*
X112060000Y29231738D01*
G75*
G02*
X111788262Y28960000I-271738J0D01*
G01*
X111081738Y28960000D01*
G75*
G02*
X110810000Y29231738I0J271738D01*
G01*
X110810000Y30188262D01*
G75*
G02*
X111081738Y30460000I271738J0D01*
G01*
X111788262Y30460000D01*
G75*
G02*
X112060000Y30188262I0J-271738D01*
G01*
G37*
G36*
G01*
X114110000Y30188262D02*
X114110000Y29231738D01*
G75*
G02*
X113838262Y28960000I-271738J0D01*
G01*
X113131738Y28960000D01*
G75*
G02*
X112860000Y29231738I0J271738D01*
G01*
X112860000Y30188262D01*
G75*
G02*
X113131738Y30460000I271738J0D01*
G01*
X113838262Y30460000D01*
G75*
G02*
X114110000Y30188262I0J-271738D01*
G01*
G37*
%TD*%
%TO.C,C2*%
G36*
G01*
X112860000Y27241738D02*
X112860000Y28198262D01*
G75*
G02*
X113131738Y28470000I271738J0D01*
G01*
X113838262Y28470000D01*
G75*
G02*
X114110000Y28198262I0J-271738D01*
G01*
X114110000Y27241738D01*
G75*
G02*
X113838262Y26970000I-271738J0D01*
G01*
X113131738Y26970000D01*
G75*
G02*
X112860000Y27241738I0J271738D01*
G01*
G37*
G36*
G01*
X110810000Y27241738D02*
X110810000Y28198262D01*
G75*
G02*
X111081738Y28470000I271738J0D01*
G01*
X111788262Y28470000D01*
G75*
G02*
X112060000Y28198262I0J-271738D01*
G01*
X112060000Y27241738D01*
G75*
G02*
X111788262Y26970000I-271738J0D01*
G01*
X111081738Y26970000D01*
G75*
G02*
X110810000Y27241738I0J271738D01*
G01*
G37*
%TD*%
%TO.C,C4*%
G36*
G01*
X117096250Y23919238D02*
X117096250Y24875762D01*
G75*
G02*
X117367988Y25147500I271738J0D01*
G01*
X118074512Y25147500D01*
G75*
G02*
X118346250Y24875762I0J-271738D01*
G01*
X118346250Y23919238D01*
G75*
G02*
X118074512Y23647500I-271738J0D01*
G01*
X117367988Y23647500D01*
G75*
G02*
X117096250Y23919238I0J271738D01*
G01*
G37*
G36*
G01*
X115046250Y23919238D02*
X115046250Y24875762D01*
G75*
G02*
X115317988Y25147500I271738J0D01*
G01*
X116024512Y25147500D01*
G75*
G02*
X116296250Y24875762I0J-271738D01*
G01*
X116296250Y23919238D01*
G75*
G02*
X116024512Y23647500I-271738J0D01*
G01*
X115317988Y23647500D01*
G75*
G02*
X115046250Y23919238I0J271738D01*
G01*
G37*
%TD*%
D17*
%TO.C,Y1*%
X117851250Y18507500D03*
X117851250Y21407500D03*
X115551250Y21407500D03*
X115551250Y18507500D03*
%TD*%
D18*
%TO.C,SW1*%
X127570000Y27390000D03*
X127570000Y21090000D03*
X131370000Y27390000D03*
X131370000Y21090000D03*
%TD*%
%TO.C,R6*%
G36*
G01*
X98040000Y11151738D02*
X98040000Y12108262D01*
G75*
G02*
X98311738Y12380000I271738J0D01*
G01*
X99018262Y12380000D01*
G75*
G02*
X99290000Y12108262I0J-271738D01*
G01*
X99290000Y11151738D01*
G75*
G02*
X99018262Y10880000I-271738J0D01*
G01*
X98311738Y10880000D01*
G75*
G02*
X98040000Y11151738I0J271738D01*
G01*
G37*
G36*
G01*
X95990000Y11151738D02*
X95990000Y12108262D01*
G75*
G02*
X96261738Y12380000I271738J0D01*
G01*
X96968262Y12380000D01*
G75*
G02*
X97240000Y12108262I0J-271738D01*
G01*
X97240000Y11151738D01*
G75*
G02*
X96968262Y10880000I-271738J0D01*
G01*
X96261738Y10880000D01*
G75*
G02*
X95990000Y11151738I0J271738D01*
G01*
G37*
%TD*%
%TO.C,C1*%
G36*
G01*
X107750000Y11161738D02*
X107750000Y12118262D01*
G75*
G02*
X108021738Y12390000I271738J0D01*
G01*
X108728262Y12390000D01*
G75*
G02*
X109000000Y12118262I0J-271738D01*
G01*
X109000000Y11161738D01*
G75*
G02*
X108728262Y10890000I-271738J0D01*
G01*
X108021738Y10890000D01*
G75*
G02*
X107750000Y11161738I0J271738D01*
G01*
G37*
G36*
G01*
X105700000Y11161738D02*
X105700000Y12118262D01*
G75*
G02*
X105971738Y12390000I271738J0D01*
G01*
X106678262Y12390000D01*
G75*
G02*
X106950000Y12118262I0J-271738D01*
G01*
X106950000Y11161738D01*
G75*
G02*
X106678262Y10890000I-271738J0D01*
G01*
X105971738Y10890000D01*
G75*
G02*
X105700000Y11161738I0J271738D01*
G01*
G37*
%TD*%
%TO.C,C7*%
G36*
G01*
X101750000Y30098262D02*
X101750000Y29141738D01*
G75*
G02*
X101478262Y28870000I-271738J0D01*
G01*
X100771738Y28870000D01*
G75*
G02*
X100500000Y29141738I0J271738D01*
G01*
X100500000Y30098262D01*
G75*
G02*
X100771738Y30370000I271738J0D01*
G01*
X101478262Y30370000D01*
G75*
G02*
X101750000Y30098262I0J-271738D01*
G01*
G37*
G36*
G01*
X103800000Y30098262D02*
X103800000Y29141738D01*
G75*
G02*
X103528262Y28870000I-271738J0D01*
G01*
X102821738Y28870000D01*
G75*
G02*
X102550000Y29141738I0J271738D01*
G01*
X102550000Y30098262D01*
G75*
G02*
X102821738Y30370000I271738J0D01*
G01*
X103528262Y30370000D01*
G75*
G02*
X103800000Y30098262I0J-271738D01*
G01*
G37*
%TD*%
%TO.C,C6*%
G36*
G01*
X93288262Y25450000D02*
X92331738Y25450000D01*
G75*
G02*
X92060000Y25721738I0J271738D01*
G01*
X92060000Y26428262D01*
G75*
G02*
X92331738Y26700000I271738J0D01*
G01*
X93288262Y26700000D01*
G75*
G02*
X93560000Y26428262I0J-271738D01*
G01*
X93560000Y25721738D01*
G75*
G02*
X93288262Y25450000I-271738J0D01*
G01*
G37*
G36*
G01*
X93288262Y23400000D02*
X92331738Y23400000D01*
G75*
G02*
X92060000Y23671738I0J271738D01*
G01*
X92060000Y24378262D01*
G75*
G02*
X92331738Y24650000I271738J0D01*
G01*
X93288262Y24650000D01*
G75*
G02*
X93560000Y24378262I0J-271738D01*
G01*
X93560000Y23671738D01*
G75*
G02*
X93288262Y23400000I-271738J0D01*
G01*
G37*
%TD*%
%TO.C,C5*%
G36*
G01*
X92331738Y14960000D02*
X93288262Y14960000D01*
G75*
G02*
X93560000Y14688262I0J-271738D01*
G01*
X93560000Y13981738D01*
G75*
G02*
X93288262Y13710000I-271738J0D01*
G01*
X92331738Y13710000D01*
G75*
G02*
X92060000Y13981738I0J271738D01*
G01*
X92060000Y14688262D01*
G75*
G02*
X92331738Y14960000I271738J0D01*
G01*
G37*
G36*
G01*
X92331738Y17010000D02*
X93288262Y17010000D01*
G75*
G02*
X93560000Y16738262I0J-271738D01*
G01*
X93560000Y16031738D01*
G75*
G02*
X93288262Y15760000I-271738J0D01*
G01*
X92331738Y15760000D01*
G75*
G02*
X92060000Y16031738I0J271738D01*
G01*
X92060000Y16738262D01*
G75*
G02*
X92331738Y17010000I271738J0D01*
G01*
G37*
%TD*%
%TO.C,C3*%
G36*
G01*
X116331250Y15665762D02*
X116331250Y14709238D01*
G75*
G02*
X116059512Y14437500I-271738J0D01*
G01*
X115352988Y14437500D01*
G75*
G02*
X115081250Y14709238I0J271738D01*
G01*
X115081250Y15665762D01*
G75*
G02*
X115352988Y15937500I271738J0D01*
G01*
X116059512Y15937500D01*
G75*
G02*
X116331250Y15665762I0J-271738D01*
G01*
G37*
G36*
G01*
X118381250Y15665762D02*
X118381250Y14709238D01*
G75*
G02*
X118109512Y14437500I-271738J0D01*
G01*
X117402988Y14437500D01*
G75*
G02*
X117131250Y14709238I0J271738D01*
G01*
X117131250Y15665762D01*
G75*
G02*
X117402988Y15937500I271738J0D01*
G01*
X118109512Y15937500D01*
G75*
G02*
X118381250Y15665762I0J-271738D01*
G01*
G37*
%TD*%
%TO.C,R1*%
G36*
G01*
X18128262Y88725000D02*
X17171738Y88725000D01*
G75*
G02*
X16900000Y88996738I0J271738D01*
G01*
X16900000Y89703262D01*
G75*
G02*
X17171738Y89975000I271738J0D01*
G01*
X18128262Y89975000D01*
G75*
G02*
X18400000Y89703262I0J-271738D01*
G01*
X18400000Y88996738D01*
G75*
G02*
X18128262Y88725000I-271738J0D01*
G01*
G37*
G36*
G01*
X18128262Y86675000D02*
X17171738Y86675000D01*
G75*
G02*
X16900000Y86946738I0J271738D01*
G01*
X16900000Y87653262D01*
G75*
G02*
X17171738Y87925000I271738J0D01*
G01*
X18128262Y87925000D01*
G75*
G02*
X18400000Y87653262I0J-271738D01*
G01*
X18400000Y86946738D01*
G75*
G02*
X18128262Y86675000I-271738J0D01*
G01*
G37*
%TD*%
D19*
%TO.C,U2*%
X29570000Y93880000D03*
D20*
X27570000Y94080000D03*
X29570000Y92180000D03*
X27570000Y92180000D03*
%TD*%
%TO.C,F1*%
G36*
G01*
X21508262Y88720000D02*
X20551738Y88720000D01*
G75*
G02*
X20280000Y88991738I0J271738D01*
G01*
X20280000Y89698262D01*
G75*
G02*
X20551738Y89970000I271738J0D01*
G01*
X21508262Y89970000D01*
G75*
G02*
X21780000Y89698262I0J-271738D01*
G01*
X21780000Y88991738D01*
G75*
G02*
X21508262Y88720000I-271738J0D01*
G01*
G37*
G36*
G01*
X21508262Y86670000D02*
X20551738Y86670000D01*
G75*
G02*
X20280000Y86941738I0J271738D01*
G01*
X20280000Y87648262D01*
G75*
G02*
X20551738Y87920000I271738J0D01*
G01*
X21508262Y87920000D01*
G75*
G02*
X21780000Y87648262I0J-271738D01*
G01*
X21780000Y86941738D01*
G75*
G02*
X21508262Y86670000I-271738J0D01*
G01*
G37*
%TD*%
D21*
%TO.C,MX61*%
X23971250Y62230000D03*
D12*
X21431250Y57150000D03*
D21*
X17621250Y59690000D03*
D11*
X16351250Y57150000D03*
X26511250Y57150000D03*
%TD*%
D21*
%TO.C,MX3*%
X28733750Y62230000D03*
D12*
X26193750Y57150000D03*
D21*
X22383750Y59690000D03*
D11*
X21113750Y57150000D03*
X31273750Y57150000D03*
%TD*%
D10*
%TO.C,MX4*%
X36771250Y43180000D03*
D11*
X25876250Y38100000D03*
D12*
X30956250Y38100000D03*
D11*
X36036250Y38100000D03*
D10*
X23871250Y40640000D03*
D12*
X19018250Y29845000D03*
X42894250Y29845000D03*
D16*
X19018250Y45085000D03*
X42894250Y45085000D03*
%TD*%
D10*
%TO.C,MX56*%
X279658750Y62230000D03*
D11*
X268763750Y57150000D03*
D12*
X273843750Y57150000D03*
D11*
X278923750Y57150000D03*
D10*
X266758750Y59690000D03*
D12*
X261905750Y48895000D03*
X285781750Y48895000D03*
D16*
X261905750Y64135000D03*
X285781750Y64135000D03*
%TD*%
D21*
%TO.C,MX6*%
X40640000Y100330000D03*
D12*
X38100000Y95250000D03*
D21*
X34290000Y97790000D03*
D11*
X33020000Y95250000D03*
X43180000Y95250000D03*
%TD*%
D21*
%TO.C,MX1*%
X21590000Y100330000D03*
D12*
X19050000Y95250000D03*
D21*
X15240000Y97790000D03*
D11*
X13970000Y95250000D03*
X24130000Y95250000D03*
%TD*%
D10*
%TO.C,MX18*%
X105827500Y43180000D03*
X92927500Y40640000D03*
D11*
X105092500Y38100000D03*
X94932500Y38100000D03*
D12*
X100012500Y38100000D03*
%TD*%
D10*
%TO.C,MX17*%
X96302500Y62230000D03*
X83402500Y59690000D03*
D11*
X95567500Y57150000D03*
X85407500Y57150000D03*
D12*
X90487500Y57150000D03*
%TD*%
D10*
%TO.C,MX16*%
X91540000Y81280000D03*
X78640000Y78740000D03*
D11*
X90805000Y76200000D03*
X80645000Y76200000D03*
D12*
X85725000Y76200000D03*
%TD*%
D22*
%TO.C,D16*%
X90487500Y69787500D03*
X90487500Y73087500D03*
%TD*%
D23*
%TO.C,USB1*%
X31815000Y98560000D03*
X25365000Y98560000D03*
X31040000Y98560000D03*
X26140000Y98560000D03*
D24*
X26840000Y98560000D03*
X30340000Y98560000D03*
X27340000Y98560000D03*
X29840000Y98560000D03*
X27840000Y98560000D03*
X29340000Y98560000D03*
X28840000Y98560000D03*
X28340000Y98560000D03*
D25*
X31480000Y100505000D03*
X25700000Y100505000D03*
%TD*%
D26*
%TO.C,U1*%
X96800000Y24200000D03*
X96800000Y23400000D03*
X96800000Y22600000D03*
X96800000Y21800000D03*
X96800000Y21000000D03*
X96800000Y20200000D03*
X96800000Y19400000D03*
X96800000Y18600000D03*
X96800000Y17800000D03*
X96800000Y17000000D03*
X96800000Y16200000D03*
D27*
X98500000Y14500000D03*
X99300000Y14500000D03*
X100100000Y14500000D03*
X100900000Y14500000D03*
X101700000Y14500000D03*
X102500000Y14500000D03*
X103300000Y14500000D03*
X104100000Y14500000D03*
X104900000Y14500000D03*
X105700000Y14500000D03*
X106500000Y14500000D03*
D26*
X108200000Y16200000D03*
X108200000Y17000000D03*
X108200000Y17800000D03*
X108200000Y18600000D03*
X108200000Y19400000D03*
X108200000Y20200000D03*
X108200000Y21000000D03*
X108200000Y21800000D03*
X108200000Y22600000D03*
X108200000Y23400000D03*
X108200000Y24200000D03*
D27*
X106500000Y25900000D03*
X105700000Y25900000D03*
X104900000Y25900000D03*
X104100000Y25900000D03*
X103300000Y25900000D03*
X102500000Y25900000D03*
X101700000Y25900000D03*
X100900000Y25900000D03*
X100100000Y25900000D03*
X99300000Y25900000D03*
X98500000Y25900000D03*
%TD*%
D28*
%TO.C,SWE1*%
X288368750Y102250000D03*
X283368750Y102250000D03*
D29*
X291468750Y95250000D03*
X280268750Y95250000D03*
D28*
X288368750Y87750000D03*
X285868750Y87750000D03*
D30*
X283368750Y87750000D03*
%TD*%
%TO.C,R4*%
G36*
G01*
X27121738Y87370000D02*
X28078262Y87370000D01*
G75*
G02*
X28350000Y87098262I0J-271738D01*
G01*
X28350000Y86391738D01*
G75*
G02*
X28078262Y86120000I-271738J0D01*
G01*
X27121738Y86120000D01*
G75*
G02*
X26850000Y86391738I0J271738D01*
G01*
X26850000Y87098262D01*
G75*
G02*
X27121738Y87370000I271738J0D01*
G01*
G37*
G36*
G01*
X27121738Y89420000D02*
X28078262Y89420000D01*
G75*
G02*
X28350000Y89148262I0J-271738D01*
G01*
X28350000Y88441738D01*
G75*
G02*
X28078262Y88170000I-271738J0D01*
G01*
X27121738Y88170000D01*
G75*
G02*
X26850000Y88441738I0J271738D01*
G01*
X26850000Y89148262D01*
G75*
G02*
X27121738Y89420000I271738J0D01*
G01*
G37*
%TD*%
%TO.C,R3*%
G36*
G01*
X29071738Y87380000D02*
X30028262Y87380000D01*
G75*
G02*
X30300000Y87108262I0J-271738D01*
G01*
X30300000Y86401738D01*
G75*
G02*
X30028262Y86130000I-271738J0D01*
G01*
X29071738Y86130000D01*
G75*
G02*
X28800000Y86401738I0J271738D01*
G01*
X28800000Y87108262D01*
G75*
G02*
X29071738Y87380000I271738J0D01*
G01*
G37*
G36*
G01*
X29071738Y89430000D02*
X30028262Y89430000D01*
G75*
G02*
X30300000Y89158262I0J-271738D01*
G01*
X30300000Y88451738D01*
G75*
G02*
X30028262Y88180000I-271738J0D01*
G01*
X29071738Y88180000D01*
G75*
G02*
X28800000Y88451738I0J271738D01*
G01*
X28800000Y89158262D01*
G75*
G02*
X29071738Y89430000I271738J0D01*
G01*
G37*
%TD*%
%TO.C,R2*%
G36*
G01*
X34528262Y88650000D02*
X33571738Y88650000D01*
G75*
G02*
X33300000Y88921738I0J271738D01*
G01*
X33300000Y89628262D01*
G75*
G02*
X33571738Y89900000I271738J0D01*
G01*
X34528262Y89900000D01*
G75*
G02*
X34800000Y89628262I0J-271738D01*
G01*
X34800000Y88921738D01*
G75*
G02*
X34528262Y88650000I-271738J0D01*
G01*
G37*
G36*
G01*
X34528262Y86600000D02*
X33571738Y86600000D01*
G75*
G02*
X33300000Y86871738I0J271738D01*
G01*
X33300000Y87578262D01*
G75*
G02*
X33571738Y87850000I271738J0D01*
G01*
X34528262Y87850000D01*
G75*
G02*
X34800000Y87578262I0J-271738D01*
G01*
X34800000Y86871738D01*
G75*
G02*
X34528262Y86600000I-271738J0D01*
G01*
G37*
%TD*%
D31*
%TO.C,J1*%
X248820000Y22860000D03*
X248820000Y20320000D03*
X248820000Y17780000D03*
D32*
X248820000Y15240000D03*
%TD*%
D10*
%TO.C,MX59*%
X291565000Y100330000D03*
X278665000Y97790000D03*
D11*
X290830000Y95250000D03*
X280670000Y95250000D03*
D12*
X285750000Y95250000D03*
%TD*%
D10*
%TO.C,MX58*%
X272515000Y100330000D03*
X259615000Y97790000D03*
D11*
X271780000Y95250000D03*
X261620000Y95250000D03*
D12*
X266700000Y95250000D03*
%TD*%
D10*
%TO.C,MX57*%
X291565000Y43180000D03*
X278665000Y40640000D03*
D11*
X290830000Y38100000D03*
X280670000Y38100000D03*
D12*
X285750000Y38100000D03*
%TD*%
D10*
%TO.C,MX55*%
X262990000Y81280000D03*
X250090000Y78740000D03*
D11*
X262255000Y76200000D03*
X252095000Y76200000D03*
D12*
X257175000Y76200000D03*
%TD*%
D10*
%TO.C,MX54*%
X253465000Y100330000D03*
X240565000Y97790000D03*
D11*
X252730000Y95250000D03*
X242570000Y95250000D03*
D12*
X247650000Y95250000D03*
%TD*%
D10*
%TO.C,MX53*%
X265371250Y43180000D03*
X252471250Y40640000D03*
D11*
X264636250Y38100000D03*
X254476250Y38100000D03*
D12*
X259556250Y38100000D03*
%TD*%
D10*
%TO.C,MX52*%
X248702500Y62230000D03*
X235802500Y59690000D03*
D11*
X247967500Y57150000D03*
X237807500Y57150000D03*
D12*
X242887500Y57150000D03*
%TD*%
D10*
%TO.C,MX51*%
X243940000Y81280000D03*
X231040000Y78740000D03*
D11*
X243205000Y76200000D03*
X233045000Y76200000D03*
D12*
X238125000Y76200000D03*
%TD*%
D10*
%TO.C,MX50*%
X234415000Y100330000D03*
X221515000Y97790000D03*
D11*
X233680000Y95250000D03*
X223520000Y95250000D03*
D12*
X228600000Y95250000D03*
%TD*%
D10*
%TO.C,MX49*%
X243940000Y24130000D03*
X231040000Y21590000D03*
D11*
X243205000Y19050000D03*
X233045000Y19050000D03*
D12*
X238125000Y19050000D03*
%TD*%
D10*
%TO.C,MX48*%
X239177500Y43180000D03*
X226277500Y40640000D03*
D11*
X238442500Y38100000D03*
X228282500Y38100000D03*
D12*
X233362500Y38100000D03*
%TD*%
D10*
%TO.C,MX47*%
X229652500Y62230000D03*
X216752500Y59690000D03*
D11*
X228917500Y57150000D03*
X218757500Y57150000D03*
D12*
X223837500Y57150000D03*
%TD*%
D10*
%TO.C,MX46*%
X224890000Y81280000D03*
X211990000Y78740000D03*
D11*
X224155000Y76200000D03*
X213995000Y76200000D03*
D12*
X219075000Y76200000D03*
%TD*%
D10*
%TO.C,MX45*%
X215365000Y100330000D03*
X202465000Y97790000D03*
D11*
X214630000Y95250000D03*
X204470000Y95250000D03*
D12*
X209550000Y95250000D03*
%TD*%
D10*
%TO.C,MX44*%
X220127500Y24130000D03*
X207227500Y21590000D03*
D11*
X219392500Y19050000D03*
X209232500Y19050000D03*
D12*
X214312500Y19050000D03*
%TD*%
D10*
%TO.C,MX43*%
X220127500Y43180000D03*
X207227500Y40640000D03*
D11*
X219392500Y38100000D03*
X209232500Y38100000D03*
D12*
X214312500Y38100000D03*
%TD*%
D10*
%TO.C,MX42*%
X210602500Y62230000D03*
X197702500Y59690000D03*
D11*
X209867500Y57150000D03*
X199707500Y57150000D03*
D12*
X204787500Y57150000D03*
%TD*%
D10*
%TO.C,MX41*%
X205840000Y81280000D03*
X192940000Y78740000D03*
D11*
X205105000Y76200000D03*
X194945000Y76200000D03*
D12*
X200025000Y76200000D03*
%TD*%
D10*
%TO.C,MX40*%
X196315000Y100330000D03*
X183415000Y97790000D03*
D11*
X195580000Y95250000D03*
X185420000Y95250000D03*
D12*
X190500000Y95250000D03*
%TD*%
D10*
%TO.C,MX39*%
X201077500Y43180000D03*
X188177500Y40640000D03*
D11*
X200342500Y38100000D03*
X190182500Y38100000D03*
D12*
X195262500Y38100000D03*
%TD*%
D10*
%TO.C,MX38*%
X191552500Y62230000D03*
X178652500Y59690000D03*
D11*
X190817500Y57150000D03*
X180657500Y57150000D03*
D12*
X185737500Y57150000D03*
%TD*%
D10*
%TO.C,MX37*%
X186790000Y81280000D03*
X173890000Y78740000D03*
D11*
X186055000Y76200000D03*
X175895000Y76200000D03*
D12*
X180975000Y76200000D03*
%TD*%
D10*
%TO.C,MX36*%
X177265000Y100330000D03*
X164365000Y97790000D03*
D11*
X176530000Y95250000D03*
X166370000Y95250000D03*
D12*
X171450000Y95250000D03*
%TD*%
D10*
%TO.C,MX35*%
X182027500Y43180000D03*
X169127500Y40640000D03*
D11*
X181292500Y38100000D03*
X171132500Y38100000D03*
D12*
X176212500Y38100000D03*
%TD*%
D10*
%TO.C,MX34*%
X172502500Y62230000D03*
X159602500Y59690000D03*
D11*
X171767500Y57150000D03*
X161607500Y57150000D03*
D12*
X166687500Y57150000D03*
%TD*%
D10*
%TO.C,MX33*%
X167740000Y81280000D03*
X154840000Y78740000D03*
D11*
X167005000Y76200000D03*
X156845000Y76200000D03*
D12*
X161925000Y76200000D03*
%TD*%
D10*
%TO.C,MX32*%
X158215000Y100330000D03*
X145315000Y97790000D03*
D11*
X157480000Y95250000D03*
X147320000Y95250000D03*
D12*
X152400000Y95250000D03*
%TD*%
D10*
%TO.C,MX31*%
X162977500Y43180000D03*
X150077500Y40640000D03*
D11*
X162242500Y38100000D03*
X152082500Y38100000D03*
D12*
X157162500Y38100000D03*
%TD*%
D10*
%TO.C,MX29*%
X148690000Y81280000D03*
X135790000Y78740000D03*
D11*
X147955000Y76200000D03*
X137795000Y76200000D03*
D12*
X142875000Y76200000D03*
%TD*%
D10*
%TO.C,MX28*%
X139165000Y100330000D03*
X126265000Y97790000D03*
D11*
X138430000Y95250000D03*
X128270000Y95250000D03*
D12*
X133350000Y95250000D03*
%TD*%
D10*
%TO.C,MX26*%
X143927500Y43180000D03*
X131027500Y40640000D03*
D11*
X143192500Y38100000D03*
X133032500Y38100000D03*
D12*
X138112500Y38100000D03*
%TD*%
D10*
%TO.C,MX25*%
X134402500Y62230000D03*
X121502500Y59690000D03*
D11*
X133667500Y57150000D03*
X123507500Y57150000D03*
D12*
X128587500Y57150000D03*
%TD*%
D10*
%TO.C,MX24*%
X129640000Y81280000D03*
X116740000Y78740000D03*
D11*
X128905000Y76200000D03*
X118745000Y76200000D03*
D12*
X123825000Y76200000D03*
%TD*%
D10*
%TO.C,MX23*%
X120115000Y100330000D03*
X107215000Y97790000D03*
D11*
X119380000Y95250000D03*
X109220000Y95250000D03*
D12*
X114300000Y95250000D03*
%TD*%
D10*
%TO.C,MX21*%
X115352500Y62230000D03*
X102452500Y59690000D03*
D11*
X114617500Y57150000D03*
X104457500Y57150000D03*
D12*
X109537500Y57150000D03*
%TD*%
D10*
%TO.C,MX20*%
X110590000Y81280000D03*
X97690000Y78740000D03*
D11*
X109855000Y76200000D03*
X99695000Y76200000D03*
D12*
X104775000Y76200000D03*
%TD*%
D10*
%TO.C,MX19*%
X101065000Y100330000D03*
X88165000Y97790000D03*
D11*
X100330000Y95250000D03*
X90170000Y95250000D03*
D12*
X95250000Y95250000D03*
%TD*%
D10*
%TO.C,MX15*%
X82015000Y100330000D03*
X69115000Y97790000D03*
D11*
X81280000Y95250000D03*
X71120000Y95250000D03*
D12*
X76200000Y95250000D03*
%TD*%
D10*
%TO.C,MX14*%
X86777500Y43180000D03*
X73877500Y40640000D03*
D11*
X86042500Y38100000D03*
X75882500Y38100000D03*
D12*
X80962500Y38100000D03*
%TD*%
D10*
%TO.C,MX13*%
X77252500Y62230000D03*
X64352500Y59690000D03*
D11*
X76517500Y57150000D03*
X66357500Y57150000D03*
D12*
X71437500Y57150000D03*
%TD*%
D10*
%TO.C,MX12*%
X72490000Y81280000D03*
X59590000Y78740000D03*
D11*
X71755000Y76200000D03*
X61595000Y76200000D03*
D12*
X66675000Y76200000D03*
%TD*%
D10*
%TO.C,MX11*%
X62965000Y100330000D03*
X50065000Y97790000D03*
D11*
X62230000Y95250000D03*
X52070000Y95250000D03*
D12*
X57150000Y95250000D03*
%TD*%
D10*
%TO.C,MX10*%
X77252500Y24130000D03*
X64352500Y21590000D03*
D11*
X76517500Y19050000D03*
X66357500Y19050000D03*
D12*
X71437500Y19050000D03*
%TD*%
D10*
%TO.C,MX9*%
X67727500Y43180000D03*
X54827500Y40640000D03*
D11*
X66992500Y38100000D03*
X56832500Y38100000D03*
D12*
X61912500Y38100000D03*
%TD*%
D10*
%TO.C,MX8*%
X58202500Y62230000D03*
X45302500Y59690000D03*
D11*
X57467500Y57150000D03*
X47307500Y57150000D03*
D12*
X52387500Y57150000D03*
%TD*%
D10*
%TO.C,MX7*%
X53440000Y81280000D03*
X40540000Y78740000D03*
D11*
X52705000Y76200000D03*
X42545000Y76200000D03*
D12*
X47625000Y76200000D03*
%TD*%
D10*
%TO.C,MX5*%
X53440000Y24130000D03*
X40540000Y21590000D03*
D11*
X52705000Y19050000D03*
X42545000Y19050000D03*
D12*
X47625000Y19050000D03*
%TD*%
D10*
%TO.C,MX2*%
X29627500Y81280000D03*
X16727500Y78740000D03*
D11*
X28892500Y76200000D03*
X18732500Y76200000D03*
D12*
X23812500Y76200000D03*
%TD*%
D22*
%TO.C,D60*%
X285750000Y69787500D03*
X285750000Y73087500D03*
%TD*%
%TO.C,D59*%
X292893750Y88837500D03*
X292893750Y92137500D03*
%TD*%
%TO.C,D58*%
X271462500Y88837500D03*
X271462500Y92137500D03*
%TD*%
%TO.C,D57*%
X290512500Y31687500D03*
X290512500Y34987500D03*
%TD*%
%TO.C,D56*%
X278606250Y50737500D03*
X278606250Y54037500D03*
%TD*%
%TO.C,D55*%
X261937500Y69787500D03*
X261937500Y73087500D03*
%TD*%
%TO.C,D54*%
X252412500Y88837500D03*
X252412500Y92137500D03*
%TD*%
%TO.C,D53*%
X264318750Y31687500D03*
X264318750Y34987500D03*
%TD*%
%TO.C,D52*%
X247650000Y50737500D03*
X247650000Y54037500D03*
%TD*%
%TO.C,D51*%
X242887500Y69787500D03*
X242887500Y73087500D03*
%TD*%
%TO.C,D50*%
X233362500Y88837500D03*
X233362500Y92137500D03*
%TD*%
%TO.C,D49*%
X242887500Y12637500D03*
X242887500Y15937500D03*
%TD*%
%TO.C,D48*%
X238125000Y31687500D03*
X238125000Y34987500D03*
%TD*%
%TO.C,D47*%
X228600000Y50737500D03*
X228600000Y54037500D03*
%TD*%
%TO.C,D46*%
X223837500Y69787500D03*
X223837500Y73087500D03*
%TD*%
%TO.C,D45*%
X214312500Y88837500D03*
X214312500Y92137500D03*
%TD*%
%TO.C,D44*%
X219075000Y12637500D03*
X219075000Y15937500D03*
%TD*%
%TO.C,D43*%
X219075000Y31687500D03*
X219075000Y34987500D03*
%TD*%
%TO.C,D42*%
X209550000Y50737500D03*
X209550000Y54037500D03*
%TD*%
%TO.C,D41*%
X204787500Y69787500D03*
X204787500Y73087500D03*
%TD*%
%TO.C,D40*%
X195262500Y88837500D03*
X195262500Y92137500D03*
%TD*%
%TO.C,D39*%
X200025000Y31687500D03*
X200025000Y34987500D03*
%TD*%
%TO.C,D38*%
X190500000Y50737500D03*
X190500000Y54037500D03*
%TD*%
%TO.C,D37*%
X185737500Y69787500D03*
X185737500Y73087500D03*
%TD*%
%TO.C,D36*%
X176212500Y88837500D03*
X176212500Y92137500D03*
%TD*%
%TO.C,D35*%
X180975000Y31687500D03*
X180975000Y34987500D03*
%TD*%
%TO.C,D34*%
X171450000Y50737500D03*
X171450000Y54037500D03*
%TD*%
%TO.C,D33*%
X166687500Y69787500D03*
X166687500Y73087500D03*
%TD*%
%TO.C,D32*%
X157162500Y88837500D03*
X157162500Y92137500D03*
%TD*%
%TO.C,D31*%
X161925000Y31687500D03*
X161925000Y34987500D03*
%TD*%
%TO.C,D30*%
X152400000Y50737500D03*
X152400000Y54037500D03*
%TD*%
%TO.C,D29*%
X147637500Y69787500D03*
X147637500Y73087500D03*
%TD*%
%TO.C,D28*%
X138112500Y88837500D03*
X138112500Y92137500D03*
%TD*%
%TO.C,D27*%
X147637500Y12637500D03*
X147637500Y15937500D03*
%TD*%
%TO.C,D26*%
X142875000Y31687500D03*
X142875000Y34987500D03*
%TD*%
%TO.C,D25*%
X133350000Y50737500D03*
X133350000Y54037500D03*
%TD*%
%TO.C,D24*%
X128587500Y69787500D03*
X128587500Y73087500D03*
%TD*%
%TO.C,D23*%
X119062500Y88837500D03*
X119062500Y92137500D03*
%TD*%
%TO.C,D22*%
X123825000Y31687500D03*
X123825000Y34987500D03*
%TD*%
%TO.C,D21*%
X114300000Y50737500D03*
X114300000Y54037500D03*
%TD*%
%TO.C,D20*%
X109537500Y69787500D03*
X109537500Y73087500D03*
%TD*%
%TO.C,D19*%
X100012500Y88837500D03*
X100012500Y92137500D03*
%TD*%
%TO.C,D18*%
X104775000Y31687500D03*
X104775000Y34987500D03*
%TD*%
%TO.C,D17*%
X95250000Y50737500D03*
X95250000Y54037500D03*
%TD*%
%TO.C,D15*%
X80962500Y88837500D03*
X80962500Y92137500D03*
%TD*%
%TO.C,D14*%
X85725000Y31687500D03*
X85725000Y34987500D03*
%TD*%
%TO.C,D13*%
X76200000Y50737500D03*
X76200000Y54037500D03*
%TD*%
%TO.C,D12*%
X71437500Y69787500D03*
X71437500Y73087500D03*
%TD*%
%TO.C,D11*%
X61912500Y88837500D03*
X61912500Y92137500D03*
%TD*%
%TO.C,D10*%
X76200000Y12637500D03*
X76200000Y15937500D03*
%TD*%
%TO.C,D9*%
X66675000Y31687500D03*
X66675000Y34987500D03*
%TD*%
%TO.C,D8*%
X57150000Y50737500D03*
X57150000Y54037500D03*
%TD*%
%TO.C,D7*%
X52387500Y69787500D03*
X52387500Y73087500D03*
%TD*%
%TO.C,D6*%
X42862500Y88837500D03*
X42862500Y92137500D03*
%TD*%
%TO.C,D5*%
X52387500Y12637500D03*
X52387500Y15937500D03*
%TD*%
%TO.C,D4*%
X35718750Y31687500D03*
X35718750Y34987500D03*
%TD*%
%TO.C,D3*%
X30956250Y50737500D03*
X30956250Y54037500D03*
%TD*%
%TO.C,D2*%
X28575000Y69787500D03*
X28575000Y73087500D03*
%TD*%
%TO.C,D1*%
X23812500Y88837500D03*
X23812500Y92137500D03*
%TD*%
M02*
