%TF.GenerationSoftware,KiCad,Pcbnew,(5.1.6)-1*%
%TF.CreationDate,2020-09-28T17:44:52+07:00*%
%TF.ProjectId,HHKR,48484b52-2e6b-4696-9361-645f70636258,rev?*%
%TF.SameCoordinates,Original*%
%TF.FileFunction,Legend,Bot*%
%TF.FilePolarity,Positive*%
%FSLAX46Y46*%
G04 Gerber Fmt 4.6, Leading zero omitted, Abs format (unit mm)*
G04 Created by KiCad (PCBNEW (5.1.6)-1) date 2020-09-28 17:44:52*
%MOMM*%
%LPD*%
G01*
G04 APERTURE LIST*
%ADD10C,0.120000*%
%ADD11C,0.150000*%
G04 APERTURE END LIST*
D10*
%TO.C,R5*%
X112721252Y29000000D02*
X112198748Y29000000D01*
X112721252Y30420000D02*
X112198748Y30420000D01*
%TO.C,C2*%
X112198748Y28430000D02*
X112721252Y28430000D01*
X112198748Y27010000D02*
X112721252Y27010000D01*
%TO.C,C4*%
X116434998Y25107500D02*
X116957502Y25107500D01*
X116434998Y23687500D02*
X116957502Y23687500D01*
%TO.C,Y1*%
X114451250Y17257500D02*
X114451250Y22657500D01*
X118951250Y17257500D02*
X114451250Y17257500D01*
%TO.C,SW1*%
X132220000Y22990000D02*
X132220000Y25490000D01*
X130470000Y21490000D02*
X128470000Y21490000D01*
X126720000Y22990000D02*
X126720000Y25490000D01*
X130470000Y26990000D02*
X128470000Y26990000D01*
X131770000Y22540000D02*
X132220000Y22990000D01*
X131770000Y25940000D02*
X132220000Y25490000D01*
X127170000Y25940000D02*
X126720000Y25490000D01*
X127170000Y22540000D02*
X126720000Y22990000D01*
%TO.C,R6*%
X97378748Y10920000D02*
X97901252Y10920000D01*
X97378748Y12340000D02*
X97901252Y12340000D01*
%TO.C,C1*%
X107088748Y12350000D02*
X107611252Y12350000D01*
X107088748Y10930000D02*
X107611252Y10930000D01*
%TO.C,C7*%
X102411252Y28910000D02*
X101888748Y28910000D01*
X102411252Y30330000D02*
X101888748Y30330000D01*
%TO.C,C6*%
X92100000Y24788748D02*
X92100000Y25311252D01*
X93520000Y24788748D02*
X93520000Y25311252D01*
%TO.C,C5*%
X93520000Y15621252D02*
X93520000Y15098748D01*
X92100000Y15621252D02*
X92100000Y15098748D01*
%TO.C,C3*%
X116992502Y14477500D02*
X116469998Y14477500D01*
X116992502Y15897500D02*
X116469998Y15897500D01*
%TO.C,R1*%
X16940000Y88063748D02*
X16940000Y88586252D01*
X18360000Y88063748D02*
X18360000Y88586252D01*
D11*
%TO.C,U2*%
X27920000Y94580000D02*
X27920000Y91680000D01*
X27920000Y94580000D02*
X29220000Y94580000D01*
X29220000Y94580000D02*
X29220000Y91680000D01*
X29220000Y91680000D02*
X27920000Y91680000D01*
D10*
%TO.C,F1*%
X20320000Y88058748D02*
X20320000Y88581252D01*
X21740000Y88058748D02*
X21740000Y88581252D01*
%TO.C,D16*%
X91487500Y69187500D02*
X89487500Y69187500D01*
X89487500Y69187500D02*
X89487500Y73087500D01*
X91487500Y69187500D02*
X91487500Y73087500D01*
D11*
%TO.C,U1*%
X97900000Y25375000D02*
X97900000Y26650000D01*
X97325000Y15025000D02*
X97325000Y15700000D01*
X107675000Y15025000D02*
X107675000Y15700000D01*
X107675000Y25375000D02*
X107675000Y24700000D01*
X97325000Y25375000D02*
X97325000Y24700000D01*
X107675000Y25375000D02*
X107000000Y25375000D01*
X107675000Y15025000D02*
X107000000Y15025000D01*
X97325000Y15025000D02*
X98000000Y15025000D01*
X97325000Y25375000D02*
X97900000Y25375000D01*
D10*
%TO.C,R4*%
X28310000Y88031252D02*
X28310000Y87508748D01*
X26890000Y88031252D02*
X26890000Y87508748D01*
%TO.C,R3*%
X30260000Y88041252D02*
X30260000Y87518748D01*
X28840000Y88041252D02*
X28840000Y87518748D01*
%TO.C,R2*%
X33340000Y87988748D02*
X33340000Y88511252D01*
X34760000Y87988748D02*
X34760000Y88511252D01*
%TO.C,D60*%
X286750000Y69187500D02*
X284750000Y69187500D01*
X284750000Y69187500D02*
X284750000Y73087500D01*
X286750000Y69187500D02*
X286750000Y73087500D01*
%TO.C,D59*%
X293893750Y88237500D02*
X291893750Y88237500D01*
X291893750Y88237500D02*
X291893750Y92137500D01*
X293893750Y88237500D02*
X293893750Y92137500D01*
%TO.C,D58*%
X272462500Y88237500D02*
X270462500Y88237500D01*
X270462500Y88237500D02*
X270462500Y92137500D01*
X272462500Y88237500D02*
X272462500Y92137500D01*
%TO.C,D57*%
X291512500Y31087500D02*
X289512500Y31087500D01*
X289512500Y31087500D02*
X289512500Y34987500D01*
X291512500Y31087500D02*
X291512500Y34987500D01*
%TO.C,D56*%
X279606250Y50137500D02*
X277606250Y50137500D01*
X277606250Y50137500D02*
X277606250Y54037500D01*
X279606250Y50137500D02*
X279606250Y54037500D01*
%TO.C,D55*%
X262937500Y69187500D02*
X260937500Y69187500D01*
X260937500Y69187500D02*
X260937500Y73087500D01*
X262937500Y69187500D02*
X262937500Y73087500D01*
%TO.C,D54*%
X253412500Y88237500D02*
X251412500Y88237500D01*
X251412500Y88237500D02*
X251412500Y92137500D01*
X253412500Y88237500D02*
X253412500Y92137500D01*
%TO.C,D53*%
X265318750Y31087500D02*
X263318750Y31087500D01*
X263318750Y31087500D02*
X263318750Y34987500D01*
X265318750Y31087500D02*
X265318750Y34987500D01*
%TO.C,D52*%
X248650000Y50137500D02*
X246650000Y50137500D01*
X246650000Y50137500D02*
X246650000Y54037500D01*
X248650000Y50137500D02*
X248650000Y54037500D01*
%TO.C,D51*%
X243887500Y69187500D02*
X241887500Y69187500D01*
X241887500Y69187500D02*
X241887500Y73087500D01*
X243887500Y69187500D02*
X243887500Y73087500D01*
%TO.C,D50*%
X234362500Y88237500D02*
X232362500Y88237500D01*
X232362500Y88237500D02*
X232362500Y92137500D01*
X234362500Y88237500D02*
X234362500Y92137500D01*
%TO.C,D49*%
X243887500Y12037500D02*
X241887500Y12037500D01*
X241887500Y12037500D02*
X241887500Y15937500D01*
X243887500Y12037500D02*
X243887500Y15937500D01*
%TO.C,D48*%
X239125000Y31087500D02*
X237125000Y31087500D01*
X237125000Y31087500D02*
X237125000Y34987500D01*
X239125000Y31087500D02*
X239125000Y34987500D01*
%TO.C,D47*%
X229600000Y50137500D02*
X227600000Y50137500D01*
X227600000Y50137500D02*
X227600000Y54037500D01*
X229600000Y50137500D02*
X229600000Y54037500D01*
%TO.C,D46*%
X224837500Y69187500D02*
X222837500Y69187500D01*
X222837500Y69187500D02*
X222837500Y73087500D01*
X224837500Y69187500D02*
X224837500Y73087500D01*
%TO.C,D45*%
X215312500Y88237500D02*
X213312500Y88237500D01*
X213312500Y88237500D02*
X213312500Y92137500D01*
X215312500Y88237500D02*
X215312500Y92137500D01*
%TO.C,D44*%
X220075000Y12037500D02*
X218075000Y12037500D01*
X218075000Y12037500D02*
X218075000Y15937500D01*
X220075000Y12037500D02*
X220075000Y15937500D01*
%TO.C,D43*%
X220075000Y31087500D02*
X218075000Y31087500D01*
X218075000Y31087500D02*
X218075000Y34987500D01*
X220075000Y31087500D02*
X220075000Y34987500D01*
%TO.C,D42*%
X210550000Y50137500D02*
X208550000Y50137500D01*
X208550000Y50137500D02*
X208550000Y54037500D01*
X210550000Y50137500D02*
X210550000Y54037500D01*
%TO.C,D41*%
X205787500Y69187500D02*
X203787500Y69187500D01*
X203787500Y69187500D02*
X203787500Y73087500D01*
X205787500Y69187500D02*
X205787500Y73087500D01*
%TO.C,D40*%
X196262500Y88237500D02*
X194262500Y88237500D01*
X194262500Y88237500D02*
X194262500Y92137500D01*
X196262500Y88237500D02*
X196262500Y92137500D01*
%TO.C,D39*%
X201025000Y31087500D02*
X199025000Y31087500D01*
X199025000Y31087500D02*
X199025000Y34987500D01*
X201025000Y31087500D02*
X201025000Y34987500D01*
%TO.C,D38*%
X191500000Y50137500D02*
X189500000Y50137500D01*
X189500000Y50137500D02*
X189500000Y54037500D01*
X191500000Y50137500D02*
X191500000Y54037500D01*
%TO.C,D37*%
X186737500Y69187500D02*
X184737500Y69187500D01*
X184737500Y69187500D02*
X184737500Y73087500D01*
X186737500Y69187500D02*
X186737500Y73087500D01*
%TO.C,D36*%
X177212500Y88237500D02*
X175212500Y88237500D01*
X175212500Y88237500D02*
X175212500Y92137500D01*
X177212500Y88237500D02*
X177212500Y92137500D01*
%TO.C,D35*%
X181975000Y31087500D02*
X179975000Y31087500D01*
X179975000Y31087500D02*
X179975000Y34987500D01*
X181975000Y31087500D02*
X181975000Y34987500D01*
%TO.C,D34*%
X172450000Y50137500D02*
X170450000Y50137500D01*
X170450000Y50137500D02*
X170450000Y54037500D01*
X172450000Y50137500D02*
X172450000Y54037500D01*
%TO.C,D33*%
X167687500Y69187500D02*
X165687500Y69187500D01*
X165687500Y69187500D02*
X165687500Y73087500D01*
X167687500Y69187500D02*
X167687500Y73087500D01*
%TO.C,D32*%
X158162500Y88237500D02*
X156162500Y88237500D01*
X156162500Y88237500D02*
X156162500Y92137500D01*
X158162500Y88237500D02*
X158162500Y92137500D01*
%TO.C,D31*%
X162925000Y31087500D02*
X160925000Y31087500D01*
X160925000Y31087500D02*
X160925000Y34987500D01*
X162925000Y31087500D02*
X162925000Y34987500D01*
%TO.C,D30*%
X153400000Y50137500D02*
X151400000Y50137500D01*
X151400000Y50137500D02*
X151400000Y54037500D01*
X153400000Y50137500D02*
X153400000Y54037500D01*
%TO.C,D29*%
X148637500Y69187500D02*
X146637500Y69187500D01*
X146637500Y69187500D02*
X146637500Y73087500D01*
X148637500Y69187500D02*
X148637500Y73087500D01*
%TO.C,D28*%
X139112500Y88237500D02*
X137112500Y88237500D01*
X137112500Y88237500D02*
X137112500Y92137500D01*
X139112500Y88237500D02*
X139112500Y92137500D01*
%TO.C,D27*%
X148637500Y12037500D02*
X146637500Y12037500D01*
X146637500Y12037500D02*
X146637500Y15937500D01*
X148637500Y12037500D02*
X148637500Y15937500D01*
%TO.C,D26*%
X143875000Y31087500D02*
X141875000Y31087500D01*
X141875000Y31087500D02*
X141875000Y34987500D01*
X143875000Y31087500D02*
X143875000Y34987500D01*
%TO.C,D25*%
X134350000Y50137500D02*
X132350000Y50137500D01*
X132350000Y50137500D02*
X132350000Y54037500D01*
X134350000Y50137500D02*
X134350000Y54037500D01*
%TO.C,D24*%
X129587500Y69187500D02*
X127587500Y69187500D01*
X127587500Y69187500D02*
X127587500Y73087500D01*
X129587500Y69187500D02*
X129587500Y73087500D01*
%TO.C,D23*%
X120062500Y88237500D02*
X118062500Y88237500D01*
X118062500Y88237500D02*
X118062500Y92137500D01*
X120062500Y88237500D02*
X120062500Y92137500D01*
%TO.C,D22*%
X124825000Y31087500D02*
X122825000Y31087500D01*
X122825000Y31087500D02*
X122825000Y34987500D01*
X124825000Y31087500D02*
X124825000Y34987500D01*
%TO.C,D21*%
X115300000Y50137500D02*
X113300000Y50137500D01*
X113300000Y50137500D02*
X113300000Y54037500D01*
X115300000Y50137500D02*
X115300000Y54037500D01*
%TO.C,D20*%
X110537500Y69187500D02*
X108537500Y69187500D01*
X108537500Y69187500D02*
X108537500Y73087500D01*
X110537500Y69187500D02*
X110537500Y73087500D01*
%TO.C,D19*%
X101012500Y88237500D02*
X99012500Y88237500D01*
X99012500Y88237500D02*
X99012500Y92137500D01*
X101012500Y88237500D02*
X101012500Y92137500D01*
%TO.C,D18*%
X105775000Y31087500D02*
X103775000Y31087500D01*
X103775000Y31087500D02*
X103775000Y34987500D01*
X105775000Y31087500D02*
X105775000Y34987500D01*
%TO.C,D17*%
X96250000Y50137500D02*
X94250000Y50137500D01*
X94250000Y50137500D02*
X94250000Y54037500D01*
X96250000Y50137500D02*
X96250000Y54037500D01*
%TO.C,D15*%
X81962500Y88237500D02*
X79962500Y88237500D01*
X79962500Y88237500D02*
X79962500Y92137500D01*
X81962500Y88237500D02*
X81962500Y92137500D01*
%TO.C,D14*%
X86725000Y31087500D02*
X84725000Y31087500D01*
X84725000Y31087500D02*
X84725000Y34987500D01*
X86725000Y31087500D02*
X86725000Y34987500D01*
%TO.C,D13*%
X77200000Y50137500D02*
X75200000Y50137500D01*
X75200000Y50137500D02*
X75200000Y54037500D01*
X77200000Y50137500D02*
X77200000Y54037500D01*
%TO.C,D12*%
X72437500Y69187500D02*
X70437500Y69187500D01*
X70437500Y69187500D02*
X70437500Y73087500D01*
X72437500Y69187500D02*
X72437500Y73087500D01*
%TO.C,D11*%
X62912500Y88237500D02*
X60912500Y88237500D01*
X60912500Y88237500D02*
X60912500Y92137500D01*
X62912500Y88237500D02*
X62912500Y92137500D01*
%TO.C,D10*%
X77200000Y12037500D02*
X75200000Y12037500D01*
X75200000Y12037500D02*
X75200000Y15937500D01*
X77200000Y12037500D02*
X77200000Y15937500D01*
%TO.C,D9*%
X67675000Y31087500D02*
X65675000Y31087500D01*
X65675000Y31087500D02*
X65675000Y34987500D01*
X67675000Y31087500D02*
X67675000Y34987500D01*
%TO.C,D8*%
X58150000Y50137500D02*
X56150000Y50137500D01*
X56150000Y50137500D02*
X56150000Y54037500D01*
X58150000Y50137500D02*
X58150000Y54037500D01*
%TO.C,D7*%
X53387500Y69187500D02*
X51387500Y69187500D01*
X51387500Y69187500D02*
X51387500Y73087500D01*
X53387500Y69187500D02*
X53387500Y73087500D01*
%TO.C,D6*%
X43862500Y88237500D02*
X41862500Y88237500D01*
X41862500Y88237500D02*
X41862500Y92137500D01*
X43862500Y88237500D02*
X43862500Y92137500D01*
%TO.C,D5*%
X53387500Y12037500D02*
X51387500Y12037500D01*
X51387500Y12037500D02*
X51387500Y15937500D01*
X53387500Y12037500D02*
X53387500Y15937500D01*
%TO.C,D4*%
X36718750Y31087500D02*
X34718750Y31087500D01*
X34718750Y31087500D02*
X34718750Y34987500D01*
X36718750Y31087500D02*
X36718750Y34987500D01*
%TO.C,D3*%
X31956250Y50137500D02*
X29956250Y50137500D01*
X29956250Y50137500D02*
X29956250Y54037500D01*
X31956250Y50137500D02*
X31956250Y54037500D01*
%TO.C,D2*%
X29575000Y69187500D02*
X27575000Y69187500D01*
X27575000Y69187500D02*
X27575000Y73087500D01*
X29575000Y69187500D02*
X29575000Y73087500D01*
%TO.C,D1*%
X24812500Y88237500D02*
X22812500Y88237500D01*
X22812500Y88237500D02*
X22812500Y92137500D01*
X24812500Y88237500D02*
X24812500Y92137500D01*
%TO.C,R5*%
D11*
X112626666Y30907619D02*
X112960000Y31383809D01*
X113198095Y30907619D02*
X113198095Y31907619D01*
X112817142Y31907619D01*
X112721904Y31860000D01*
X112674285Y31812380D01*
X112626666Y31717142D01*
X112626666Y31574285D01*
X112674285Y31479047D01*
X112721904Y31431428D01*
X112817142Y31383809D01*
X113198095Y31383809D01*
X111721904Y31907619D02*
X112198095Y31907619D01*
X112245714Y31431428D01*
X112198095Y31479047D01*
X112102857Y31526666D01*
X111864761Y31526666D01*
X111769523Y31479047D01*
X111721904Y31431428D01*
X111674285Y31336190D01*
X111674285Y31098095D01*
X111721904Y31002857D01*
X111769523Y30955238D01*
X111864761Y30907619D01*
X112102857Y30907619D01*
X112198095Y30955238D01*
X112245714Y31002857D01*
%TO.C,C2*%
X112626666Y25712857D02*
X112674285Y25665238D01*
X112817142Y25617619D01*
X112912380Y25617619D01*
X113055238Y25665238D01*
X113150476Y25760476D01*
X113198095Y25855714D01*
X113245714Y26046190D01*
X113245714Y26189047D01*
X113198095Y26379523D01*
X113150476Y26474761D01*
X113055238Y26570000D01*
X112912380Y26617619D01*
X112817142Y26617619D01*
X112674285Y26570000D01*
X112626666Y26522380D01*
X112245714Y26522380D02*
X112198095Y26570000D01*
X112102857Y26617619D01*
X111864761Y26617619D01*
X111769523Y26570000D01*
X111721904Y26522380D01*
X111674285Y26427142D01*
X111674285Y26331904D01*
X111721904Y26189047D01*
X112293333Y25617619D01*
X111674285Y25617619D01*
%TO.C,C4*%
X116862916Y22390357D02*
X116910535Y22342738D01*
X117053392Y22295119D01*
X117148630Y22295119D01*
X117291488Y22342738D01*
X117386726Y22437976D01*
X117434345Y22533214D01*
X117481964Y22723690D01*
X117481964Y22866547D01*
X117434345Y23057023D01*
X117386726Y23152261D01*
X117291488Y23247500D01*
X117148630Y23295119D01*
X117053392Y23295119D01*
X116910535Y23247500D01*
X116862916Y23199880D01*
X116005773Y22961785D02*
X116005773Y22295119D01*
X116243869Y23342738D02*
X116481964Y22628452D01*
X115862916Y22628452D01*
%TO.C,Y1*%
X119727440Y20433690D02*
X120203630Y20433690D01*
X119203630Y20767023D02*
X119727440Y20433690D01*
X119203630Y20100357D01*
X120203630Y19243214D02*
X120203630Y19814642D01*
X120203630Y19528928D02*
X119203630Y19528928D01*
X119346488Y19624166D01*
X119441726Y19719404D01*
X119489345Y19814642D01*
%TO.C,SW1*%
X133624761Y25573333D02*
X133672380Y25430476D01*
X133672380Y25192380D01*
X133624761Y25097142D01*
X133577142Y25049523D01*
X133481904Y25001904D01*
X133386666Y25001904D01*
X133291428Y25049523D01*
X133243809Y25097142D01*
X133196190Y25192380D01*
X133148571Y25382857D01*
X133100952Y25478095D01*
X133053333Y25525714D01*
X132958095Y25573333D01*
X132862857Y25573333D01*
X132767619Y25525714D01*
X132720000Y25478095D01*
X132672380Y25382857D01*
X132672380Y25144761D01*
X132720000Y25001904D01*
X132672380Y24668571D02*
X133672380Y24430476D01*
X132958095Y24240000D01*
X133672380Y24049523D01*
X132672380Y23811428D01*
X133672380Y22906666D02*
X133672380Y23478095D01*
X133672380Y23192380D02*
X132672380Y23192380D01*
X132815238Y23287619D01*
X132910476Y23382857D01*
X132958095Y23478095D01*
%TO.C,R6*%
X97806666Y9527619D02*
X98140000Y10003809D01*
X98378095Y9527619D02*
X98378095Y10527619D01*
X97997142Y10527619D01*
X97901904Y10480000D01*
X97854285Y10432380D01*
X97806666Y10337142D01*
X97806666Y10194285D01*
X97854285Y10099047D01*
X97901904Y10051428D01*
X97997142Y10003809D01*
X98378095Y10003809D01*
X96949523Y10527619D02*
X97140000Y10527619D01*
X97235238Y10480000D01*
X97282857Y10432380D01*
X97378095Y10289523D01*
X97425714Y10099047D01*
X97425714Y9718095D01*
X97378095Y9622857D01*
X97330476Y9575238D01*
X97235238Y9527619D01*
X97044761Y9527619D01*
X96949523Y9575238D01*
X96901904Y9622857D01*
X96854285Y9718095D01*
X96854285Y9956190D01*
X96901904Y10051428D01*
X96949523Y10099047D01*
X97044761Y10146666D01*
X97235238Y10146666D01*
X97330476Y10099047D01*
X97378095Y10051428D01*
X97425714Y9956190D01*
%TO.C,C1*%
X107516666Y9632857D02*
X107564285Y9585238D01*
X107707142Y9537619D01*
X107802380Y9537619D01*
X107945238Y9585238D01*
X108040476Y9680476D01*
X108088095Y9775714D01*
X108135714Y9966190D01*
X108135714Y10109047D01*
X108088095Y10299523D01*
X108040476Y10394761D01*
X107945238Y10490000D01*
X107802380Y10537619D01*
X107707142Y10537619D01*
X107564285Y10490000D01*
X107516666Y10442380D01*
X106564285Y9537619D02*
X107135714Y9537619D01*
X106850000Y9537619D02*
X106850000Y10537619D01*
X106945238Y10394761D01*
X107040476Y10299523D01*
X107135714Y10251904D01*
%TO.C,C7*%
X102316666Y30912857D02*
X102364285Y30865238D01*
X102507142Y30817619D01*
X102602380Y30817619D01*
X102745238Y30865238D01*
X102840476Y30960476D01*
X102888095Y31055714D01*
X102935714Y31246190D01*
X102935714Y31389047D01*
X102888095Y31579523D01*
X102840476Y31674761D01*
X102745238Y31770000D01*
X102602380Y31817619D01*
X102507142Y31817619D01*
X102364285Y31770000D01*
X102316666Y31722380D01*
X101983333Y31817619D02*
X101316666Y31817619D01*
X101745238Y30817619D01*
%TO.C,C6*%
X94817142Y25216666D02*
X94864761Y25264285D01*
X94912380Y25407142D01*
X94912380Y25502380D01*
X94864761Y25645238D01*
X94769523Y25740476D01*
X94674285Y25788095D01*
X94483809Y25835714D01*
X94340952Y25835714D01*
X94150476Y25788095D01*
X94055238Y25740476D01*
X93960000Y25645238D01*
X93912380Y25502380D01*
X93912380Y25407142D01*
X93960000Y25264285D01*
X94007619Y25216666D01*
X93912380Y24359523D02*
X93912380Y24550000D01*
X93960000Y24645238D01*
X94007619Y24692857D01*
X94150476Y24788095D01*
X94340952Y24835714D01*
X94721904Y24835714D01*
X94817142Y24788095D01*
X94864761Y24740476D01*
X94912380Y24645238D01*
X94912380Y24454761D01*
X94864761Y24359523D01*
X94817142Y24311904D01*
X94721904Y24264285D01*
X94483809Y24264285D01*
X94388571Y24311904D01*
X94340952Y24359523D01*
X94293333Y24454761D01*
X94293333Y24645238D01*
X94340952Y24740476D01*
X94388571Y24788095D01*
X94483809Y24835714D01*
%TO.C,C5*%
X91517142Y15526666D02*
X91564761Y15574285D01*
X91612380Y15717142D01*
X91612380Y15812380D01*
X91564761Y15955238D01*
X91469523Y16050476D01*
X91374285Y16098095D01*
X91183809Y16145714D01*
X91040952Y16145714D01*
X90850476Y16098095D01*
X90755238Y16050476D01*
X90660000Y15955238D01*
X90612380Y15812380D01*
X90612380Y15717142D01*
X90660000Y15574285D01*
X90707619Y15526666D01*
X90612380Y14621904D02*
X90612380Y15098095D01*
X91088571Y15145714D01*
X91040952Y15098095D01*
X90993333Y15002857D01*
X90993333Y14764761D01*
X91040952Y14669523D01*
X91088571Y14621904D01*
X91183809Y14574285D01*
X91421904Y14574285D01*
X91517142Y14621904D01*
X91564761Y14669523D01*
X91612380Y14764761D01*
X91612380Y15002857D01*
X91564761Y15098095D01*
X91517142Y15145714D01*
%TO.C,C3*%
X116897916Y16480357D02*
X116945535Y16432738D01*
X117088392Y16385119D01*
X117183630Y16385119D01*
X117326488Y16432738D01*
X117421726Y16527976D01*
X117469345Y16623214D01*
X117516964Y16813690D01*
X117516964Y16956547D01*
X117469345Y17147023D01*
X117421726Y17242261D01*
X117326488Y17337500D01*
X117183630Y17385119D01*
X117088392Y17385119D01*
X116945535Y17337500D01*
X116897916Y17289880D01*
X116564583Y17385119D02*
X115945535Y17385119D01*
X116278869Y17004166D01*
X116136011Y17004166D01*
X116040773Y16956547D01*
X115993154Y16908928D01*
X115945535Y16813690D01*
X115945535Y16575595D01*
X115993154Y16480357D01*
X116040773Y16432738D01*
X116136011Y16385119D01*
X116421726Y16385119D01*
X116516964Y16432738D01*
X116564583Y16480357D01*
%TO.C,R1*%
X19752380Y88491666D02*
X19276190Y88825000D01*
X19752380Y89063095D02*
X18752380Y89063095D01*
X18752380Y88682142D01*
X18800000Y88586904D01*
X18847619Y88539285D01*
X18942857Y88491666D01*
X19085714Y88491666D01*
X19180952Y88539285D01*
X19228571Y88586904D01*
X19276190Y88682142D01*
X19276190Y89063095D01*
X19752380Y87539285D02*
X19752380Y88110714D01*
X19752380Y87825000D02*
X18752380Y87825000D01*
X18895238Y87920238D01*
X18990476Y88015476D01*
X19038095Y88110714D01*
%TO.C,U2*%
X29331904Y91227619D02*
X29331904Y90418095D01*
X29284285Y90322857D01*
X29236666Y90275238D01*
X29141428Y90227619D01*
X28950952Y90227619D01*
X28855714Y90275238D01*
X28808095Y90322857D01*
X28760476Y90418095D01*
X28760476Y91227619D01*
X28331904Y91132380D02*
X28284285Y91180000D01*
X28189047Y91227619D01*
X27950952Y91227619D01*
X27855714Y91180000D01*
X27808095Y91132380D01*
X27760476Y91037142D01*
X27760476Y90941904D01*
X27808095Y90799047D01*
X28379523Y90227619D01*
X27760476Y90227619D01*
%TO.C,F1*%
X22608571Y88653333D02*
X22608571Y88986666D01*
X23132380Y88986666D02*
X22132380Y88986666D01*
X22132380Y88510476D01*
X23132380Y87605714D02*
X23132380Y88177142D01*
X23132380Y87891428D02*
X22132380Y87891428D01*
X22275238Y87986666D01*
X22370476Y88081904D01*
X22418095Y88177142D01*
%TO.C,D16*%
X92939880Y72651785D02*
X91939880Y72651785D01*
X91939880Y72413690D01*
X91987500Y72270833D01*
X92082738Y72175595D01*
X92177976Y72127976D01*
X92368452Y72080357D01*
X92511309Y72080357D01*
X92701785Y72127976D01*
X92797023Y72175595D01*
X92892261Y72270833D01*
X92939880Y72413690D01*
X92939880Y72651785D01*
X92939880Y71127976D02*
X92939880Y71699404D01*
X92939880Y71413690D02*
X91939880Y71413690D01*
X92082738Y71508928D01*
X92177976Y71604166D01*
X92225595Y71699404D01*
X91939880Y70270833D02*
X91939880Y70461309D01*
X91987500Y70556547D01*
X92035119Y70604166D01*
X92177976Y70699404D01*
X92368452Y70747023D01*
X92749404Y70747023D01*
X92844642Y70699404D01*
X92892261Y70651785D01*
X92939880Y70556547D01*
X92939880Y70366071D01*
X92892261Y70270833D01*
X92844642Y70223214D01*
X92749404Y70175595D01*
X92511309Y70175595D01*
X92416071Y70223214D01*
X92368452Y70270833D01*
X92320833Y70366071D01*
X92320833Y70556547D01*
X92368452Y70651785D01*
X92416071Y70699404D01*
X92511309Y70747023D01*
%TO.C,USB1*%
X30328095Y97102619D02*
X30328095Y96293095D01*
X30280476Y96197857D01*
X30232857Y96150238D01*
X30137619Y96102619D01*
X29947142Y96102619D01*
X29851904Y96150238D01*
X29804285Y96197857D01*
X29756666Y96293095D01*
X29756666Y97102619D01*
X29328095Y96150238D02*
X29185238Y96102619D01*
X28947142Y96102619D01*
X28851904Y96150238D01*
X28804285Y96197857D01*
X28756666Y96293095D01*
X28756666Y96388333D01*
X28804285Y96483571D01*
X28851904Y96531190D01*
X28947142Y96578809D01*
X29137619Y96626428D01*
X29232857Y96674047D01*
X29280476Y96721666D01*
X29328095Y96816904D01*
X29328095Y96912142D01*
X29280476Y97007380D01*
X29232857Y97055000D01*
X29137619Y97102619D01*
X28899523Y97102619D01*
X28756666Y97055000D01*
X27994761Y96626428D02*
X27851904Y96578809D01*
X27804285Y96531190D01*
X27756666Y96435952D01*
X27756666Y96293095D01*
X27804285Y96197857D01*
X27851904Y96150238D01*
X27947142Y96102619D01*
X28328095Y96102619D01*
X28328095Y97102619D01*
X27994761Y97102619D01*
X27899523Y97055000D01*
X27851904Y97007380D01*
X27804285Y96912142D01*
X27804285Y96816904D01*
X27851904Y96721666D01*
X27899523Y96674047D01*
X27994761Y96626428D01*
X28328095Y96626428D01*
X26804285Y96102619D02*
X27375714Y96102619D01*
X27089999Y96102619D02*
X27089999Y97102619D01*
X27185238Y96959761D01*
X27280476Y96864523D01*
X27375714Y96816904D01*
%TO.C,U1*%
X94502380Y20961904D02*
X95311904Y20961904D01*
X95407142Y20914285D01*
X95454761Y20866666D01*
X95502380Y20771428D01*
X95502380Y20580952D01*
X95454761Y20485714D01*
X95407142Y20438095D01*
X95311904Y20390476D01*
X94502380Y20390476D01*
X95502380Y19390476D02*
X95502380Y19961904D01*
X95502380Y19676190D02*
X94502380Y19676190D01*
X94645238Y19771428D01*
X94740476Y19866666D01*
X94788095Y19961904D01*
%TO.C,R4*%
X26402380Y87936666D02*
X25926190Y88270000D01*
X26402380Y88508095D02*
X25402380Y88508095D01*
X25402380Y88127142D01*
X25450000Y88031904D01*
X25497619Y87984285D01*
X25592857Y87936666D01*
X25735714Y87936666D01*
X25830952Y87984285D01*
X25878571Y88031904D01*
X25926190Y88127142D01*
X25926190Y88508095D01*
X25735714Y87079523D02*
X26402380Y87079523D01*
X25354761Y87317619D02*
X26069047Y87555714D01*
X26069047Y86936666D01*
%TO.C,R3*%
X28352380Y87946666D02*
X27876190Y88280000D01*
X28352380Y88518095D02*
X27352380Y88518095D01*
X27352380Y88137142D01*
X27400000Y88041904D01*
X27447619Y87994285D01*
X27542857Y87946666D01*
X27685714Y87946666D01*
X27780952Y87994285D01*
X27828571Y88041904D01*
X27876190Y88137142D01*
X27876190Y88518095D01*
X27352380Y87613333D02*
X27352380Y86994285D01*
X27733333Y87327619D01*
X27733333Y87184761D01*
X27780952Y87089523D01*
X27828571Y87041904D01*
X27923809Y86994285D01*
X28161904Y86994285D01*
X28257142Y87041904D01*
X28304761Y87089523D01*
X28352380Y87184761D01*
X28352380Y87470476D01*
X28304761Y87565714D01*
X28257142Y87613333D01*
%TO.C,R2*%
X36152380Y88416666D02*
X35676190Y88750000D01*
X36152380Y88988095D02*
X35152380Y88988095D01*
X35152380Y88607142D01*
X35200000Y88511904D01*
X35247619Y88464285D01*
X35342857Y88416666D01*
X35485714Y88416666D01*
X35580952Y88464285D01*
X35628571Y88511904D01*
X35676190Y88607142D01*
X35676190Y88988095D01*
X35247619Y88035714D02*
X35200000Y87988095D01*
X35152380Y87892857D01*
X35152380Y87654761D01*
X35200000Y87559523D01*
X35247619Y87511904D01*
X35342857Y87464285D01*
X35438095Y87464285D01*
X35580952Y87511904D01*
X36152380Y88083333D01*
X36152380Y87464285D01*
%TO.C,D60*%
X288202380Y72651785D02*
X287202380Y72651785D01*
X287202380Y72413690D01*
X287250000Y72270833D01*
X287345238Y72175595D01*
X287440476Y72127976D01*
X287630952Y72080357D01*
X287773809Y72080357D01*
X287964285Y72127976D01*
X288059523Y72175595D01*
X288154761Y72270833D01*
X288202380Y72413690D01*
X288202380Y72651785D01*
X287202380Y71223214D02*
X287202380Y71413690D01*
X287250000Y71508928D01*
X287297619Y71556547D01*
X287440476Y71651785D01*
X287630952Y71699404D01*
X288011904Y71699404D01*
X288107142Y71651785D01*
X288154761Y71604166D01*
X288202380Y71508928D01*
X288202380Y71318452D01*
X288154761Y71223214D01*
X288107142Y71175595D01*
X288011904Y71127976D01*
X287773809Y71127976D01*
X287678571Y71175595D01*
X287630952Y71223214D01*
X287583333Y71318452D01*
X287583333Y71508928D01*
X287630952Y71604166D01*
X287678571Y71651785D01*
X287773809Y71699404D01*
X287202380Y70508928D02*
X287202380Y70413690D01*
X287250000Y70318452D01*
X287297619Y70270833D01*
X287392857Y70223214D01*
X287583333Y70175595D01*
X287821428Y70175595D01*
X288011904Y70223214D01*
X288107142Y70270833D01*
X288154761Y70318452D01*
X288202380Y70413690D01*
X288202380Y70508928D01*
X288154761Y70604166D01*
X288107142Y70651785D01*
X288011904Y70699404D01*
X287821428Y70747023D01*
X287583333Y70747023D01*
X287392857Y70699404D01*
X287297619Y70651785D01*
X287250000Y70604166D01*
X287202380Y70508928D01*
%TO.C,D59*%
X295346130Y91701785D02*
X294346130Y91701785D01*
X294346130Y91463690D01*
X294393750Y91320833D01*
X294488988Y91225595D01*
X294584226Y91177976D01*
X294774702Y91130357D01*
X294917559Y91130357D01*
X295108035Y91177976D01*
X295203273Y91225595D01*
X295298511Y91320833D01*
X295346130Y91463690D01*
X295346130Y91701785D01*
X294346130Y90225595D02*
X294346130Y90701785D01*
X294822321Y90749404D01*
X294774702Y90701785D01*
X294727083Y90606547D01*
X294727083Y90368452D01*
X294774702Y90273214D01*
X294822321Y90225595D01*
X294917559Y90177976D01*
X295155654Y90177976D01*
X295250892Y90225595D01*
X295298511Y90273214D01*
X295346130Y90368452D01*
X295346130Y90606547D01*
X295298511Y90701785D01*
X295250892Y90749404D01*
X295346130Y89701785D02*
X295346130Y89511309D01*
X295298511Y89416071D01*
X295250892Y89368452D01*
X295108035Y89273214D01*
X294917559Y89225595D01*
X294536607Y89225595D01*
X294441369Y89273214D01*
X294393750Y89320833D01*
X294346130Y89416071D01*
X294346130Y89606547D01*
X294393750Y89701785D01*
X294441369Y89749404D01*
X294536607Y89797023D01*
X294774702Y89797023D01*
X294869940Y89749404D01*
X294917559Y89701785D01*
X294965178Y89606547D01*
X294965178Y89416071D01*
X294917559Y89320833D01*
X294869940Y89273214D01*
X294774702Y89225595D01*
%TO.C,D58*%
X273914880Y91701785D02*
X272914880Y91701785D01*
X272914880Y91463690D01*
X272962500Y91320833D01*
X273057738Y91225595D01*
X273152976Y91177976D01*
X273343452Y91130357D01*
X273486309Y91130357D01*
X273676785Y91177976D01*
X273772023Y91225595D01*
X273867261Y91320833D01*
X273914880Y91463690D01*
X273914880Y91701785D01*
X272914880Y90225595D02*
X272914880Y90701785D01*
X273391071Y90749404D01*
X273343452Y90701785D01*
X273295833Y90606547D01*
X273295833Y90368452D01*
X273343452Y90273214D01*
X273391071Y90225595D01*
X273486309Y90177976D01*
X273724404Y90177976D01*
X273819642Y90225595D01*
X273867261Y90273214D01*
X273914880Y90368452D01*
X273914880Y90606547D01*
X273867261Y90701785D01*
X273819642Y90749404D01*
X273343452Y89606547D02*
X273295833Y89701785D01*
X273248214Y89749404D01*
X273152976Y89797023D01*
X273105357Y89797023D01*
X273010119Y89749404D01*
X272962500Y89701785D01*
X272914880Y89606547D01*
X272914880Y89416071D01*
X272962500Y89320833D01*
X273010119Y89273214D01*
X273105357Y89225595D01*
X273152976Y89225595D01*
X273248214Y89273214D01*
X273295833Y89320833D01*
X273343452Y89416071D01*
X273343452Y89606547D01*
X273391071Y89701785D01*
X273438690Y89749404D01*
X273533928Y89797023D01*
X273724404Y89797023D01*
X273819642Y89749404D01*
X273867261Y89701785D01*
X273914880Y89606547D01*
X273914880Y89416071D01*
X273867261Y89320833D01*
X273819642Y89273214D01*
X273724404Y89225595D01*
X273533928Y89225595D01*
X273438690Y89273214D01*
X273391071Y89320833D01*
X273343452Y89416071D01*
%TO.C,D57*%
X292964880Y34551785D02*
X291964880Y34551785D01*
X291964880Y34313690D01*
X292012500Y34170833D01*
X292107738Y34075595D01*
X292202976Y34027976D01*
X292393452Y33980357D01*
X292536309Y33980357D01*
X292726785Y34027976D01*
X292822023Y34075595D01*
X292917261Y34170833D01*
X292964880Y34313690D01*
X292964880Y34551785D01*
X291964880Y33075595D02*
X291964880Y33551785D01*
X292441071Y33599404D01*
X292393452Y33551785D01*
X292345833Y33456547D01*
X292345833Y33218452D01*
X292393452Y33123214D01*
X292441071Y33075595D01*
X292536309Y33027976D01*
X292774404Y33027976D01*
X292869642Y33075595D01*
X292917261Y33123214D01*
X292964880Y33218452D01*
X292964880Y33456547D01*
X292917261Y33551785D01*
X292869642Y33599404D01*
X291964880Y32694642D02*
X291964880Y32027976D01*
X292964880Y32456547D01*
%TO.C,D56*%
X281058630Y53601785D02*
X280058630Y53601785D01*
X280058630Y53363690D01*
X280106250Y53220833D01*
X280201488Y53125595D01*
X280296726Y53077976D01*
X280487202Y53030357D01*
X280630059Y53030357D01*
X280820535Y53077976D01*
X280915773Y53125595D01*
X281011011Y53220833D01*
X281058630Y53363690D01*
X281058630Y53601785D01*
X280058630Y52125595D02*
X280058630Y52601785D01*
X280534821Y52649404D01*
X280487202Y52601785D01*
X280439583Y52506547D01*
X280439583Y52268452D01*
X280487202Y52173214D01*
X280534821Y52125595D01*
X280630059Y52077976D01*
X280868154Y52077976D01*
X280963392Y52125595D01*
X281011011Y52173214D01*
X281058630Y52268452D01*
X281058630Y52506547D01*
X281011011Y52601785D01*
X280963392Y52649404D01*
X280058630Y51220833D02*
X280058630Y51411309D01*
X280106250Y51506547D01*
X280153869Y51554166D01*
X280296726Y51649404D01*
X280487202Y51697023D01*
X280868154Y51697023D01*
X280963392Y51649404D01*
X281011011Y51601785D01*
X281058630Y51506547D01*
X281058630Y51316071D01*
X281011011Y51220833D01*
X280963392Y51173214D01*
X280868154Y51125595D01*
X280630059Y51125595D01*
X280534821Y51173214D01*
X280487202Y51220833D01*
X280439583Y51316071D01*
X280439583Y51506547D01*
X280487202Y51601785D01*
X280534821Y51649404D01*
X280630059Y51697023D01*
%TO.C,D55*%
X264389880Y72651785D02*
X263389880Y72651785D01*
X263389880Y72413690D01*
X263437500Y72270833D01*
X263532738Y72175595D01*
X263627976Y72127976D01*
X263818452Y72080357D01*
X263961309Y72080357D01*
X264151785Y72127976D01*
X264247023Y72175595D01*
X264342261Y72270833D01*
X264389880Y72413690D01*
X264389880Y72651785D01*
X263389880Y71175595D02*
X263389880Y71651785D01*
X263866071Y71699404D01*
X263818452Y71651785D01*
X263770833Y71556547D01*
X263770833Y71318452D01*
X263818452Y71223214D01*
X263866071Y71175595D01*
X263961309Y71127976D01*
X264199404Y71127976D01*
X264294642Y71175595D01*
X264342261Y71223214D01*
X264389880Y71318452D01*
X264389880Y71556547D01*
X264342261Y71651785D01*
X264294642Y71699404D01*
X263389880Y70223214D02*
X263389880Y70699404D01*
X263866071Y70747023D01*
X263818452Y70699404D01*
X263770833Y70604166D01*
X263770833Y70366071D01*
X263818452Y70270833D01*
X263866071Y70223214D01*
X263961309Y70175595D01*
X264199404Y70175595D01*
X264294642Y70223214D01*
X264342261Y70270833D01*
X264389880Y70366071D01*
X264389880Y70604166D01*
X264342261Y70699404D01*
X264294642Y70747023D01*
%TO.C,D54*%
X254864880Y91701785D02*
X253864880Y91701785D01*
X253864880Y91463690D01*
X253912500Y91320833D01*
X254007738Y91225595D01*
X254102976Y91177976D01*
X254293452Y91130357D01*
X254436309Y91130357D01*
X254626785Y91177976D01*
X254722023Y91225595D01*
X254817261Y91320833D01*
X254864880Y91463690D01*
X254864880Y91701785D01*
X253864880Y90225595D02*
X253864880Y90701785D01*
X254341071Y90749404D01*
X254293452Y90701785D01*
X254245833Y90606547D01*
X254245833Y90368452D01*
X254293452Y90273214D01*
X254341071Y90225595D01*
X254436309Y90177976D01*
X254674404Y90177976D01*
X254769642Y90225595D01*
X254817261Y90273214D01*
X254864880Y90368452D01*
X254864880Y90606547D01*
X254817261Y90701785D01*
X254769642Y90749404D01*
X254198214Y89320833D02*
X254864880Y89320833D01*
X253817261Y89558928D02*
X254531547Y89797023D01*
X254531547Y89177976D01*
%TO.C,D53*%
X266771130Y34551785D02*
X265771130Y34551785D01*
X265771130Y34313690D01*
X265818750Y34170833D01*
X265913988Y34075595D01*
X266009226Y34027976D01*
X266199702Y33980357D01*
X266342559Y33980357D01*
X266533035Y34027976D01*
X266628273Y34075595D01*
X266723511Y34170833D01*
X266771130Y34313690D01*
X266771130Y34551785D01*
X265771130Y33075595D02*
X265771130Y33551785D01*
X266247321Y33599404D01*
X266199702Y33551785D01*
X266152083Y33456547D01*
X266152083Y33218452D01*
X266199702Y33123214D01*
X266247321Y33075595D01*
X266342559Y33027976D01*
X266580654Y33027976D01*
X266675892Y33075595D01*
X266723511Y33123214D01*
X266771130Y33218452D01*
X266771130Y33456547D01*
X266723511Y33551785D01*
X266675892Y33599404D01*
X265771130Y32694642D02*
X265771130Y32075595D01*
X266152083Y32408928D01*
X266152083Y32266071D01*
X266199702Y32170833D01*
X266247321Y32123214D01*
X266342559Y32075595D01*
X266580654Y32075595D01*
X266675892Y32123214D01*
X266723511Y32170833D01*
X266771130Y32266071D01*
X266771130Y32551785D01*
X266723511Y32647023D01*
X266675892Y32694642D01*
%TO.C,D52*%
X250102380Y53601785D02*
X249102380Y53601785D01*
X249102380Y53363690D01*
X249150000Y53220833D01*
X249245238Y53125595D01*
X249340476Y53077976D01*
X249530952Y53030357D01*
X249673809Y53030357D01*
X249864285Y53077976D01*
X249959523Y53125595D01*
X250054761Y53220833D01*
X250102380Y53363690D01*
X250102380Y53601785D01*
X249102380Y52125595D02*
X249102380Y52601785D01*
X249578571Y52649404D01*
X249530952Y52601785D01*
X249483333Y52506547D01*
X249483333Y52268452D01*
X249530952Y52173214D01*
X249578571Y52125595D01*
X249673809Y52077976D01*
X249911904Y52077976D01*
X250007142Y52125595D01*
X250054761Y52173214D01*
X250102380Y52268452D01*
X250102380Y52506547D01*
X250054761Y52601785D01*
X250007142Y52649404D01*
X249197619Y51697023D02*
X249150000Y51649404D01*
X249102380Y51554166D01*
X249102380Y51316071D01*
X249150000Y51220833D01*
X249197619Y51173214D01*
X249292857Y51125595D01*
X249388095Y51125595D01*
X249530952Y51173214D01*
X250102380Y51744642D01*
X250102380Y51125595D01*
%TO.C,D51*%
X245339880Y72651785D02*
X244339880Y72651785D01*
X244339880Y72413690D01*
X244387500Y72270833D01*
X244482738Y72175595D01*
X244577976Y72127976D01*
X244768452Y72080357D01*
X244911309Y72080357D01*
X245101785Y72127976D01*
X245197023Y72175595D01*
X245292261Y72270833D01*
X245339880Y72413690D01*
X245339880Y72651785D01*
X244339880Y71175595D02*
X244339880Y71651785D01*
X244816071Y71699404D01*
X244768452Y71651785D01*
X244720833Y71556547D01*
X244720833Y71318452D01*
X244768452Y71223214D01*
X244816071Y71175595D01*
X244911309Y71127976D01*
X245149404Y71127976D01*
X245244642Y71175595D01*
X245292261Y71223214D01*
X245339880Y71318452D01*
X245339880Y71556547D01*
X245292261Y71651785D01*
X245244642Y71699404D01*
X245339880Y70175595D02*
X245339880Y70747023D01*
X245339880Y70461309D02*
X244339880Y70461309D01*
X244482738Y70556547D01*
X244577976Y70651785D01*
X244625595Y70747023D01*
%TO.C,D50*%
X235814880Y91701785D02*
X234814880Y91701785D01*
X234814880Y91463690D01*
X234862500Y91320833D01*
X234957738Y91225595D01*
X235052976Y91177976D01*
X235243452Y91130357D01*
X235386309Y91130357D01*
X235576785Y91177976D01*
X235672023Y91225595D01*
X235767261Y91320833D01*
X235814880Y91463690D01*
X235814880Y91701785D01*
X234814880Y90225595D02*
X234814880Y90701785D01*
X235291071Y90749404D01*
X235243452Y90701785D01*
X235195833Y90606547D01*
X235195833Y90368452D01*
X235243452Y90273214D01*
X235291071Y90225595D01*
X235386309Y90177976D01*
X235624404Y90177976D01*
X235719642Y90225595D01*
X235767261Y90273214D01*
X235814880Y90368452D01*
X235814880Y90606547D01*
X235767261Y90701785D01*
X235719642Y90749404D01*
X234814880Y89558928D02*
X234814880Y89463690D01*
X234862500Y89368452D01*
X234910119Y89320833D01*
X235005357Y89273214D01*
X235195833Y89225595D01*
X235433928Y89225595D01*
X235624404Y89273214D01*
X235719642Y89320833D01*
X235767261Y89368452D01*
X235814880Y89463690D01*
X235814880Y89558928D01*
X235767261Y89654166D01*
X235719642Y89701785D01*
X235624404Y89749404D01*
X235433928Y89797023D01*
X235195833Y89797023D01*
X235005357Y89749404D01*
X234910119Y89701785D01*
X234862500Y89654166D01*
X234814880Y89558928D01*
%TO.C,D49*%
X245339880Y15501785D02*
X244339880Y15501785D01*
X244339880Y15263690D01*
X244387500Y15120833D01*
X244482738Y15025595D01*
X244577976Y14977976D01*
X244768452Y14930357D01*
X244911309Y14930357D01*
X245101785Y14977976D01*
X245197023Y15025595D01*
X245292261Y15120833D01*
X245339880Y15263690D01*
X245339880Y15501785D01*
X244673214Y14073214D02*
X245339880Y14073214D01*
X244292261Y14311309D02*
X245006547Y14549404D01*
X245006547Y13930357D01*
X245339880Y13501785D02*
X245339880Y13311309D01*
X245292261Y13216071D01*
X245244642Y13168452D01*
X245101785Y13073214D01*
X244911309Y13025595D01*
X244530357Y13025595D01*
X244435119Y13073214D01*
X244387500Y13120833D01*
X244339880Y13216071D01*
X244339880Y13406547D01*
X244387500Y13501785D01*
X244435119Y13549404D01*
X244530357Y13597023D01*
X244768452Y13597023D01*
X244863690Y13549404D01*
X244911309Y13501785D01*
X244958928Y13406547D01*
X244958928Y13216071D01*
X244911309Y13120833D01*
X244863690Y13073214D01*
X244768452Y13025595D01*
%TO.C,D48*%
X240577380Y34551785D02*
X239577380Y34551785D01*
X239577380Y34313690D01*
X239625000Y34170833D01*
X239720238Y34075595D01*
X239815476Y34027976D01*
X240005952Y33980357D01*
X240148809Y33980357D01*
X240339285Y34027976D01*
X240434523Y34075595D01*
X240529761Y34170833D01*
X240577380Y34313690D01*
X240577380Y34551785D01*
X239910714Y33123214D02*
X240577380Y33123214D01*
X239529761Y33361309D02*
X240244047Y33599404D01*
X240244047Y32980357D01*
X240005952Y32456547D02*
X239958333Y32551785D01*
X239910714Y32599404D01*
X239815476Y32647023D01*
X239767857Y32647023D01*
X239672619Y32599404D01*
X239625000Y32551785D01*
X239577380Y32456547D01*
X239577380Y32266071D01*
X239625000Y32170833D01*
X239672619Y32123214D01*
X239767857Y32075595D01*
X239815476Y32075595D01*
X239910714Y32123214D01*
X239958333Y32170833D01*
X240005952Y32266071D01*
X240005952Y32456547D01*
X240053571Y32551785D01*
X240101190Y32599404D01*
X240196428Y32647023D01*
X240386904Y32647023D01*
X240482142Y32599404D01*
X240529761Y32551785D01*
X240577380Y32456547D01*
X240577380Y32266071D01*
X240529761Y32170833D01*
X240482142Y32123214D01*
X240386904Y32075595D01*
X240196428Y32075595D01*
X240101190Y32123214D01*
X240053571Y32170833D01*
X240005952Y32266071D01*
%TO.C,D47*%
X231052380Y53601785D02*
X230052380Y53601785D01*
X230052380Y53363690D01*
X230100000Y53220833D01*
X230195238Y53125595D01*
X230290476Y53077976D01*
X230480952Y53030357D01*
X230623809Y53030357D01*
X230814285Y53077976D01*
X230909523Y53125595D01*
X231004761Y53220833D01*
X231052380Y53363690D01*
X231052380Y53601785D01*
X230385714Y52173214D02*
X231052380Y52173214D01*
X230004761Y52411309D02*
X230719047Y52649404D01*
X230719047Y52030357D01*
X230052380Y51744642D02*
X230052380Y51077976D01*
X231052380Y51506547D01*
%TO.C,D46*%
X226289880Y72651785D02*
X225289880Y72651785D01*
X225289880Y72413690D01*
X225337500Y72270833D01*
X225432738Y72175595D01*
X225527976Y72127976D01*
X225718452Y72080357D01*
X225861309Y72080357D01*
X226051785Y72127976D01*
X226147023Y72175595D01*
X226242261Y72270833D01*
X226289880Y72413690D01*
X226289880Y72651785D01*
X225623214Y71223214D02*
X226289880Y71223214D01*
X225242261Y71461309D02*
X225956547Y71699404D01*
X225956547Y71080357D01*
X225289880Y70270833D02*
X225289880Y70461309D01*
X225337500Y70556547D01*
X225385119Y70604166D01*
X225527976Y70699404D01*
X225718452Y70747023D01*
X226099404Y70747023D01*
X226194642Y70699404D01*
X226242261Y70651785D01*
X226289880Y70556547D01*
X226289880Y70366071D01*
X226242261Y70270833D01*
X226194642Y70223214D01*
X226099404Y70175595D01*
X225861309Y70175595D01*
X225766071Y70223214D01*
X225718452Y70270833D01*
X225670833Y70366071D01*
X225670833Y70556547D01*
X225718452Y70651785D01*
X225766071Y70699404D01*
X225861309Y70747023D01*
%TO.C,D45*%
X216764880Y91701785D02*
X215764880Y91701785D01*
X215764880Y91463690D01*
X215812500Y91320833D01*
X215907738Y91225595D01*
X216002976Y91177976D01*
X216193452Y91130357D01*
X216336309Y91130357D01*
X216526785Y91177976D01*
X216622023Y91225595D01*
X216717261Y91320833D01*
X216764880Y91463690D01*
X216764880Y91701785D01*
X216098214Y90273214D02*
X216764880Y90273214D01*
X215717261Y90511309D02*
X216431547Y90749404D01*
X216431547Y90130357D01*
X215764880Y89273214D02*
X215764880Y89749404D01*
X216241071Y89797023D01*
X216193452Y89749404D01*
X216145833Y89654166D01*
X216145833Y89416071D01*
X216193452Y89320833D01*
X216241071Y89273214D01*
X216336309Y89225595D01*
X216574404Y89225595D01*
X216669642Y89273214D01*
X216717261Y89320833D01*
X216764880Y89416071D01*
X216764880Y89654166D01*
X216717261Y89749404D01*
X216669642Y89797023D01*
%TO.C,D44*%
X221527380Y15501785D02*
X220527380Y15501785D01*
X220527380Y15263690D01*
X220575000Y15120833D01*
X220670238Y15025595D01*
X220765476Y14977976D01*
X220955952Y14930357D01*
X221098809Y14930357D01*
X221289285Y14977976D01*
X221384523Y15025595D01*
X221479761Y15120833D01*
X221527380Y15263690D01*
X221527380Y15501785D01*
X220860714Y14073214D02*
X221527380Y14073214D01*
X220479761Y14311309D02*
X221194047Y14549404D01*
X221194047Y13930357D01*
X220860714Y13120833D02*
X221527380Y13120833D01*
X220479761Y13358928D02*
X221194047Y13597023D01*
X221194047Y12977976D01*
%TO.C,D43*%
X221527380Y34551785D02*
X220527380Y34551785D01*
X220527380Y34313690D01*
X220575000Y34170833D01*
X220670238Y34075595D01*
X220765476Y34027976D01*
X220955952Y33980357D01*
X221098809Y33980357D01*
X221289285Y34027976D01*
X221384523Y34075595D01*
X221479761Y34170833D01*
X221527380Y34313690D01*
X221527380Y34551785D01*
X220860714Y33123214D02*
X221527380Y33123214D01*
X220479761Y33361309D02*
X221194047Y33599404D01*
X221194047Y32980357D01*
X220527380Y32694642D02*
X220527380Y32075595D01*
X220908333Y32408928D01*
X220908333Y32266071D01*
X220955952Y32170833D01*
X221003571Y32123214D01*
X221098809Y32075595D01*
X221336904Y32075595D01*
X221432142Y32123214D01*
X221479761Y32170833D01*
X221527380Y32266071D01*
X221527380Y32551785D01*
X221479761Y32647023D01*
X221432142Y32694642D01*
%TO.C,D42*%
X212002380Y53601785D02*
X211002380Y53601785D01*
X211002380Y53363690D01*
X211050000Y53220833D01*
X211145238Y53125595D01*
X211240476Y53077976D01*
X211430952Y53030357D01*
X211573809Y53030357D01*
X211764285Y53077976D01*
X211859523Y53125595D01*
X211954761Y53220833D01*
X212002380Y53363690D01*
X212002380Y53601785D01*
X211335714Y52173214D02*
X212002380Y52173214D01*
X210954761Y52411309D02*
X211669047Y52649404D01*
X211669047Y52030357D01*
X211097619Y51697023D02*
X211050000Y51649404D01*
X211002380Y51554166D01*
X211002380Y51316071D01*
X211050000Y51220833D01*
X211097619Y51173214D01*
X211192857Y51125595D01*
X211288095Y51125595D01*
X211430952Y51173214D01*
X212002380Y51744642D01*
X212002380Y51125595D01*
%TO.C,D41*%
X207239880Y72651785D02*
X206239880Y72651785D01*
X206239880Y72413690D01*
X206287500Y72270833D01*
X206382738Y72175595D01*
X206477976Y72127976D01*
X206668452Y72080357D01*
X206811309Y72080357D01*
X207001785Y72127976D01*
X207097023Y72175595D01*
X207192261Y72270833D01*
X207239880Y72413690D01*
X207239880Y72651785D01*
X206573214Y71223214D02*
X207239880Y71223214D01*
X206192261Y71461309D02*
X206906547Y71699404D01*
X206906547Y71080357D01*
X207239880Y70175595D02*
X207239880Y70747023D01*
X207239880Y70461309D02*
X206239880Y70461309D01*
X206382738Y70556547D01*
X206477976Y70651785D01*
X206525595Y70747023D01*
%TO.C,D40*%
X197714880Y91701785D02*
X196714880Y91701785D01*
X196714880Y91463690D01*
X196762500Y91320833D01*
X196857738Y91225595D01*
X196952976Y91177976D01*
X197143452Y91130357D01*
X197286309Y91130357D01*
X197476785Y91177976D01*
X197572023Y91225595D01*
X197667261Y91320833D01*
X197714880Y91463690D01*
X197714880Y91701785D01*
X197048214Y90273214D02*
X197714880Y90273214D01*
X196667261Y90511309D02*
X197381547Y90749404D01*
X197381547Y90130357D01*
X196714880Y89558928D02*
X196714880Y89463690D01*
X196762500Y89368452D01*
X196810119Y89320833D01*
X196905357Y89273214D01*
X197095833Y89225595D01*
X197333928Y89225595D01*
X197524404Y89273214D01*
X197619642Y89320833D01*
X197667261Y89368452D01*
X197714880Y89463690D01*
X197714880Y89558928D01*
X197667261Y89654166D01*
X197619642Y89701785D01*
X197524404Y89749404D01*
X197333928Y89797023D01*
X197095833Y89797023D01*
X196905357Y89749404D01*
X196810119Y89701785D01*
X196762500Y89654166D01*
X196714880Y89558928D01*
%TO.C,D39*%
X202477380Y34551785D02*
X201477380Y34551785D01*
X201477380Y34313690D01*
X201525000Y34170833D01*
X201620238Y34075595D01*
X201715476Y34027976D01*
X201905952Y33980357D01*
X202048809Y33980357D01*
X202239285Y34027976D01*
X202334523Y34075595D01*
X202429761Y34170833D01*
X202477380Y34313690D01*
X202477380Y34551785D01*
X201477380Y33647023D02*
X201477380Y33027976D01*
X201858333Y33361309D01*
X201858333Y33218452D01*
X201905952Y33123214D01*
X201953571Y33075595D01*
X202048809Y33027976D01*
X202286904Y33027976D01*
X202382142Y33075595D01*
X202429761Y33123214D01*
X202477380Y33218452D01*
X202477380Y33504166D01*
X202429761Y33599404D01*
X202382142Y33647023D01*
X202477380Y32551785D02*
X202477380Y32361309D01*
X202429761Y32266071D01*
X202382142Y32218452D01*
X202239285Y32123214D01*
X202048809Y32075595D01*
X201667857Y32075595D01*
X201572619Y32123214D01*
X201525000Y32170833D01*
X201477380Y32266071D01*
X201477380Y32456547D01*
X201525000Y32551785D01*
X201572619Y32599404D01*
X201667857Y32647023D01*
X201905952Y32647023D01*
X202001190Y32599404D01*
X202048809Y32551785D01*
X202096428Y32456547D01*
X202096428Y32266071D01*
X202048809Y32170833D01*
X202001190Y32123214D01*
X201905952Y32075595D01*
%TO.C,D38*%
X192952380Y53601785D02*
X191952380Y53601785D01*
X191952380Y53363690D01*
X192000000Y53220833D01*
X192095238Y53125595D01*
X192190476Y53077976D01*
X192380952Y53030357D01*
X192523809Y53030357D01*
X192714285Y53077976D01*
X192809523Y53125595D01*
X192904761Y53220833D01*
X192952380Y53363690D01*
X192952380Y53601785D01*
X191952380Y52697023D02*
X191952380Y52077976D01*
X192333333Y52411309D01*
X192333333Y52268452D01*
X192380952Y52173214D01*
X192428571Y52125595D01*
X192523809Y52077976D01*
X192761904Y52077976D01*
X192857142Y52125595D01*
X192904761Y52173214D01*
X192952380Y52268452D01*
X192952380Y52554166D01*
X192904761Y52649404D01*
X192857142Y52697023D01*
X192380952Y51506547D02*
X192333333Y51601785D01*
X192285714Y51649404D01*
X192190476Y51697023D01*
X192142857Y51697023D01*
X192047619Y51649404D01*
X192000000Y51601785D01*
X191952380Y51506547D01*
X191952380Y51316071D01*
X192000000Y51220833D01*
X192047619Y51173214D01*
X192142857Y51125595D01*
X192190476Y51125595D01*
X192285714Y51173214D01*
X192333333Y51220833D01*
X192380952Y51316071D01*
X192380952Y51506547D01*
X192428571Y51601785D01*
X192476190Y51649404D01*
X192571428Y51697023D01*
X192761904Y51697023D01*
X192857142Y51649404D01*
X192904761Y51601785D01*
X192952380Y51506547D01*
X192952380Y51316071D01*
X192904761Y51220833D01*
X192857142Y51173214D01*
X192761904Y51125595D01*
X192571428Y51125595D01*
X192476190Y51173214D01*
X192428571Y51220833D01*
X192380952Y51316071D01*
%TO.C,D37*%
X188189880Y72651785D02*
X187189880Y72651785D01*
X187189880Y72413690D01*
X187237500Y72270833D01*
X187332738Y72175595D01*
X187427976Y72127976D01*
X187618452Y72080357D01*
X187761309Y72080357D01*
X187951785Y72127976D01*
X188047023Y72175595D01*
X188142261Y72270833D01*
X188189880Y72413690D01*
X188189880Y72651785D01*
X187189880Y71747023D02*
X187189880Y71127976D01*
X187570833Y71461309D01*
X187570833Y71318452D01*
X187618452Y71223214D01*
X187666071Y71175595D01*
X187761309Y71127976D01*
X187999404Y71127976D01*
X188094642Y71175595D01*
X188142261Y71223214D01*
X188189880Y71318452D01*
X188189880Y71604166D01*
X188142261Y71699404D01*
X188094642Y71747023D01*
X187189880Y70794642D02*
X187189880Y70127976D01*
X188189880Y70556547D01*
%TO.C,D36*%
X178664880Y91701785D02*
X177664880Y91701785D01*
X177664880Y91463690D01*
X177712500Y91320833D01*
X177807738Y91225595D01*
X177902976Y91177976D01*
X178093452Y91130357D01*
X178236309Y91130357D01*
X178426785Y91177976D01*
X178522023Y91225595D01*
X178617261Y91320833D01*
X178664880Y91463690D01*
X178664880Y91701785D01*
X177664880Y90797023D02*
X177664880Y90177976D01*
X178045833Y90511309D01*
X178045833Y90368452D01*
X178093452Y90273214D01*
X178141071Y90225595D01*
X178236309Y90177976D01*
X178474404Y90177976D01*
X178569642Y90225595D01*
X178617261Y90273214D01*
X178664880Y90368452D01*
X178664880Y90654166D01*
X178617261Y90749404D01*
X178569642Y90797023D01*
X177664880Y89320833D02*
X177664880Y89511309D01*
X177712500Y89606547D01*
X177760119Y89654166D01*
X177902976Y89749404D01*
X178093452Y89797023D01*
X178474404Y89797023D01*
X178569642Y89749404D01*
X178617261Y89701785D01*
X178664880Y89606547D01*
X178664880Y89416071D01*
X178617261Y89320833D01*
X178569642Y89273214D01*
X178474404Y89225595D01*
X178236309Y89225595D01*
X178141071Y89273214D01*
X178093452Y89320833D01*
X178045833Y89416071D01*
X178045833Y89606547D01*
X178093452Y89701785D01*
X178141071Y89749404D01*
X178236309Y89797023D01*
%TO.C,D35*%
X183427380Y34551785D02*
X182427380Y34551785D01*
X182427380Y34313690D01*
X182475000Y34170833D01*
X182570238Y34075595D01*
X182665476Y34027976D01*
X182855952Y33980357D01*
X182998809Y33980357D01*
X183189285Y34027976D01*
X183284523Y34075595D01*
X183379761Y34170833D01*
X183427380Y34313690D01*
X183427380Y34551785D01*
X182427380Y33647023D02*
X182427380Y33027976D01*
X182808333Y33361309D01*
X182808333Y33218452D01*
X182855952Y33123214D01*
X182903571Y33075595D01*
X182998809Y33027976D01*
X183236904Y33027976D01*
X183332142Y33075595D01*
X183379761Y33123214D01*
X183427380Y33218452D01*
X183427380Y33504166D01*
X183379761Y33599404D01*
X183332142Y33647023D01*
X182427380Y32123214D02*
X182427380Y32599404D01*
X182903571Y32647023D01*
X182855952Y32599404D01*
X182808333Y32504166D01*
X182808333Y32266071D01*
X182855952Y32170833D01*
X182903571Y32123214D01*
X182998809Y32075595D01*
X183236904Y32075595D01*
X183332142Y32123214D01*
X183379761Y32170833D01*
X183427380Y32266071D01*
X183427380Y32504166D01*
X183379761Y32599404D01*
X183332142Y32647023D01*
%TO.C,D34*%
X173902380Y53601785D02*
X172902380Y53601785D01*
X172902380Y53363690D01*
X172950000Y53220833D01*
X173045238Y53125595D01*
X173140476Y53077976D01*
X173330952Y53030357D01*
X173473809Y53030357D01*
X173664285Y53077976D01*
X173759523Y53125595D01*
X173854761Y53220833D01*
X173902380Y53363690D01*
X173902380Y53601785D01*
X172902380Y52697023D02*
X172902380Y52077976D01*
X173283333Y52411309D01*
X173283333Y52268452D01*
X173330952Y52173214D01*
X173378571Y52125595D01*
X173473809Y52077976D01*
X173711904Y52077976D01*
X173807142Y52125595D01*
X173854761Y52173214D01*
X173902380Y52268452D01*
X173902380Y52554166D01*
X173854761Y52649404D01*
X173807142Y52697023D01*
X173235714Y51220833D02*
X173902380Y51220833D01*
X172854761Y51458928D02*
X173569047Y51697023D01*
X173569047Y51077976D01*
%TO.C,D33*%
X169139880Y72651785D02*
X168139880Y72651785D01*
X168139880Y72413690D01*
X168187500Y72270833D01*
X168282738Y72175595D01*
X168377976Y72127976D01*
X168568452Y72080357D01*
X168711309Y72080357D01*
X168901785Y72127976D01*
X168997023Y72175595D01*
X169092261Y72270833D01*
X169139880Y72413690D01*
X169139880Y72651785D01*
X168139880Y71747023D02*
X168139880Y71127976D01*
X168520833Y71461309D01*
X168520833Y71318452D01*
X168568452Y71223214D01*
X168616071Y71175595D01*
X168711309Y71127976D01*
X168949404Y71127976D01*
X169044642Y71175595D01*
X169092261Y71223214D01*
X169139880Y71318452D01*
X169139880Y71604166D01*
X169092261Y71699404D01*
X169044642Y71747023D01*
X168139880Y70794642D02*
X168139880Y70175595D01*
X168520833Y70508928D01*
X168520833Y70366071D01*
X168568452Y70270833D01*
X168616071Y70223214D01*
X168711309Y70175595D01*
X168949404Y70175595D01*
X169044642Y70223214D01*
X169092261Y70270833D01*
X169139880Y70366071D01*
X169139880Y70651785D01*
X169092261Y70747023D01*
X169044642Y70794642D01*
%TO.C,D32*%
X159614880Y91701785D02*
X158614880Y91701785D01*
X158614880Y91463690D01*
X158662500Y91320833D01*
X158757738Y91225595D01*
X158852976Y91177976D01*
X159043452Y91130357D01*
X159186309Y91130357D01*
X159376785Y91177976D01*
X159472023Y91225595D01*
X159567261Y91320833D01*
X159614880Y91463690D01*
X159614880Y91701785D01*
X158614880Y90797023D02*
X158614880Y90177976D01*
X158995833Y90511309D01*
X158995833Y90368452D01*
X159043452Y90273214D01*
X159091071Y90225595D01*
X159186309Y90177976D01*
X159424404Y90177976D01*
X159519642Y90225595D01*
X159567261Y90273214D01*
X159614880Y90368452D01*
X159614880Y90654166D01*
X159567261Y90749404D01*
X159519642Y90797023D01*
X158710119Y89797023D02*
X158662500Y89749404D01*
X158614880Y89654166D01*
X158614880Y89416071D01*
X158662500Y89320833D01*
X158710119Y89273214D01*
X158805357Y89225595D01*
X158900595Y89225595D01*
X159043452Y89273214D01*
X159614880Y89844642D01*
X159614880Y89225595D01*
%TO.C,D31*%
X164377380Y34551785D02*
X163377380Y34551785D01*
X163377380Y34313690D01*
X163425000Y34170833D01*
X163520238Y34075595D01*
X163615476Y34027976D01*
X163805952Y33980357D01*
X163948809Y33980357D01*
X164139285Y34027976D01*
X164234523Y34075595D01*
X164329761Y34170833D01*
X164377380Y34313690D01*
X164377380Y34551785D01*
X163377380Y33647023D02*
X163377380Y33027976D01*
X163758333Y33361309D01*
X163758333Y33218452D01*
X163805952Y33123214D01*
X163853571Y33075595D01*
X163948809Y33027976D01*
X164186904Y33027976D01*
X164282142Y33075595D01*
X164329761Y33123214D01*
X164377380Y33218452D01*
X164377380Y33504166D01*
X164329761Y33599404D01*
X164282142Y33647023D01*
X164377380Y32075595D02*
X164377380Y32647023D01*
X164377380Y32361309D02*
X163377380Y32361309D01*
X163520238Y32456547D01*
X163615476Y32551785D01*
X163663095Y32647023D01*
%TO.C,D30*%
X154852380Y53601785D02*
X153852380Y53601785D01*
X153852380Y53363690D01*
X153900000Y53220833D01*
X153995238Y53125595D01*
X154090476Y53077976D01*
X154280952Y53030357D01*
X154423809Y53030357D01*
X154614285Y53077976D01*
X154709523Y53125595D01*
X154804761Y53220833D01*
X154852380Y53363690D01*
X154852380Y53601785D01*
X153852380Y52697023D02*
X153852380Y52077976D01*
X154233333Y52411309D01*
X154233333Y52268452D01*
X154280952Y52173214D01*
X154328571Y52125595D01*
X154423809Y52077976D01*
X154661904Y52077976D01*
X154757142Y52125595D01*
X154804761Y52173214D01*
X154852380Y52268452D01*
X154852380Y52554166D01*
X154804761Y52649404D01*
X154757142Y52697023D01*
X153852380Y51458928D02*
X153852380Y51363690D01*
X153900000Y51268452D01*
X153947619Y51220833D01*
X154042857Y51173214D01*
X154233333Y51125595D01*
X154471428Y51125595D01*
X154661904Y51173214D01*
X154757142Y51220833D01*
X154804761Y51268452D01*
X154852380Y51363690D01*
X154852380Y51458928D01*
X154804761Y51554166D01*
X154757142Y51601785D01*
X154661904Y51649404D01*
X154471428Y51697023D01*
X154233333Y51697023D01*
X154042857Y51649404D01*
X153947619Y51601785D01*
X153900000Y51554166D01*
X153852380Y51458928D01*
%TO.C,D29*%
X150089880Y72651785D02*
X149089880Y72651785D01*
X149089880Y72413690D01*
X149137500Y72270833D01*
X149232738Y72175595D01*
X149327976Y72127976D01*
X149518452Y72080357D01*
X149661309Y72080357D01*
X149851785Y72127976D01*
X149947023Y72175595D01*
X150042261Y72270833D01*
X150089880Y72413690D01*
X150089880Y72651785D01*
X149185119Y71699404D02*
X149137500Y71651785D01*
X149089880Y71556547D01*
X149089880Y71318452D01*
X149137500Y71223214D01*
X149185119Y71175595D01*
X149280357Y71127976D01*
X149375595Y71127976D01*
X149518452Y71175595D01*
X150089880Y71747023D01*
X150089880Y71127976D01*
X150089880Y70651785D02*
X150089880Y70461309D01*
X150042261Y70366071D01*
X149994642Y70318452D01*
X149851785Y70223214D01*
X149661309Y70175595D01*
X149280357Y70175595D01*
X149185119Y70223214D01*
X149137500Y70270833D01*
X149089880Y70366071D01*
X149089880Y70556547D01*
X149137500Y70651785D01*
X149185119Y70699404D01*
X149280357Y70747023D01*
X149518452Y70747023D01*
X149613690Y70699404D01*
X149661309Y70651785D01*
X149708928Y70556547D01*
X149708928Y70366071D01*
X149661309Y70270833D01*
X149613690Y70223214D01*
X149518452Y70175595D01*
%TO.C,D28*%
X140564880Y91701785D02*
X139564880Y91701785D01*
X139564880Y91463690D01*
X139612500Y91320833D01*
X139707738Y91225595D01*
X139802976Y91177976D01*
X139993452Y91130357D01*
X140136309Y91130357D01*
X140326785Y91177976D01*
X140422023Y91225595D01*
X140517261Y91320833D01*
X140564880Y91463690D01*
X140564880Y91701785D01*
X139660119Y90749404D02*
X139612500Y90701785D01*
X139564880Y90606547D01*
X139564880Y90368452D01*
X139612500Y90273214D01*
X139660119Y90225595D01*
X139755357Y90177976D01*
X139850595Y90177976D01*
X139993452Y90225595D01*
X140564880Y90797023D01*
X140564880Y90177976D01*
X139993452Y89606547D02*
X139945833Y89701785D01*
X139898214Y89749404D01*
X139802976Y89797023D01*
X139755357Y89797023D01*
X139660119Y89749404D01*
X139612500Y89701785D01*
X139564880Y89606547D01*
X139564880Y89416071D01*
X139612500Y89320833D01*
X139660119Y89273214D01*
X139755357Y89225595D01*
X139802976Y89225595D01*
X139898214Y89273214D01*
X139945833Y89320833D01*
X139993452Y89416071D01*
X139993452Y89606547D01*
X140041071Y89701785D01*
X140088690Y89749404D01*
X140183928Y89797023D01*
X140374404Y89797023D01*
X140469642Y89749404D01*
X140517261Y89701785D01*
X140564880Y89606547D01*
X140564880Y89416071D01*
X140517261Y89320833D01*
X140469642Y89273214D01*
X140374404Y89225595D01*
X140183928Y89225595D01*
X140088690Y89273214D01*
X140041071Y89320833D01*
X139993452Y89416071D01*
%TO.C,D27*%
X150089880Y15501785D02*
X149089880Y15501785D01*
X149089880Y15263690D01*
X149137500Y15120833D01*
X149232738Y15025595D01*
X149327976Y14977976D01*
X149518452Y14930357D01*
X149661309Y14930357D01*
X149851785Y14977976D01*
X149947023Y15025595D01*
X150042261Y15120833D01*
X150089880Y15263690D01*
X150089880Y15501785D01*
X149185119Y14549404D02*
X149137500Y14501785D01*
X149089880Y14406547D01*
X149089880Y14168452D01*
X149137500Y14073214D01*
X149185119Y14025595D01*
X149280357Y13977976D01*
X149375595Y13977976D01*
X149518452Y14025595D01*
X150089880Y14597023D01*
X150089880Y13977976D01*
X149089880Y13644642D02*
X149089880Y12977976D01*
X150089880Y13406547D01*
%TO.C,D26*%
X145327380Y34551785D02*
X144327380Y34551785D01*
X144327380Y34313690D01*
X144375000Y34170833D01*
X144470238Y34075595D01*
X144565476Y34027976D01*
X144755952Y33980357D01*
X144898809Y33980357D01*
X145089285Y34027976D01*
X145184523Y34075595D01*
X145279761Y34170833D01*
X145327380Y34313690D01*
X145327380Y34551785D01*
X144422619Y33599404D02*
X144375000Y33551785D01*
X144327380Y33456547D01*
X144327380Y33218452D01*
X144375000Y33123214D01*
X144422619Y33075595D01*
X144517857Y33027976D01*
X144613095Y33027976D01*
X144755952Y33075595D01*
X145327380Y33647023D01*
X145327380Y33027976D01*
X144327380Y32170833D02*
X144327380Y32361309D01*
X144375000Y32456547D01*
X144422619Y32504166D01*
X144565476Y32599404D01*
X144755952Y32647023D01*
X145136904Y32647023D01*
X145232142Y32599404D01*
X145279761Y32551785D01*
X145327380Y32456547D01*
X145327380Y32266071D01*
X145279761Y32170833D01*
X145232142Y32123214D01*
X145136904Y32075595D01*
X144898809Y32075595D01*
X144803571Y32123214D01*
X144755952Y32170833D01*
X144708333Y32266071D01*
X144708333Y32456547D01*
X144755952Y32551785D01*
X144803571Y32599404D01*
X144898809Y32647023D01*
%TO.C,D25*%
X135802380Y53601785D02*
X134802380Y53601785D01*
X134802380Y53363690D01*
X134850000Y53220833D01*
X134945238Y53125595D01*
X135040476Y53077976D01*
X135230952Y53030357D01*
X135373809Y53030357D01*
X135564285Y53077976D01*
X135659523Y53125595D01*
X135754761Y53220833D01*
X135802380Y53363690D01*
X135802380Y53601785D01*
X134897619Y52649404D02*
X134850000Y52601785D01*
X134802380Y52506547D01*
X134802380Y52268452D01*
X134850000Y52173214D01*
X134897619Y52125595D01*
X134992857Y52077976D01*
X135088095Y52077976D01*
X135230952Y52125595D01*
X135802380Y52697023D01*
X135802380Y52077976D01*
X134802380Y51173214D02*
X134802380Y51649404D01*
X135278571Y51697023D01*
X135230952Y51649404D01*
X135183333Y51554166D01*
X135183333Y51316071D01*
X135230952Y51220833D01*
X135278571Y51173214D01*
X135373809Y51125595D01*
X135611904Y51125595D01*
X135707142Y51173214D01*
X135754761Y51220833D01*
X135802380Y51316071D01*
X135802380Y51554166D01*
X135754761Y51649404D01*
X135707142Y51697023D01*
%TO.C,D24*%
X131039880Y72651785D02*
X130039880Y72651785D01*
X130039880Y72413690D01*
X130087500Y72270833D01*
X130182738Y72175595D01*
X130277976Y72127976D01*
X130468452Y72080357D01*
X130611309Y72080357D01*
X130801785Y72127976D01*
X130897023Y72175595D01*
X130992261Y72270833D01*
X131039880Y72413690D01*
X131039880Y72651785D01*
X130135119Y71699404D02*
X130087500Y71651785D01*
X130039880Y71556547D01*
X130039880Y71318452D01*
X130087500Y71223214D01*
X130135119Y71175595D01*
X130230357Y71127976D01*
X130325595Y71127976D01*
X130468452Y71175595D01*
X131039880Y71747023D01*
X131039880Y71127976D01*
X130373214Y70270833D02*
X131039880Y70270833D01*
X129992261Y70508928D02*
X130706547Y70747023D01*
X130706547Y70127976D01*
%TO.C,D23*%
X121514880Y91701785D02*
X120514880Y91701785D01*
X120514880Y91463690D01*
X120562500Y91320833D01*
X120657738Y91225595D01*
X120752976Y91177976D01*
X120943452Y91130357D01*
X121086309Y91130357D01*
X121276785Y91177976D01*
X121372023Y91225595D01*
X121467261Y91320833D01*
X121514880Y91463690D01*
X121514880Y91701785D01*
X120610119Y90749404D02*
X120562500Y90701785D01*
X120514880Y90606547D01*
X120514880Y90368452D01*
X120562500Y90273214D01*
X120610119Y90225595D01*
X120705357Y90177976D01*
X120800595Y90177976D01*
X120943452Y90225595D01*
X121514880Y90797023D01*
X121514880Y90177976D01*
X120514880Y89844642D02*
X120514880Y89225595D01*
X120895833Y89558928D01*
X120895833Y89416071D01*
X120943452Y89320833D01*
X120991071Y89273214D01*
X121086309Y89225595D01*
X121324404Y89225595D01*
X121419642Y89273214D01*
X121467261Y89320833D01*
X121514880Y89416071D01*
X121514880Y89701785D01*
X121467261Y89797023D01*
X121419642Y89844642D01*
%TO.C,D22*%
X126277380Y34551785D02*
X125277380Y34551785D01*
X125277380Y34313690D01*
X125325000Y34170833D01*
X125420238Y34075595D01*
X125515476Y34027976D01*
X125705952Y33980357D01*
X125848809Y33980357D01*
X126039285Y34027976D01*
X126134523Y34075595D01*
X126229761Y34170833D01*
X126277380Y34313690D01*
X126277380Y34551785D01*
X125372619Y33599404D02*
X125325000Y33551785D01*
X125277380Y33456547D01*
X125277380Y33218452D01*
X125325000Y33123214D01*
X125372619Y33075595D01*
X125467857Y33027976D01*
X125563095Y33027976D01*
X125705952Y33075595D01*
X126277380Y33647023D01*
X126277380Y33027976D01*
X125372619Y32647023D02*
X125325000Y32599404D01*
X125277380Y32504166D01*
X125277380Y32266071D01*
X125325000Y32170833D01*
X125372619Y32123214D01*
X125467857Y32075595D01*
X125563095Y32075595D01*
X125705952Y32123214D01*
X126277380Y32694642D01*
X126277380Y32075595D01*
%TO.C,D21*%
X116752380Y53601785D02*
X115752380Y53601785D01*
X115752380Y53363690D01*
X115800000Y53220833D01*
X115895238Y53125595D01*
X115990476Y53077976D01*
X116180952Y53030357D01*
X116323809Y53030357D01*
X116514285Y53077976D01*
X116609523Y53125595D01*
X116704761Y53220833D01*
X116752380Y53363690D01*
X116752380Y53601785D01*
X115847619Y52649404D02*
X115800000Y52601785D01*
X115752380Y52506547D01*
X115752380Y52268452D01*
X115800000Y52173214D01*
X115847619Y52125595D01*
X115942857Y52077976D01*
X116038095Y52077976D01*
X116180952Y52125595D01*
X116752380Y52697023D01*
X116752380Y52077976D01*
X116752380Y51125595D02*
X116752380Y51697023D01*
X116752380Y51411309D02*
X115752380Y51411309D01*
X115895238Y51506547D01*
X115990476Y51601785D01*
X116038095Y51697023D01*
%TO.C,D20*%
X111989880Y72651785D02*
X110989880Y72651785D01*
X110989880Y72413690D01*
X111037500Y72270833D01*
X111132738Y72175595D01*
X111227976Y72127976D01*
X111418452Y72080357D01*
X111561309Y72080357D01*
X111751785Y72127976D01*
X111847023Y72175595D01*
X111942261Y72270833D01*
X111989880Y72413690D01*
X111989880Y72651785D01*
X111085119Y71699404D02*
X111037500Y71651785D01*
X110989880Y71556547D01*
X110989880Y71318452D01*
X111037500Y71223214D01*
X111085119Y71175595D01*
X111180357Y71127976D01*
X111275595Y71127976D01*
X111418452Y71175595D01*
X111989880Y71747023D01*
X111989880Y71127976D01*
X110989880Y70508928D02*
X110989880Y70413690D01*
X111037500Y70318452D01*
X111085119Y70270833D01*
X111180357Y70223214D01*
X111370833Y70175595D01*
X111608928Y70175595D01*
X111799404Y70223214D01*
X111894642Y70270833D01*
X111942261Y70318452D01*
X111989880Y70413690D01*
X111989880Y70508928D01*
X111942261Y70604166D01*
X111894642Y70651785D01*
X111799404Y70699404D01*
X111608928Y70747023D01*
X111370833Y70747023D01*
X111180357Y70699404D01*
X111085119Y70651785D01*
X111037500Y70604166D01*
X110989880Y70508928D01*
%TO.C,D19*%
X102464880Y91701785D02*
X101464880Y91701785D01*
X101464880Y91463690D01*
X101512500Y91320833D01*
X101607738Y91225595D01*
X101702976Y91177976D01*
X101893452Y91130357D01*
X102036309Y91130357D01*
X102226785Y91177976D01*
X102322023Y91225595D01*
X102417261Y91320833D01*
X102464880Y91463690D01*
X102464880Y91701785D01*
X102464880Y90177976D02*
X102464880Y90749404D01*
X102464880Y90463690D02*
X101464880Y90463690D01*
X101607738Y90558928D01*
X101702976Y90654166D01*
X101750595Y90749404D01*
X102464880Y89701785D02*
X102464880Y89511309D01*
X102417261Y89416071D01*
X102369642Y89368452D01*
X102226785Y89273214D01*
X102036309Y89225595D01*
X101655357Y89225595D01*
X101560119Y89273214D01*
X101512500Y89320833D01*
X101464880Y89416071D01*
X101464880Y89606547D01*
X101512500Y89701785D01*
X101560119Y89749404D01*
X101655357Y89797023D01*
X101893452Y89797023D01*
X101988690Y89749404D01*
X102036309Y89701785D01*
X102083928Y89606547D01*
X102083928Y89416071D01*
X102036309Y89320833D01*
X101988690Y89273214D01*
X101893452Y89225595D01*
%TO.C,D18*%
X107227380Y34551785D02*
X106227380Y34551785D01*
X106227380Y34313690D01*
X106275000Y34170833D01*
X106370238Y34075595D01*
X106465476Y34027976D01*
X106655952Y33980357D01*
X106798809Y33980357D01*
X106989285Y34027976D01*
X107084523Y34075595D01*
X107179761Y34170833D01*
X107227380Y34313690D01*
X107227380Y34551785D01*
X107227380Y33027976D02*
X107227380Y33599404D01*
X107227380Y33313690D02*
X106227380Y33313690D01*
X106370238Y33408928D01*
X106465476Y33504166D01*
X106513095Y33599404D01*
X106655952Y32456547D02*
X106608333Y32551785D01*
X106560714Y32599404D01*
X106465476Y32647023D01*
X106417857Y32647023D01*
X106322619Y32599404D01*
X106275000Y32551785D01*
X106227380Y32456547D01*
X106227380Y32266071D01*
X106275000Y32170833D01*
X106322619Y32123214D01*
X106417857Y32075595D01*
X106465476Y32075595D01*
X106560714Y32123214D01*
X106608333Y32170833D01*
X106655952Y32266071D01*
X106655952Y32456547D01*
X106703571Y32551785D01*
X106751190Y32599404D01*
X106846428Y32647023D01*
X107036904Y32647023D01*
X107132142Y32599404D01*
X107179761Y32551785D01*
X107227380Y32456547D01*
X107227380Y32266071D01*
X107179761Y32170833D01*
X107132142Y32123214D01*
X107036904Y32075595D01*
X106846428Y32075595D01*
X106751190Y32123214D01*
X106703571Y32170833D01*
X106655952Y32266071D01*
%TO.C,D17*%
X97702380Y53601785D02*
X96702380Y53601785D01*
X96702380Y53363690D01*
X96750000Y53220833D01*
X96845238Y53125595D01*
X96940476Y53077976D01*
X97130952Y53030357D01*
X97273809Y53030357D01*
X97464285Y53077976D01*
X97559523Y53125595D01*
X97654761Y53220833D01*
X97702380Y53363690D01*
X97702380Y53601785D01*
X97702380Y52077976D02*
X97702380Y52649404D01*
X97702380Y52363690D02*
X96702380Y52363690D01*
X96845238Y52458928D01*
X96940476Y52554166D01*
X96988095Y52649404D01*
X96702380Y51744642D02*
X96702380Y51077976D01*
X97702380Y51506547D01*
%TO.C,D15*%
X83414880Y91701785D02*
X82414880Y91701785D01*
X82414880Y91463690D01*
X82462500Y91320833D01*
X82557738Y91225595D01*
X82652976Y91177976D01*
X82843452Y91130357D01*
X82986309Y91130357D01*
X83176785Y91177976D01*
X83272023Y91225595D01*
X83367261Y91320833D01*
X83414880Y91463690D01*
X83414880Y91701785D01*
X83414880Y90177976D02*
X83414880Y90749404D01*
X83414880Y90463690D02*
X82414880Y90463690D01*
X82557738Y90558928D01*
X82652976Y90654166D01*
X82700595Y90749404D01*
X82414880Y89273214D02*
X82414880Y89749404D01*
X82891071Y89797023D01*
X82843452Y89749404D01*
X82795833Y89654166D01*
X82795833Y89416071D01*
X82843452Y89320833D01*
X82891071Y89273214D01*
X82986309Y89225595D01*
X83224404Y89225595D01*
X83319642Y89273214D01*
X83367261Y89320833D01*
X83414880Y89416071D01*
X83414880Y89654166D01*
X83367261Y89749404D01*
X83319642Y89797023D01*
%TO.C,D14*%
X88177380Y34551785D02*
X87177380Y34551785D01*
X87177380Y34313690D01*
X87225000Y34170833D01*
X87320238Y34075595D01*
X87415476Y34027976D01*
X87605952Y33980357D01*
X87748809Y33980357D01*
X87939285Y34027976D01*
X88034523Y34075595D01*
X88129761Y34170833D01*
X88177380Y34313690D01*
X88177380Y34551785D01*
X88177380Y33027976D02*
X88177380Y33599404D01*
X88177380Y33313690D02*
X87177380Y33313690D01*
X87320238Y33408928D01*
X87415476Y33504166D01*
X87463095Y33599404D01*
X87510714Y32170833D02*
X88177380Y32170833D01*
X87129761Y32408928D02*
X87844047Y32647023D01*
X87844047Y32027976D01*
%TO.C,D13*%
X78652380Y53601785D02*
X77652380Y53601785D01*
X77652380Y53363690D01*
X77700000Y53220833D01*
X77795238Y53125595D01*
X77890476Y53077976D01*
X78080952Y53030357D01*
X78223809Y53030357D01*
X78414285Y53077976D01*
X78509523Y53125595D01*
X78604761Y53220833D01*
X78652380Y53363690D01*
X78652380Y53601785D01*
X78652380Y52077976D02*
X78652380Y52649404D01*
X78652380Y52363690D02*
X77652380Y52363690D01*
X77795238Y52458928D01*
X77890476Y52554166D01*
X77938095Y52649404D01*
X77652380Y51744642D02*
X77652380Y51125595D01*
X78033333Y51458928D01*
X78033333Y51316071D01*
X78080952Y51220833D01*
X78128571Y51173214D01*
X78223809Y51125595D01*
X78461904Y51125595D01*
X78557142Y51173214D01*
X78604761Y51220833D01*
X78652380Y51316071D01*
X78652380Y51601785D01*
X78604761Y51697023D01*
X78557142Y51744642D01*
%TO.C,D12*%
X73889880Y72651785D02*
X72889880Y72651785D01*
X72889880Y72413690D01*
X72937500Y72270833D01*
X73032738Y72175595D01*
X73127976Y72127976D01*
X73318452Y72080357D01*
X73461309Y72080357D01*
X73651785Y72127976D01*
X73747023Y72175595D01*
X73842261Y72270833D01*
X73889880Y72413690D01*
X73889880Y72651785D01*
X73889880Y71127976D02*
X73889880Y71699404D01*
X73889880Y71413690D02*
X72889880Y71413690D01*
X73032738Y71508928D01*
X73127976Y71604166D01*
X73175595Y71699404D01*
X72985119Y70747023D02*
X72937500Y70699404D01*
X72889880Y70604166D01*
X72889880Y70366071D01*
X72937500Y70270833D01*
X72985119Y70223214D01*
X73080357Y70175595D01*
X73175595Y70175595D01*
X73318452Y70223214D01*
X73889880Y70794642D01*
X73889880Y70175595D01*
%TO.C,D11*%
X64364880Y91701785D02*
X63364880Y91701785D01*
X63364880Y91463690D01*
X63412500Y91320833D01*
X63507738Y91225595D01*
X63602976Y91177976D01*
X63793452Y91130357D01*
X63936309Y91130357D01*
X64126785Y91177976D01*
X64222023Y91225595D01*
X64317261Y91320833D01*
X64364880Y91463690D01*
X64364880Y91701785D01*
X64364880Y90177976D02*
X64364880Y90749404D01*
X64364880Y90463690D02*
X63364880Y90463690D01*
X63507738Y90558928D01*
X63602976Y90654166D01*
X63650595Y90749404D01*
X64364880Y89225595D02*
X64364880Y89797023D01*
X64364880Y89511309D02*
X63364880Y89511309D01*
X63507738Y89606547D01*
X63602976Y89701785D01*
X63650595Y89797023D01*
%TO.C,D10*%
X78652380Y15501785D02*
X77652380Y15501785D01*
X77652380Y15263690D01*
X77700000Y15120833D01*
X77795238Y15025595D01*
X77890476Y14977976D01*
X78080952Y14930357D01*
X78223809Y14930357D01*
X78414285Y14977976D01*
X78509523Y15025595D01*
X78604761Y15120833D01*
X78652380Y15263690D01*
X78652380Y15501785D01*
X78652380Y13977976D02*
X78652380Y14549404D01*
X78652380Y14263690D02*
X77652380Y14263690D01*
X77795238Y14358928D01*
X77890476Y14454166D01*
X77938095Y14549404D01*
X77652380Y13358928D02*
X77652380Y13263690D01*
X77700000Y13168452D01*
X77747619Y13120833D01*
X77842857Y13073214D01*
X78033333Y13025595D01*
X78271428Y13025595D01*
X78461904Y13073214D01*
X78557142Y13120833D01*
X78604761Y13168452D01*
X78652380Y13263690D01*
X78652380Y13358928D01*
X78604761Y13454166D01*
X78557142Y13501785D01*
X78461904Y13549404D01*
X78271428Y13597023D01*
X78033333Y13597023D01*
X77842857Y13549404D01*
X77747619Y13501785D01*
X77700000Y13454166D01*
X77652380Y13358928D01*
%TO.C,D9*%
X69127380Y34075595D02*
X68127380Y34075595D01*
X68127380Y33837500D01*
X68175000Y33694642D01*
X68270238Y33599404D01*
X68365476Y33551785D01*
X68555952Y33504166D01*
X68698809Y33504166D01*
X68889285Y33551785D01*
X68984523Y33599404D01*
X69079761Y33694642D01*
X69127380Y33837500D01*
X69127380Y34075595D01*
X69127380Y33027976D02*
X69127380Y32837500D01*
X69079761Y32742261D01*
X69032142Y32694642D01*
X68889285Y32599404D01*
X68698809Y32551785D01*
X68317857Y32551785D01*
X68222619Y32599404D01*
X68175000Y32647023D01*
X68127380Y32742261D01*
X68127380Y32932738D01*
X68175000Y33027976D01*
X68222619Y33075595D01*
X68317857Y33123214D01*
X68555952Y33123214D01*
X68651190Y33075595D01*
X68698809Y33027976D01*
X68746428Y32932738D01*
X68746428Y32742261D01*
X68698809Y32647023D01*
X68651190Y32599404D01*
X68555952Y32551785D01*
%TO.C,D8*%
X59602380Y53125595D02*
X58602380Y53125595D01*
X58602380Y52887500D01*
X58650000Y52744642D01*
X58745238Y52649404D01*
X58840476Y52601785D01*
X59030952Y52554166D01*
X59173809Y52554166D01*
X59364285Y52601785D01*
X59459523Y52649404D01*
X59554761Y52744642D01*
X59602380Y52887500D01*
X59602380Y53125595D01*
X59030952Y51982738D02*
X58983333Y52077976D01*
X58935714Y52125595D01*
X58840476Y52173214D01*
X58792857Y52173214D01*
X58697619Y52125595D01*
X58650000Y52077976D01*
X58602380Y51982738D01*
X58602380Y51792261D01*
X58650000Y51697023D01*
X58697619Y51649404D01*
X58792857Y51601785D01*
X58840476Y51601785D01*
X58935714Y51649404D01*
X58983333Y51697023D01*
X59030952Y51792261D01*
X59030952Y51982738D01*
X59078571Y52077976D01*
X59126190Y52125595D01*
X59221428Y52173214D01*
X59411904Y52173214D01*
X59507142Y52125595D01*
X59554761Y52077976D01*
X59602380Y51982738D01*
X59602380Y51792261D01*
X59554761Y51697023D01*
X59507142Y51649404D01*
X59411904Y51601785D01*
X59221428Y51601785D01*
X59126190Y51649404D01*
X59078571Y51697023D01*
X59030952Y51792261D01*
%TO.C,D7*%
X54839880Y72175595D02*
X53839880Y72175595D01*
X53839880Y71937500D01*
X53887500Y71794642D01*
X53982738Y71699404D01*
X54077976Y71651785D01*
X54268452Y71604166D01*
X54411309Y71604166D01*
X54601785Y71651785D01*
X54697023Y71699404D01*
X54792261Y71794642D01*
X54839880Y71937500D01*
X54839880Y72175595D01*
X53839880Y71270833D02*
X53839880Y70604166D01*
X54839880Y71032738D01*
%TO.C,D6*%
X45314880Y91225595D02*
X44314880Y91225595D01*
X44314880Y90987500D01*
X44362500Y90844642D01*
X44457738Y90749404D01*
X44552976Y90701785D01*
X44743452Y90654166D01*
X44886309Y90654166D01*
X45076785Y90701785D01*
X45172023Y90749404D01*
X45267261Y90844642D01*
X45314880Y90987500D01*
X45314880Y91225595D01*
X44314880Y89797023D02*
X44314880Y89987500D01*
X44362500Y90082738D01*
X44410119Y90130357D01*
X44552976Y90225595D01*
X44743452Y90273214D01*
X45124404Y90273214D01*
X45219642Y90225595D01*
X45267261Y90177976D01*
X45314880Y90082738D01*
X45314880Y89892261D01*
X45267261Y89797023D01*
X45219642Y89749404D01*
X45124404Y89701785D01*
X44886309Y89701785D01*
X44791071Y89749404D01*
X44743452Y89797023D01*
X44695833Y89892261D01*
X44695833Y90082738D01*
X44743452Y90177976D01*
X44791071Y90225595D01*
X44886309Y90273214D01*
%TO.C,D5*%
X54839880Y15025595D02*
X53839880Y15025595D01*
X53839880Y14787500D01*
X53887500Y14644642D01*
X53982738Y14549404D01*
X54077976Y14501785D01*
X54268452Y14454166D01*
X54411309Y14454166D01*
X54601785Y14501785D01*
X54697023Y14549404D01*
X54792261Y14644642D01*
X54839880Y14787500D01*
X54839880Y15025595D01*
X53839880Y13549404D02*
X53839880Y14025595D01*
X54316071Y14073214D01*
X54268452Y14025595D01*
X54220833Y13930357D01*
X54220833Y13692261D01*
X54268452Y13597023D01*
X54316071Y13549404D01*
X54411309Y13501785D01*
X54649404Y13501785D01*
X54744642Y13549404D01*
X54792261Y13597023D01*
X54839880Y13692261D01*
X54839880Y13930357D01*
X54792261Y14025595D01*
X54744642Y14073214D01*
%TO.C,D4*%
X38171130Y34075595D02*
X37171130Y34075595D01*
X37171130Y33837500D01*
X37218750Y33694642D01*
X37313988Y33599404D01*
X37409226Y33551785D01*
X37599702Y33504166D01*
X37742559Y33504166D01*
X37933035Y33551785D01*
X38028273Y33599404D01*
X38123511Y33694642D01*
X38171130Y33837500D01*
X38171130Y34075595D01*
X37504464Y32647023D02*
X38171130Y32647023D01*
X37123511Y32885119D02*
X37837797Y33123214D01*
X37837797Y32504166D01*
%TO.C,D3*%
X33408630Y53125595D02*
X32408630Y53125595D01*
X32408630Y52887500D01*
X32456250Y52744642D01*
X32551488Y52649404D01*
X32646726Y52601785D01*
X32837202Y52554166D01*
X32980059Y52554166D01*
X33170535Y52601785D01*
X33265773Y52649404D01*
X33361011Y52744642D01*
X33408630Y52887500D01*
X33408630Y53125595D01*
X32408630Y52220833D02*
X32408630Y51601785D01*
X32789583Y51935119D01*
X32789583Y51792261D01*
X32837202Y51697023D01*
X32884821Y51649404D01*
X32980059Y51601785D01*
X33218154Y51601785D01*
X33313392Y51649404D01*
X33361011Y51697023D01*
X33408630Y51792261D01*
X33408630Y52077976D01*
X33361011Y52173214D01*
X33313392Y52220833D01*
%TO.C,D2*%
X31027380Y72175595D02*
X30027380Y72175595D01*
X30027380Y71937500D01*
X30075000Y71794642D01*
X30170238Y71699404D01*
X30265476Y71651785D01*
X30455952Y71604166D01*
X30598809Y71604166D01*
X30789285Y71651785D01*
X30884523Y71699404D01*
X30979761Y71794642D01*
X31027380Y71937500D01*
X31027380Y72175595D01*
X30122619Y71223214D02*
X30075000Y71175595D01*
X30027380Y71080357D01*
X30027380Y70842261D01*
X30075000Y70747023D01*
X30122619Y70699404D01*
X30217857Y70651785D01*
X30313095Y70651785D01*
X30455952Y70699404D01*
X31027380Y71270833D01*
X31027380Y70651785D01*
%TO.C,D1*%
X26264880Y91225595D02*
X25264880Y91225595D01*
X25264880Y90987500D01*
X25312500Y90844642D01*
X25407738Y90749404D01*
X25502976Y90701785D01*
X25693452Y90654166D01*
X25836309Y90654166D01*
X26026785Y90701785D01*
X26122023Y90749404D01*
X26217261Y90844642D01*
X26264880Y90987500D01*
X26264880Y91225595D01*
X26264880Y89701785D02*
X26264880Y90273214D01*
X26264880Y89987500D02*
X25264880Y89987500D01*
X25407738Y90082738D01*
X25502976Y90177976D01*
X25550595Y90273214D01*
%TD*%
M02*
