M48
; DRILL file {KiCad (5.1.6)-1} date 09/28/20 13:00:58
; FORMAT={-:-/ absolute / metric / decimal}
; #@! TF.CreationDate,2020-09-28T13:00:58+07:00
; #@! TF.GenerationSoftware,Kicad,Pcbnew,(5.1.6)-1
; #@! TF.FileFunction,NonPlated,1,2,NPTH
FMAT,2
METRIC
T1C0.650
T2C1.750
T3C3.048
T4C3.988
%
G90
G05
T1
X25.7Y100.505
X31.48Y100.505
T2
X75.882Y38.1
X86.042Y38.1
X66.358Y19.05
X76.517Y19.05
X152.082Y38.1
X162.243Y38.1
X237.807Y57.15
X247.968Y57.15
X185.42Y95.25
X195.58Y95.25
X190.183Y38.1
X200.343Y38.1
X142.558Y57.15
X152.718Y57.15
X252.095Y76.2
X262.255Y76.2
X25.876Y38.1
X36.036Y38.1
X113.983Y38.1
X124.142Y38.1
X47.307Y57.15
X57.467Y57.15
X104.457Y57.15
X114.617Y57.15
X161.607Y57.15
X171.767Y57.15
X199.707Y57.15
X209.867Y57.15
X171.132Y38.1
X181.292Y38.1
X80.645Y76.2
X90.805Y76.2
X213.995Y76.2
X224.155Y76.2
X13.97Y95.25
X24.13Y95.25
X275.907Y76.2
X286.067Y76.2
X242.57Y95.25
X252.73Y95.25
X21.114Y57.15
X31.274Y57.15
X123.507Y57.15
X133.667Y57.15
X109.22Y95.25
X119.38Y95.25
X99.695Y76.2
X109.855Y76.2
X180.657Y57.15
X190.817Y57.15
X166.37Y95.25
X176.53Y95.25
X218.757Y57.15
X228.917Y57.15
X280.67Y38.1
X290.83Y38.1
X137.795Y76.2
X147.955Y76.2
X56.832Y38.1
X66.992Y38.1
X128.27Y95.25
X138.43Y95.25
X71.12Y95.25
X81.28Y95.25
X42.545Y19.05
X52.705Y19.05
X209.232Y38.1
X219.392Y38.1
X175.895Y76.2
X186.055Y76.2
X33.02Y95.25
X43.18Y95.25
X137.795Y19.05
X147.955Y19.05
X118.745Y76.2
X128.905Y76.2
X133.032Y38.1
X143.192Y38.1
X90.17Y95.25
X100.33Y95.25
X18.732Y76.2
X28.892Y76.2
X209.232Y19.05
X219.392Y19.05
X233.045Y76.2
X243.205Y76.2
X94.932Y38.1
X105.093Y38.1
X16.351Y57.15
X26.511Y57.15
X52.07Y95.25
X62.23Y95.25
X156.845Y76.2
X167.005Y76.2
X42.545Y76.2
X52.705Y76.2
X147.32Y95.25
X157.48Y95.25
X228.282Y38.1
X238.442Y38.1
X204.47Y95.25
X214.63Y95.25
X85.407Y57.15
X95.567Y57.15
X66.358Y57.15
X76.517Y57.15
X61.595Y76.2
X71.755Y76.2
X233.045Y19.05
X243.205Y19.05
X223.52Y95.25
X233.68Y95.25
X261.62Y95.25
X271.78Y95.25
X194.945Y76.2
X205.105Y76.2
X280.67Y95.25
X290.83Y95.25
X254.476Y38.1
X264.636Y38.1
X268.764Y57.15
X278.924Y57.15
T3
X261.906Y64.135
X285.782Y64.135
X19.018Y45.085
X42.894Y45.085
X85.725Y12.065
X180.975Y12.065
T4
X52.387Y57.15
X109.537Y57.15
X166.688Y57.15
X204.787Y57.15
X176.213Y38.1
X85.725Y76.2
X219.075Y76.2
X19.05Y95.25
X280.988Y76.2
X247.65Y95.25
X26.194Y57.15
X128.588Y57.15
X114.3Y95.25
X104.775Y76.2
X185.737Y57.15
X171.45Y95.25
X223.837Y57.15
X285.75Y38.1
X142.875Y76.2
X61.912Y38.1
X133.35Y95.25
X76.2Y95.25
X47.625Y19.05
X214.312Y38.1
X180.975Y76.2
X38.1Y95.25
X85.725Y27.305
X142.875Y19.05
X180.975Y27.305
X123.825Y76.2
X138.112Y38.1
X95.25Y95.25
X23.812Y76.2
X214.312Y19.05
X238.125Y76.2
X100.012Y38.1
X21.431Y57.15
X57.15Y95.25
X161.925Y76.2
X47.625Y76.2
X152.4Y95.25
X233.362Y38.1
X209.55Y95.25
X90.487Y57.15
X71.438Y57.15
X66.675Y76.2
X238.125Y19.05
X228.6Y95.25
X266.7Y95.25
X200.025Y76.2
X285.75Y95.25
X259.556Y38.1
X261.906Y48.895
X273.844Y57.15
X285.782Y48.895
X80.962Y38.1
X71.438Y19.05
X157.162Y38.1
X242.887Y57.15
X190.5Y95.25
X195.262Y38.1
X147.637Y57.15
X257.175Y76.2
X19.018Y29.845
X30.956Y38.1
X42.894Y29.845
X119.062Y38.1
T0
M30
