%TF.GenerationSoftware,KiCad,Pcbnew,(5.1.6)-1*%
%TF.CreationDate,2020-09-28T13:00:59+07:00*%
%TF.ProjectId,HHKR,48484b52-2e6b-4696-9361-645f70636258,rev?*%
%TF.SameCoordinates,Original*%
%TF.FileFunction,Soldermask,Top*%
%TF.FilePolarity,Negative*%
%FSLAX46Y46*%
G04 Gerber Fmt 4.6, Leading zero omitted, Abs format (unit mm)*
G04 Created by KiCad (PCBNEW (5.1.6)-1) date 2020-09-28 13:00:59*
%MOMM*%
%LPD*%
G01*
G04 APERTURE LIST*
%ADD10C,1.850000*%
%ADD11C,4.087800*%
%ADD12C,7.100240*%
%ADD13O,10.099980X5.101260*%
%ADD14C,3.600000*%
%ADD15C,3.148000*%
%ADD16C,0.750000*%
%ADD17O,1.100000X2.200000*%
%ADD18O,1.100000X1.700000*%
%ADD19C,2.100000*%
%ADD20R,2.100000X3.300000*%
%ADD21R,2.100000X2.100000*%
%ADD22O,1.800000X1.800000*%
%ADD23R,1.800000X1.800000*%
G04 APERTURE END LIST*
D10*
%TO.C,MX60*%
X286067500Y76200000D03*
X275907500Y76200000D03*
D11*
X280987500Y76200000D03*
%TD*%
D10*
%TO.C,MX30*%
X152717500Y57150000D03*
X142557500Y57150000D03*
D11*
X147637500Y57150000D03*
%TD*%
D12*
%TO.C,H6*%
X138250000Y57250000D03*
%TD*%
%TO.C,H5*%
X200550000Y19050000D03*
%TD*%
%TO.C,H4*%
X270100000Y76350000D03*
%TD*%
D13*
%TO.C,H3*%
X295050000Y47750000D03*
%TD*%
%TO.C,H2*%
X10050000Y47750000D03*
%TD*%
D14*
%TO.C,H1*%
X35250000Y76350000D03*
%TD*%
D10*
%TO.C,MX27*%
X137795000Y19050000D03*
X147955000Y19050000D03*
D11*
X142875000Y19050000D03*
D15*
X85725000Y12065000D03*
X180975000Y12065000D03*
D11*
X85725000Y27305000D03*
X180975000Y27305000D03*
%TD*%
D10*
%TO.C,MX22*%
X124142500Y38100000D03*
X113982500Y38100000D03*
D11*
X119062500Y38100000D03*
%TD*%
%TO.C,MX61*%
X21431250Y57150000D03*
D10*
X16351250Y57150000D03*
X26511250Y57150000D03*
%TD*%
D11*
%TO.C,MX3*%
X26193750Y57150000D03*
D10*
X21113750Y57150000D03*
X31273750Y57150000D03*
%TD*%
%TO.C,MX4*%
X25876250Y38100000D03*
D11*
X30956250Y38100000D03*
D10*
X36036250Y38100000D03*
D11*
X19018250Y29845000D03*
X42894250Y29845000D03*
D15*
X19018250Y45085000D03*
X42894250Y45085000D03*
%TD*%
D10*
%TO.C,MX56*%
X268763750Y57150000D03*
D11*
X273843750Y57150000D03*
D10*
X278923750Y57150000D03*
D11*
X261905750Y48895000D03*
X285781750Y48895000D03*
D15*
X261905750Y64135000D03*
X285781750Y64135000D03*
%TD*%
D11*
%TO.C,MX6*%
X38100000Y95250000D03*
D10*
X33020000Y95250000D03*
X43180000Y95250000D03*
%TD*%
D11*
%TO.C,MX1*%
X19050000Y95250000D03*
D10*
X13970000Y95250000D03*
X24130000Y95250000D03*
%TD*%
%TO.C,MX18*%
X105092500Y38100000D03*
X94932500Y38100000D03*
D11*
X100012500Y38100000D03*
%TD*%
D10*
%TO.C,MX17*%
X95567500Y57150000D03*
X85407500Y57150000D03*
D11*
X90487500Y57150000D03*
%TD*%
D10*
%TO.C,MX16*%
X90805000Y76200000D03*
X80645000Y76200000D03*
D11*
X85725000Y76200000D03*
%TD*%
D16*
%TO.C,USB1*%
X31480000Y100505000D03*
X25700000Y100505000D03*
D17*
X24270000Y99975000D03*
X32910000Y99975000D03*
D18*
X24270000Y104155000D03*
X32910000Y104155000D03*
%TD*%
D19*
%TO.C,SWE1*%
X288368750Y102250000D03*
X283368750Y102250000D03*
D20*
X291468750Y95250000D03*
X280268750Y95250000D03*
D19*
X288368750Y87750000D03*
X285868750Y87750000D03*
D21*
X283368750Y87750000D03*
%TD*%
D22*
%TO.C,J1*%
X248820000Y22860000D03*
X248820000Y20320000D03*
X248820000Y17780000D03*
D23*
X248820000Y15240000D03*
%TD*%
D10*
%TO.C,MX59*%
X290830000Y95250000D03*
X280670000Y95250000D03*
D11*
X285750000Y95250000D03*
%TD*%
D10*
%TO.C,MX58*%
X271780000Y95250000D03*
X261620000Y95250000D03*
D11*
X266700000Y95250000D03*
%TD*%
D10*
%TO.C,MX57*%
X290830000Y38100000D03*
X280670000Y38100000D03*
D11*
X285750000Y38100000D03*
%TD*%
D10*
%TO.C,MX55*%
X262255000Y76200000D03*
X252095000Y76200000D03*
D11*
X257175000Y76200000D03*
%TD*%
D10*
%TO.C,MX54*%
X252730000Y95250000D03*
X242570000Y95250000D03*
D11*
X247650000Y95250000D03*
%TD*%
D10*
%TO.C,MX53*%
X264636250Y38100000D03*
X254476250Y38100000D03*
D11*
X259556250Y38100000D03*
%TD*%
D10*
%TO.C,MX52*%
X247967500Y57150000D03*
X237807500Y57150000D03*
D11*
X242887500Y57150000D03*
%TD*%
D10*
%TO.C,MX51*%
X243205000Y76200000D03*
X233045000Y76200000D03*
D11*
X238125000Y76200000D03*
%TD*%
D10*
%TO.C,MX50*%
X233680000Y95250000D03*
X223520000Y95250000D03*
D11*
X228600000Y95250000D03*
%TD*%
D10*
%TO.C,MX49*%
X243205000Y19050000D03*
X233045000Y19050000D03*
D11*
X238125000Y19050000D03*
%TD*%
D10*
%TO.C,MX48*%
X238442500Y38100000D03*
X228282500Y38100000D03*
D11*
X233362500Y38100000D03*
%TD*%
D10*
%TO.C,MX47*%
X228917500Y57150000D03*
X218757500Y57150000D03*
D11*
X223837500Y57150000D03*
%TD*%
D10*
%TO.C,MX46*%
X224155000Y76200000D03*
X213995000Y76200000D03*
D11*
X219075000Y76200000D03*
%TD*%
D10*
%TO.C,MX45*%
X214630000Y95250000D03*
X204470000Y95250000D03*
D11*
X209550000Y95250000D03*
%TD*%
D10*
%TO.C,MX44*%
X219392500Y19050000D03*
X209232500Y19050000D03*
D11*
X214312500Y19050000D03*
%TD*%
D10*
%TO.C,MX43*%
X219392500Y38100000D03*
X209232500Y38100000D03*
D11*
X214312500Y38100000D03*
%TD*%
D10*
%TO.C,MX42*%
X209867500Y57150000D03*
X199707500Y57150000D03*
D11*
X204787500Y57150000D03*
%TD*%
D10*
%TO.C,MX41*%
X205105000Y76200000D03*
X194945000Y76200000D03*
D11*
X200025000Y76200000D03*
%TD*%
D10*
%TO.C,MX40*%
X195580000Y95250000D03*
X185420000Y95250000D03*
D11*
X190500000Y95250000D03*
%TD*%
D10*
%TO.C,MX39*%
X200342500Y38100000D03*
X190182500Y38100000D03*
D11*
X195262500Y38100000D03*
%TD*%
D10*
%TO.C,MX38*%
X190817500Y57150000D03*
X180657500Y57150000D03*
D11*
X185737500Y57150000D03*
%TD*%
D10*
%TO.C,MX37*%
X186055000Y76200000D03*
X175895000Y76200000D03*
D11*
X180975000Y76200000D03*
%TD*%
D10*
%TO.C,MX36*%
X176530000Y95250000D03*
X166370000Y95250000D03*
D11*
X171450000Y95250000D03*
%TD*%
D10*
%TO.C,MX35*%
X181292500Y38100000D03*
X171132500Y38100000D03*
D11*
X176212500Y38100000D03*
%TD*%
D10*
%TO.C,MX34*%
X171767500Y57150000D03*
X161607500Y57150000D03*
D11*
X166687500Y57150000D03*
%TD*%
D10*
%TO.C,MX33*%
X167005000Y76200000D03*
X156845000Y76200000D03*
D11*
X161925000Y76200000D03*
%TD*%
D10*
%TO.C,MX32*%
X157480000Y95250000D03*
X147320000Y95250000D03*
D11*
X152400000Y95250000D03*
%TD*%
D10*
%TO.C,MX31*%
X162242500Y38100000D03*
X152082500Y38100000D03*
D11*
X157162500Y38100000D03*
%TD*%
D10*
%TO.C,MX29*%
X147955000Y76200000D03*
X137795000Y76200000D03*
D11*
X142875000Y76200000D03*
%TD*%
D10*
%TO.C,MX28*%
X138430000Y95250000D03*
X128270000Y95250000D03*
D11*
X133350000Y95250000D03*
%TD*%
D10*
%TO.C,MX26*%
X143192500Y38100000D03*
X133032500Y38100000D03*
D11*
X138112500Y38100000D03*
%TD*%
D10*
%TO.C,MX25*%
X133667500Y57150000D03*
X123507500Y57150000D03*
D11*
X128587500Y57150000D03*
%TD*%
D10*
%TO.C,MX24*%
X128905000Y76200000D03*
X118745000Y76200000D03*
D11*
X123825000Y76200000D03*
%TD*%
D10*
%TO.C,MX23*%
X119380000Y95250000D03*
X109220000Y95250000D03*
D11*
X114300000Y95250000D03*
%TD*%
D10*
%TO.C,MX21*%
X114617500Y57150000D03*
X104457500Y57150000D03*
D11*
X109537500Y57150000D03*
%TD*%
D10*
%TO.C,MX20*%
X109855000Y76200000D03*
X99695000Y76200000D03*
D11*
X104775000Y76200000D03*
%TD*%
D10*
%TO.C,MX19*%
X100330000Y95250000D03*
X90170000Y95250000D03*
D11*
X95250000Y95250000D03*
%TD*%
D10*
%TO.C,MX15*%
X81280000Y95250000D03*
X71120000Y95250000D03*
D11*
X76200000Y95250000D03*
%TD*%
D10*
%TO.C,MX14*%
X86042500Y38100000D03*
X75882500Y38100000D03*
D11*
X80962500Y38100000D03*
%TD*%
D10*
%TO.C,MX13*%
X76517500Y57150000D03*
X66357500Y57150000D03*
D11*
X71437500Y57150000D03*
%TD*%
D10*
%TO.C,MX12*%
X71755000Y76200000D03*
X61595000Y76200000D03*
D11*
X66675000Y76200000D03*
%TD*%
D10*
%TO.C,MX11*%
X62230000Y95250000D03*
X52070000Y95250000D03*
D11*
X57150000Y95250000D03*
%TD*%
D10*
%TO.C,MX10*%
X76517500Y19050000D03*
X66357500Y19050000D03*
D11*
X71437500Y19050000D03*
%TD*%
D10*
%TO.C,MX9*%
X66992500Y38100000D03*
X56832500Y38100000D03*
D11*
X61912500Y38100000D03*
%TD*%
D10*
%TO.C,MX8*%
X57467500Y57150000D03*
X47307500Y57150000D03*
D11*
X52387500Y57150000D03*
%TD*%
D10*
%TO.C,MX7*%
X52705000Y76200000D03*
X42545000Y76200000D03*
D11*
X47625000Y76200000D03*
%TD*%
D10*
%TO.C,MX5*%
X52705000Y19050000D03*
X42545000Y19050000D03*
D11*
X47625000Y19050000D03*
%TD*%
D10*
%TO.C,MX2*%
X28892500Y76200000D03*
X18732500Y76200000D03*
D11*
X23812500Y76200000D03*
%TD*%
M02*
