999
dxfrw 0.6.3
  0
SECTION
  2
HEADER
  9
$ACADVER
  1
AC1021
  9
$DWGCODEPAGE
  3
ANSI_1252
  9
$INSBASE
 10
0
 20
0
 30
0
  9
$EXTMIN
 10
0
 20
0
 30
0
  9
$EXTMAX
 10
294.7500000002093
 20
108.6499999997907
 30
0
  9
$LIMMIN
 10
0
 20
0
  9
$LIMMAX
 10
12
 20
9
  9
$ORTHOMODE
 70
    0
  9
$REGENMODE
 70
    1
  9
$FILLMODE
 70
    1
  9
$QTEXTMODE
 70
    0
  9
$MIRRTEXT
 70
    0
  9
$LTSCALE
 40
1
  9
$ATTMODE
 70
    1
  9
$TEXTSIZE
 40
0.2
  9
$TRACEWID
 40
0.05
  9
$TEXTSTYLE
  7
Notes
  9
$CLAYER
  8
0
  9
$CELTYPE
  6
ByLayer
  9
$CECOLOR
 62
  256
  9
$CELTSCALE
 40
1
  9
$DISPSILH
 70
    0
  9
$DIMSCALE
 40
1
  9
$DIMASZ
 40
3
  9
$DIMEXO
 40
1.5
  9
$DIMDLI
 40
6
  9
$DIMRND
 40
0
  9
$DIMDLE
 40
0
  9
$DIMEXE
 40
3
  9
$DIMTP
 40
0
  9
$DIMTM
 40
0
  9
$DIMTXT
 40
3
  9
$DIMCEN
 40
3
  9
$DIMTSZ
 40
0
  9
$DIMTOL
 70
    0
  9
$DIMLIM
 70
    0
  9
$DIMTIH
 70
    0
  9
$DIMTOH
 70
    0
  9
$DIMSE1
 70
    0
  9
$DIMSE2
 70
    0
  9
$DIMTAD
 70
    1
  9
$DIMZIN
 70
    3
  9
$DIMBLK
  1

  9
$DIMASO
 70
    1
  9
$DIMSHO
 70
    1
  9
$DIMPOST
  1

  9
$DIMAPOST
  1

  9
$DIMALT
 70
    0
  9
$DIMALTD
 70
    2
  9
$DIMALTF
 40
25.4
  9
$DIMLFAC
 40
1
  9
$DIMTOFL
 70
    0
  9
$DIMTVP
 40
0
  9
$DIMTIX
 70
    0
  9
$DIMSOXD
 70
    0
  9
$DIMSAH
 70
    0
  9
$DIMBLK1
  1

  9
$DIMBLK2
  1

  9
$DIMSTYLE
  2
Civil-Metric
  9
$DIMCLRD
 70
    0
  9
$DIMCLRE
 70
    0
  9
$DIMCLRT
 70
    0
  9
$DIMTFAC
 40
1
  9
$DIMGAP
 40
2
  9
$DIMJUST
 70
    0
  9
$DIMSD1
 70
    0
  9
$DIMSD2
 70
    0
  9
$DIMTOLJ
 70
    1
  9
$DIMTZIN
 70
    0
  9
$DIMALTZ
 70
    0
  9
$DIMALTTZ
 70
    0
  9
$DIMUPT
 70
    0
  9
$DIMDEC
 70
    2
  9
$DIMTDEC
 70
    2
  9
$DIMALTU
 70
    2
  9
$DIMALTTD
 70
    2
  9
$DIMTXSTY
  7
Standard
  9
$DIMAUNIT
 70
    0
  9
$DIMADEC
 70
    2
  9
$DIMALTRND
 40
0
  9
$DIMAZIN
 70
    2
  9
$DIMDSEP
 70
   46
  9
$DIMATFIT
 70
    3
  9
$DIMFRAC
 70
    1
  9
$DIMLDRBLK
  1

  9
$DIMLUNIT
 70
    2
  9
$DIMLWD
 70
   -2
  9
$DIMLWE
 70
   -2
  9
$DIMTMOVE
 70
    0
  9
$DIMFXL
 40
1
  9
$DIMFXLON
 70
    0
  9
$DIMJOGANG
 40
0.7853981633974483
  9
$DIMTFILL
 70
    0
  9
$DIMTFILLCLR
 70
    0
  9
$DIMARCSYM
 70
    0
  9
$DIMLTYPE
  6

  9
$DIMLTEX1
  6

  9
$DIMLTEX2
  6

  9
$LUNITS
 70
    2
  9
$LUPREC
 70
    4
  9
$SKETCHINC
 40
0.1
  9
$FILLETRAD
 40
0
  9
$AUNITS
 70
    4
  9
$AUPREC
 70
    5
  9
$MENU
  1
.
  9
$ELEVATION
 40
0
  9
$PELEVATION
 40
0
  9
$THICKNESS
 40
0
  9
$LIMCHECK
 70
    0
  9
$CHAMFERA
 40
0
  9
$CHAMFERB
 40
0
  9
$CHAMFERC
 40
0
  9
$CHAMFERD
 40
0
  9
$SKPOLY
 70
    0
  9
$USRTIMER
 70
    1
  9
$ANGBASE
 50
0
  9
$ANGDIR
 70
    0
  9
$PDMODE
 70
    0
  9
$PDSIZE
 40
0
  9
$PLINEWID
 40
0
  9
$SPLFRAME
 70
    0
  9
$SPLINETYPE
 70
    6
  9
$SPLINESEGS
 70
    8
  9
$HANDSEED
  5
20000
  9
$SURFTAB1
 70
    6
  9
$SURFTAB2
 70
    6
  9
$SURFTYPE
 70
    6
  9
$SURFU
 70
    6
  9
$SURFV
 70
    6
  9
$UCSBASE
  2

  9
$UCSNAME
  2

  9
$UCSORG
 10
0
 20
0
 30
0
  9
$UCSXDIR
 10
1
 20
0
 30
0
  9
$UCSYDIR
 10
0
 20
1
 30
0
  9
$UCSORTHOREF
  2

  9
$UCSORTHOVIEW
 70
    0
  9
$UCSORGTOP
 10
0
 20
0
 30
0
  9
$UCSORGBOTTOM
 10
0
 20
0
 30
0
  9
$UCSORGLEFT
 10
0
 20
0
 30
0
  9
$UCSORGRIGHT
 10
0
 20
0
 30
0
  9
$UCSORGFRONT
 10
0
 20
0
 30
0
  9
$UCSORGBACK
 10
0
 20
0
 30
0
  9
$PUCSBASE
  2

  9
$PUCSNAME
  2

  9
$PUCSORG
 10
0
 20
0
 30
0
  9
$PUCSXDIR
 10
1
 20
0
 30
0
  9
$PUCSYDIR
 10
0
 20
1
 30
0
  9
$PUCSORTHOREF
  2

  9
$PUCSORTHOVIEW
 70
    0
  9
$PUCSORGTOP
 10
0
 20
0
 30
0
  9
$PUCSORGBOTTOM
 10
0
 20
0
 30
0
  9
$PUCSORGLEFT
 10
0
 20
0
 30
0
  9
$PUCSORGRIGHT
 10
0
 20
0
 30
0
  9
$PUCSORGFRONT
 10
0
 20
0
 30
0
  9
$PUCSORGBACK
 10
0
 20
0
 30
0
  9
$USERI1
 70
    0
  9
$USERI2
 70
    0
  9
$USERI3
 70
    0
  9
$USERI4
 70
    0
  9
$USERI5
 70
    0
  9
$USERR1
 40
0
  9
$USERR2
 40
0
  9
$USERR3
 40
0
  9
$USERR4
 40
0
  9
$USERR5
 40
0
  9
$WORLDVIEW
 70
    1
  9
$SHADEDGE
 70
    3
  9
$SHADEDIF
 70
   70
  9
$TILEMODE
 70
    1
  9
$MAXACTVP
 70
   64
  9
$PINSBASE
 10
0
 20
0
 30
0
  9
$PLIMCHECK
 70
    0
  9
$PEXTMIN
 10
0.62886676639706
 20
0.7999999523162842
 30
0
  9
$PEXTMAX
 10
9.028866384927335
 20
7.199999570846558
 30
0
  9
$GRIDMODE
 70
    1
  9
$SNAPSTYLE
 70
    0
  9
$PLIMMIN
 10
-0.7005418191744587
 20
-0.2281003861915408
  9
$PLIMMAX
 10
10.29945794052965
 20
8.27189937351257
  9
$UNITMODE
 70
    0
  9
$VISRETAIN
 70
    1
  9
$PLINEGEN
 70
    0
  9
$PSLTSCALE
 70
    1
  9
$TREEDEPTH
 70
 3020
  9
$CMLSTYLE
  2
Standard
  9
$CMLJUST
 70
    0
  9
$CMLSCALE
 40
1
  9
$PROXYGRAPHICS
 70
    1
  9
$MEASUREMENT
 70
    1
  9
$CELWEIGHT
370
   -1
  9
$ENDCAPS
280
    0
  9
$JOINSTYLE
280
    0
  9
$LWDISPLAY
290
    0
  9
$INSUNITS
 70
    4
  9
$HYPERLINKBASE
  1

  9
$STYLESHEET
  1

  9
$XEDIT
290
    1
  9
$CEPSNTYPE
380
    0
  9
$PSTYLEMODE
290
    1
  9
$EXTNAMES
290
    1
  9
$PSVPSCALE
 40
0
  9
$OLESTARTUP
290
    0
  9
$SORTENTS
280
  127
  9
$INDEXCTL
280
    0
  9
$HIDETEXT
280
    1
  9
$XCLIPFRAME
290
    0
  9
$HALOGAP
280
    0
  9
$OBSCOLOR
 70
  257
  9
$OBSLTYPE
280
    0
  9
$INTERSECTIONDISPLAY
280
    0
  9
$INTERSECTIONCOLOR
 70
  257
  9
$DIMASSOC
280
    2
  9
$PROJECTNAME
  1

  9
$CAMERADISPLAY
290
    0
  9
$LENSLENGTH
 40
50
  9
$CAMERAHEIGHT
 40
0
  9
$STEPSPERSEC
 40
2
  9
$STEPSIZE
 40
6
  9
$3DDWFPREC
 40
2
  9
$PSOLWIDTH
 40
0.25
  9
$PSOLHEIGHT
 40
4
  9
$LOFTANG1
 40
1.570796326794896
  9
$LOFTANG2
 40
1.570796326794896
  9
$LOFTMAG1
 40
0
  9
$LOFTMAG2
 40
0
  9
$LOFTPARAM
 70
    7
  9
$LOFTNORMALS
280
    1
  9
$LATITUDE
 40
37.795
  9
$LONGITUDE
 40
-122.394
  9
$NORTHDIRECTION
 40
0
  9
$TIMEZONE
 70
-8000
  9
$LIGHTGLYPHDISPLAY
280
    1
  9
$TILEMODELIGHTSYNCH
280
    1
  9
$SOLIDHIST
280
    1
  9
$SHOWHIST
280
    1
  9
$DWFFRAME
280
    2
  9
$DGNFRAME
280
    0
  9
$REALWORLDSCALE
290
    1
  9
$INTERFERECOLOR
 62
    1
  9
$CSHADOW
280
    0
  9
$SHADOWPLANELOCATION
 40
0
  0
ENDSEC
  0
SECTION
  2
CLASSES
  0
ENDSEC
  0
SECTION
  2
TABLES
  0
TABLE
  2
VPORT
  5
8
330
0
100
AcDbSymbolTable
 70
    1
  0
VPORT
  5
31
330
2
100
AcDbSymbolTableRecord
100
AcDbViewportTableRecord
  2
*ACTIVE
 70
    0
 10
0
 20
0
 11
1
 21
1
 12
-4.412775182173808
 22
-21.68563803811129
 13
0
 23
0
 14
10
 24
10
 15
10
 25
10
 16
0
 26
0
 36
1
 17
0
 27
0
 37
0
 40
13.11224625560217
 41
2.096153846153846
 42
50
 43
0
 44
0
 50
0
 51
0
 71
    0
 72
  100
 73
    1
 74
    3
 75
    0
 76
    1
 77
    0
 78
    0
281
    0
 65
    1
110
0
120
0
130
0
111
1
121
0
131
0
112
0
122
1
132
0
 79
    0
146
0
348
10020
 60
    7
 61
    5
292
1
282
    1
141
0
142
0
 63
  250
421
3358443
  0
ENDTAB
  0
TABLE
  2
LTYPE
  5
5
330
0
100
AcDbSymbolTable
 70
    4
  0
LTYPE
  5
14
330
5
100
AcDbSymbolTableRecord
100
AcDbLinetypeTableRecord
  2
ByBlock
 70
    0
  3

 72
   65
 73
    0
 40
0
  0
LTYPE
  5
15
330
5
100
AcDbSymbolTableRecord
100
AcDbLinetypeTableRecord
  2
ByLayer
 70
    0
  3

 72
   65
 73
    0
 40
0
  0
LTYPE
  5
16
330
5
100
AcDbSymbolTableRecord
100
AcDbLinetypeTableRecord
  2
Continuous
 70
    0
  3
Solid line
 72
   65
 73
    0
 40
0
  0
LTYPE
  5
32
330
5
100
AcDbSymbolTableRecord
100
AcDbLinetypeTableRecord
  2
DOT
 70
    0
  3
Dot . . . . . . . . . . . . . . . . . . . . . .
 72
   65
 73
    2
 40
6.35
 49
0
 74
    0
 49
-6.35
 74
    0
  0
LTYPE
  5
33
330
5
100
AcDbSymbolTableRecord
100
AcDbLinetypeTableRecord
  2
DOTTINY
 70
    0
  3
Dot (.15x) .....................................
 72
   65
 73
    2
 40
0.9525
 49
0
 74
    0
 49
-0.9525
 74
    0
  0
LTYPE
  5
34
330
5
100
AcDbSymbolTableRecord
100
AcDbLinetypeTableRecord
  2
DOT2
 70
    0
  3
Dot (.5x) .....................................
 72
   65
 73
    2
 40
3.175
 49
0
 74
    0
 49
-3.175
 74
    0
  0
LTYPE
  5
35
330
5
100
AcDbSymbolTableRecord
100
AcDbLinetypeTableRecord
  2
DOTX2
 70
    0
  3
Dot (2x) .  .  .  .  .  .  .  .  .  .  .  .  .
 72
   65
 73
    2
 40
12.7
 49
0
 74
    0
 49
-12.7
 74
    0
  0
LTYPE
  5
36
330
5
100
AcDbSymbolTableRecord
100
AcDbLinetypeTableRecord
  2
DASHED
 70
    0
  3
Dashed _ _ _ _ _ _ _ _ _ _ _ _ _ _ _ _ _
 72
   65
 73
    2
 40
19.05
 49
12.7
 74
    0
 49
-6.35
 74
    0
  0
LTYPE
  5
37
330
5
100
AcDbSymbolTableRecord
100
AcDbLinetypeTableRecord
  2
DASHEDTINY
 70
    0
  3
Dashed (.15x) _ _ _ _ _ _ _ _ _ _ _ _ _ _ _ _ _
 72
   65
 73
    2
 40
2.8575
 49
1.905
 74
    0
 49
-0.9525
 74
    0
  0
LTYPE
  5
38
330
5
100
AcDbSymbolTableRecord
100
AcDbLinetypeTableRecord
  2
DASHED2
 70
    0
  3
Dashed (.5x) _ _ _ _ _ _ _ _ _ _ _ _ _ _ _ _ _
 72
   65
 73
    2
 40
9.524999999999999
 49
6.35
 74
    0
 49
-3.175
 74
    0
  0
LTYPE
  5
39
330
5
100
AcDbSymbolTableRecord
100
AcDbLinetypeTableRecord
  2
DASHEDX2
 70
    0
  3
Dashed (2x) ____  ____  ____  ____  ____  ___
 72
   65
 73
    2
 40
38.09999999999999
 49
25.4
 74
    0
 49
-12.7
 74
    0
  0
LTYPE
  5
3A
330
5
100
AcDbSymbolTableRecord
100
AcDbLinetypeTableRecord
  2
DASHDOT
 70
    0
  3
Dash dot __ . __ . __ . __ . __ . __ . __ . __
 72
   65
 73
    4
 40
25.4
 49
12.7
 74
    0
 49
-6.35
 74
    0
 49
0
 74
    0
 49
-6.35
 74
    0
  0
LTYPE
  5
3B
330
5
100
AcDbSymbolTableRecord
100
AcDbLinetypeTableRecord
  2
DASHDOTTINY
 70
    0
  3
Dash dot (.15x) _._._._._._._._._._._._._._._.
 72
   65
 73
    4
 40
3.81
 49
1.905
 74
    0
 49
-0.9525
 74
    0
 49
0
 74
    0
 49
-0.9525
 74
    0
  0
LTYPE
  5
3C
330
5
100
AcDbSymbolTableRecord
100
AcDbLinetypeTableRecord
  2
DASHDOT2
 70
    0
  3
Dash dot (.5x) _._._._._._._._._._._._._._._.
 72
   65
 73
    4
 40
12.7
 49
6.35
 74
    0
 49
-3.175
 74
    0
 49
0
 74
    0
 49
-3.175
 74
    0
  0
LTYPE
  5
3D
330
5
100
AcDbSymbolTableRecord
100
AcDbLinetypeTableRecord
  2
DASHDOTX2
 70
    0
  3
Dash dot (2x) ____  .  ____  .  ____  .  ___
 72
   65
 73
    4
 40
50.8
 49
25.4
 74
    0
 49
-12.7
 74
    0
 49
0
 74
    0
 49
-12.7
 74
    0
  0
LTYPE
  5
3E
330
5
100
AcDbSymbolTableRecord
100
AcDbLinetypeTableRecord
  2
DIVIDE
 70
    0
  3
Divide ____ . . ____ . . ____ . . ____ . . ____
 72
   65
 73
    6
 40
31.75
 49
12.7
 74
    0
 49
-6.35
 74
    0
 49
0
 74
    0
 49
-6.35
 74
    0
 49
0
 74
    0
 49
-6.35
 74
    0
  0
LTYPE
  5
3F
330
5
100
AcDbSymbolTableRecord
100
AcDbLinetypeTableRecord
  2
DIVIDETINY
 70
    0
  3
Divide (.15x) __..__..__..__..__..__..__..__.._
 72
   65
 73
    6
 40
4.7625
 49
1.905
 74
    0
 49
-0.9525
 74
    0
 49
0
 74
    0
 49
-0.9525
 74
    0
 49
0
 74
    0
 49
-0.9525
 74
    0
  0
LTYPE
  5
40
330
5
100
AcDbSymbolTableRecord
100
AcDbLinetypeTableRecord
  2
DIVIDE2
 70
    0
  3
Divide (.5x) __..__..__..__..__..__..__..__.._
 72
   65
 73
    6
 40
15.875
 49
6.35
 74
    0
 49
-3.175
 74
    0
 49
0
 74
    0
 49
-3.175
 74
    0
 49
0
 74
    0
 49
-3.175
 74
    0
  0
LTYPE
  5
41
330
5
100
AcDbSymbolTableRecord
100
AcDbLinetypeTableRecord
  2
DIVIDEX2
 70
    0
  3
Divide (2x) ________  .  .  ________  .  .  _
 72
   65
 73
    6
 40
63.5
 49
25.4
 74
    0
 49
-12.7
 74
    0
 49
0
 74
    0
 49
-12.7
 74
    0
 49
0
 74
    0
 49
-12.7
 74
    0
  0
LTYPE
  5
42
330
5
100
AcDbSymbolTableRecord
100
AcDbLinetypeTableRecord
  2
BORDER
 70
    0
  3
Border __ __ . __ __ . __ __ . __ __ . __ __ .
 72
   65
 73
    6
 40
44.45
 49
12.7
 74
    0
 49
-6.35
 74
    0
 49
12.7
 74
    0
 49
-6.35
 74
    0
 49
0
 74
    0
 49
-6.35
 74
    0
  0
LTYPE
  5
43
330
5
100
AcDbSymbolTableRecord
100
AcDbLinetypeTableRecord
  2
BORDERTINY
 70
    0
  3
Border (.15x) __.__.__.__.__.__.__.__.__.__.__.
 72
   65
 73
    6
 40
6.6675
 49
1.905
 74
    0
 49
-0.9525
 74
    0
 49
1.905
 74
    0
 49
-0.9525
 74
    0
 49
0
 74
    0
 49
-0.9525
 74
    0
  0
LTYPE
  5
44
330
5
100
AcDbSymbolTableRecord
100
AcDbLinetypeTableRecord
  2
BORDER2
 70
    0
  3
Border (.5x) __.__.__.__.__.__.__.__.__.__.__.
 72
   65
 73
    6
 40
22.225
 49
6.35
 74
    0
 49
-3.175
 74
    0
 49
6.35
 74
    0
 49
-3.175
 74
    0
 49
0
 74
    0
 49
-3.175
 74
    0
  0
LTYPE
  5
45
330
5
100
AcDbSymbolTableRecord
100
AcDbLinetypeTableRecord
  2
BORDERX2
 70
    0
  3
Border (2x) ____  ____  .  ____  ____  .  ___
 72
   65
 73
    6
 40
88.89999999999999
 49
25.4
 74
    0
 49
-12.7
 74
    0
 49
25.4
 74
    0
 49
-12.7
 74
    0
 49
0
 74
    0
 49
-12.7
 74
    0
  0
LTYPE
  5
46
330
5
100
AcDbSymbolTableRecord
100
AcDbLinetypeTableRecord
  2
CENTER
 70
    0
  3
Center ____ _ ____ _ ____ _ ____ _ ____ _ ____
 72
   65
 73
    4
 40
50.8
 49
31.75
 74
    0
 49
-6.35
 74
    0
 49
6.35
 74
    0
 49
-6.35
 74
    0
  0
LTYPE
  5
47
330
5
100
AcDbSymbolTableRecord
100
AcDbLinetypeTableRecord
  2
CENTERTINY
 70
    0
  3
Center (.15x) ___ _ ___ _ ___ _ ___ _ ___ _ ___
 72
   65
 73
    4
 40
7.62
 49
4.7625
 74
    0
 49
-0.9525
 74
    0
 49
0.9525
 74
    0
 49
-0.9525
 74
    0
  0
LTYPE
  5
48
330
5
100
AcDbSymbolTableRecord
100
AcDbLinetypeTableRecord
  2
CENTER2
 70
    0
  3
Center (.5x) ___ _ ___ _ ___ _ ___ _ ___ _ ___
 72
   65
 73
    4
 40
28.575
 49
19.05
 74
    0
 49
-3.175
 74
    0
 49
3.175
 74
    0
 49
-3.175
 74
    0
  0
LTYPE
  5
49
330
5
100
AcDbSymbolTableRecord
100
AcDbLinetypeTableRecord
  2
CENTERX2
 70
    0
  3
Center (2x) ________  __  ________  __  _____
 72
   65
 73
    4
 40
101.6
 49
63.5
 74
    0
 49
-12.7
 74
    0
 49
12.7
 74
    0
 49
-12.7
 74
    0
  0
ENDTAB
  0
TABLE
  2
LAYER
  5
2
330
0
100
AcDbSymbolTable
 70
    1
  0
LAYER
  5
10
330
2
100
AcDbSymbolTableRecord
100
AcDbLayerTableRecord
  2
0
 70
    0
 62
    7
  6
CONTINUOUS
370
   -3
390
F
  0
LAYER
  5
4A
330
2
100
AcDbSymbolTableRecord
100
AcDbLayerTableRecord
  2
Defpoints
 70
    0
 62
    7
  6
CONTINUOUS
290
0
370
   -3
390
F
  0
LAYER
  5
4B
330
2
100
AcDbSymbolTableRecord
100
AcDbLayerTableRecord
  2
View Port
 70
    0
 62
    7
  6
CONTINUOUS
290
0
370
   -3
390
F
  0
ENDTAB
  0
TABLE
  2
STYLE
  5
3
330
0
100
AcDbSymbolTable
 70
    3
  0
STYLE
  5
4C
330
2
100
AcDbSymbolTableRecord
100
AcDbTextStyleTableRecord
  2
Notes
 70
    0
 40
0
 41
1
 50
0
 71
    0
 42
1
  3
Notes
  4

  0
STYLE
  5
4D
330
2
100
AcDbSymbolTableRecord
100
AcDbTextStyleTableRecord
  2
Standard
 70
    0
 40
0
 41
1
 50
0
 71
    0
 42
1
  3
txt
  4

  0
ENDTAB
  0
TABLE
  2
VIEW
  5
6
330
0
100
AcDbSymbolTable
 70
    0
  0
ENDTAB
  0
TABLE
  2
UCS
  5
7
330
0
100
AcDbSymbolTable
 70
    0
  0
ENDTAB
  0
TABLE
  2
APPID
  5
9
330
0
100
AcDbSymbolTable
 70
    1
  0
APPID
  5
12
330
9
100
AcDbSymbolTableRecord
100
AcDbRegAppTableRecord
  2
ACAD
 70
    0
  0
APPID
  5
4E
330
9
100
AcDbSymbolTableRecord
100
AcDbRegAppTableRecord
  2
LibreCad
 70
    0
  0
ENDTAB
  0
TABLE
  2
DIMSTYLE
  5
A
330
0
100
AcDbSymbolTable
 70
    1
100
AcDbDimStyleTable
 71
    1
  0
DIMSTYLE
105
4F
330
A
100
AcDbSymbolTableRecord
100
AcDbDimStyleTableRecord
  2
Standard
 70
    0
 40
1
 41
3
 42
1.5
 43
0.38
 44
3
 45
0
 46
0
 47
0
 48
0
 49
1
140
3
141
0.09
142
0
143
25.4
144
1
145
0
146
1
147
2
148
0
 71
    0
 72
    0
 73
    0
 74
    1
 75
    0
 76
    0
 77
    0
 78
    3
 79
    2
170
    0
171
    2
172
    0
173
    0
174
    0
175
    0
176
    0
177
    0
178
    0
179
    2
271
    2
272
    4
273
    2
274
    2
275
    0
276
    0
277
    2
278
   46
279
    0
280
    0
281
    0
282
    0
283
    1
284
    0
285
    0
286
    0
288
    0
289
    3
340
Standard
341

371
   -2
372
   -2
  0
ENDTAB
  0
TABLE
  2
BLOCK_RECORD
  5
1
330
0
100
AcDbSymbolTable
 70
    2
  0
BLOCK_RECORD
  5
1F
330
1
100
AcDbSymbolTableRecord
100
AcDbBlockTableRecord
  2
*Model_Space
 70
    0
280
    1
281
    0
  0
BLOCK_RECORD
  5
1E
330
1
100
AcDbSymbolTableRecord
100
AcDbBlockTableRecord
  2
*Paper_Space
 70
    0
280
    1
281
    0
  0
BLOCK_RECORD
  5
50
330
1
100
AcDbSymbolTableRecord
100
AcDbBlockTableRecord
  2
_ArchTick
 70
    0
280
    1
281
    0
  0
BLOCK_RECORD
  5
53
330
1
100
AcDbSymbolTableRecord
100
AcDbBlockTableRecord
  2
_Open30
 70
    0
280
    1
281
    0
  0
ENDTAB
  0
ENDSEC
  0
SECTION
  2
BLOCKS
  0
BLOCK
  5
20
330
1F
100
AcDbEntity
  8
0
100
AcDbBlockBegin
  2
*Model_Space
 70
    0
 10
0
 20
0
 30
0
  3
*Model_Space
  1

  0
ENDBLK
  5
21
330
1F
100
AcDbEntity
  8
0
100
AcDbBlockEnd
  0
BLOCK
  5
1C
330
1B
100
AcDbEntity
  8
0
100
AcDbBlockBegin
  2
*Paper_Space
 70
    0
 10
0
 20
0
 30
0
  3
*Paper_Space
  1

  0
ENDBLK
  5
1D
330
1F
100
AcDbEntity
  8
0
100
AcDbBlockEnd
  0
BLOCK
  5
51
330
50
100
AcDbEntity
  8
0
100
AcDbBlockBegin
  2
_ArchTick
 70
    0
 10
0
 20
0
  3
_ArchTick
  1

  0
LWPOLYLINE
  5
56
100
AcDbEntity
  8
0
  6
ByBlock
 62
    0
370
   -1
100
AcDbPolyline
 90
    2
 70
    0
 43
0
 10
-0.5
 20
-0.5
 10
0.5
 20
0.5
  0
ENDBLK
  5
52
330
50
100
AcDbEntity
  8
0
100
AcDbBlockEnd
  0
BLOCK
  5
54
330
53
100
AcDbEntity
  8
0
100
AcDbBlockBegin
  2
_Open30
 70
    0
 10
0
 20
0
  3
_Open30
  1

  0
LINE
  5
57
100
AcDbEntity
  8
0
  6
ByBlock
 62
    0
370
   -2
100
AcDbLine
 10
-1
 20
0.26794919
 11
0
 21
0
  0
LINE
  5
58
100
AcDbEntity
  8
0
  6
ByBlock
 62
    0
370
   -2
100
AcDbLine
 10
0
 20
0
 11
-1
 21
-0.26794919
  0
LINE
  5
59
100
AcDbEntity
  8
0
  6
ByBlock
 62
    0
370
   -2
100
AcDbLine
 10
0
 20
0
 11
-1
 21
0
  0
ENDBLK
  5
55
330
53
100
AcDbEntity
  8
0
100
AcDbBlockEnd
  0
ENDSEC
  0
SECTION
  2
ENTITIES
  0
LINE
  5
5A
100
AcDbEntity
  8
0
  6
ByLayer
 62
  256
370
   -1
100
AcDbLine
 10
0
 20
0
 11
0
 21
95.25
  0
LINE
  5
5B
100
AcDbEntity
  8
0
  6
ByLayer
 62
  256
370
   -1
100
AcDbLine
 10
0
 20
95.25
 11
19.05
 21
95.25
  0
LINE
  5
5C
100
AcDbEntity
  8
0
  6
ByLayer
 62
  256
370
   -1
100
AcDbLine
 10
12.05000008678374
 20
102.2499999997907
 11
26.05000008678374
 21
102.2499999997907
  0
LINE
  5
5D
100
AcDbEntity
  8
0
  6
ByLayer
 62
  256
370
   -1
100
AcDbLine
 10
12.05000008678374
 20
88.24999999979073
 11
26.05000008678374
 21
88.24999999979073
  0
LINE
  5
5E
100
AcDbEntity
  8
0
  6
ByLayer
 62
  256
370
   -1
100
AcDbLine
 10
12.05000008678374
 20
102.2499999997907
 11
12.05000008678374
 21
88.24999999979073
  0
LINE
  5
5F
100
AcDbEntity
  8
0
  6
ByLayer
 62
  256
370
   -1
100
AcDbLine
 10
26.05000008678374
 20
102.2499999997907
 11
26.05000008678374
 21
88.24999999979073
  0
ARC
  5
60
100
AcDbEntity
  8
0
  6
ByLayer
 62
  256
370
   -1
100
AcDbCircle
 10
12.05000008678374
 20
102.2499999997907
 40
0
100
AcDbArc
 50
90
 51
180
  0
ARC
  5
61
100
AcDbEntity
  8
0
  6
ByLayer
 62
  256
370
   -1
100
AcDbCircle
 10
26.05000008678374
 20
102.2499999997907
 40
0
100
AcDbArc
 50
0
 51
90
  0
ARC
  5
62
100
AcDbEntity
  8
0
  6
ByLayer
 62
  256
370
   -1
100
AcDbCircle
 10
12.05000008678374
 20
88.24999999979073
 40
0
100
AcDbArc
 50
180
 51
270
  0
ARC
  5
63
100
AcDbEntity
  8
0
  6
ByLayer
 62
  256
370
   -1
100
AcDbCircle
 10
26.05000008678374
 20
88.24999999979073
 40
0
100
AcDbArc
 50
270
 51
360
  0
LINE
  5
64
100
AcDbEntity
  8
0
  6
ByLayer
 62
  256
370
   -1
100
AcDbLine
 10
31.10000008678374
 20
102.2499999997907
 11
45.10000008678375
 21
102.2499999997907
  0
LINE
  5
65
100
AcDbEntity
  8
0
  6
ByLayer
 62
  256
370
   -1
100
AcDbLine
 10
31.10000008678374
 20
88.24999999979073
 11
45.10000008678375
 21
88.24999999979073
  0
LINE
  5
66
100
AcDbEntity
  8
0
  6
ByLayer
 62
  256
370
   -1
100
AcDbLine
 10
31.10000008678374
 20
102.2499999997907
 11
31.10000008678374
 21
88.24999999979073
  0
LINE
  5
67
100
AcDbEntity
  8
0
  6
ByLayer
 62
  256
370
   -1
100
AcDbLine
 10
45.10000008678375
 20
102.2499999997907
 11
45.10000008678375
 21
88.24999999979073
  0
ARC
  5
68
100
AcDbEntity
  8
0
  6
ByLayer
 62
  256
370
   -1
100
AcDbCircle
 10
31.10000008678374
 20
102.2499999997907
 40
0
100
AcDbArc
 50
90
 51
180
  0
ARC
  5
69
100
AcDbEntity
  8
0
  6
ByLayer
 62
  256
370
   -1
100
AcDbCircle
 10
45.10000008678375
 20
102.2499999997907
 40
0
100
AcDbArc
 50
0
 51
90
  0
ARC
  5
6A
100
AcDbEntity
  8
0
  6
ByLayer
 62
  256
370
   -1
100
AcDbCircle
 10
31.10000008678374
 20
88.24999999979073
 40
0
100
AcDbArc
 50
180
 51
270
  0
ARC
  5
6B
100
AcDbEntity
  8
0
  6
ByLayer
 62
  256
370
   -1
100
AcDbCircle
 10
45.10000008678375
 20
88.24999999979073
 40
0
100
AcDbArc
 50
270
 51
360
  0
LINE
  5
6C
100
AcDbEntity
  8
0
  6
ByLayer
 62
  256
370
   -1
100
AcDbLine
 10
50.15000008678375
 20
102.2499999997907
 11
64.15000008678375
 21
102.2499999997907
  0
LINE
  5
6D
100
AcDbEntity
  8
0
  6
ByLayer
 62
  256
370
   -1
100
AcDbLine
 10
50.15000008678375
 20
88.24999999979073
 11
64.15000008678375
 21
88.24999999979073
  0
LINE
  5
6E
100
AcDbEntity
  8
0
  6
ByLayer
 62
  256
370
   -1
100
AcDbLine
 10
50.15000008678375
 20
102.2499999997907
 11
50.15000008678375
 21
88.24999999979073
  0
LINE
  5
6F
100
AcDbEntity
  8
0
  6
ByLayer
 62
  256
370
   -1
100
AcDbLine
 10
64.15000008678375
 20
102.2499999997907
 11
64.15000008678375
 21
88.24999999979073
  0
ARC
  5
70
100
AcDbEntity
  8
0
  6
ByLayer
 62
  256
370
   -1
100
AcDbCircle
 10
50.15000008678375
 20
102.2499999997907
 40
0
100
AcDbArc
 50
90
 51
180
  0
ARC
  5
71
100
AcDbEntity
  8
0
  6
ByLayer
 62
  256
370
   -1
100
AcDbCircle
 10
64.15000008678375
 20
102.2499999997907
 40
0
100
AcDbArc
 50
0
 51
90
  0
ARC
  5
72
100
AcDbEntity
  8
0
  6
ByLayer
 62
  256
370
   -1
100
AcDbCircle
 10
50.15000008678375
 20
88.24999999979073
 40
0
100
AcDbArc
 50
180
 51
270
  0
ARC
  5
73
100
AcDbEntity
  8
0
  6
ByLayer
 62
  256
370
   -1
100
AcDbCircle
 10
64.15000008678375
 20
88.24999999979073
 40
0
100
AcDbArc
 50
270
 51
360
  0
LINE
  5
74
100
AcDbEntity
  8
0
  6
ByLayer
 62
  256
370
   -1
100
AcDbLine
 10
69.20000008678375
 20
102.2499999997907
 11
83.20000008678373
 21
102.2499999997907
  0
LINE
  5
75
100
AcDbEntity
  8
0
  6
ByLayer
 62
  256
370
   -1
100
AcDbLine
 10
69.20000008678375
 20
88.24999999979073
 11
83.20000008678373
 21
88.24999999979073
  0
LINE
  5
76
100
AcDbEntity
  8
0
  6
ByLayer
 62
  256
370
   -1
100
AcDbLine
 10
69.20000008678375
 20
102.2499999997907
 11
69.20000008678375
 21
88.24999999979073
  0
LINE
  5
77
100
AcDbEntity
  8
0
  6
ByLayer
 62
  256
370
   -1
100
AcDbLine
 10
83.20000008678373
 20
102.2499999997907
 11
83.20000008678373
 21
88.24999999979073
  0
ARC
  5
78
100
AcDbEntity
  8
0
  6
ByLayer
 62
  256
370
   -1
100
AcDbCircle
 10
69.20000008678375
 20
102.2499999997907
 40
0
100
AcDbArc
 50
90
 51
180
  0
ARC
  5
79
100
AcDbEntity
  8
0
  6
ByLayer
 62
  256
370
   -1
100
AcDbCircle
 10
83.20000008678373
 20
102.2499999997907
 40
0
100
AcDbArc
 50
0
 51
90
  0
ARC
  5
7A
100
AcDbEntity
  8
0
  6
ByLayer
 62
  256
370
   -1
100
AcDbCircle
 10
69.20000008678375
 20
88.24999999979073
 40
0
100
AcDbArc
 50
180
 51
270
  0
ARC
  5
7B
100
AcDbEntity
  8
0
  6
ByLayer
 62
  256
370
   -1
100
AcDbCircle
 10
83.20000008678373
 20
88.24999999979073
 40
0
100
AcDbArc
 50
270
 51
360
  0
LINE
  5
7C
100
AcDbEntity
  8
0
  6
ByLayer
 62
  256
370
   -1
100
AcDbLine
 10
88.25000008678373
 20
102.2499999997907
 11
102.2500000867837
 21
102.2499999997907
  0
LINE
  5
7D
100
AcDbEntity
  8
0
  6
ByLayer
 62
  256
370
   -1
100
AcDbLine
 10
88.25000008678373
 20
88.24999999979073
 11
102.2500000867837
 21
88.24999999979073
  0
LINE
  5
7E
100
AcDbEntity
  8
0
  6
ByLayer
 62
  256
370
   -1
100
AcDbLine
 10
88.25000008678373
 20
102.2499999997907
 11
88.25000008678373
 21
88.24999999979073
  0
LINE
  5
7F
100
AcDbEntity
  8
0
  6
ByLayer
 62
  256
370
   -1
100
AcDbLine
 10
102.2500000867837
 20
102.2499999997907
 11
102.2500000867837
 21
88.24999999979073
  0
ARC
  5
80
100
AcDbEntity
  8
0
  6
ByLayer
 62
  256
370
   -1
100
AcDbCircle
 10
88.25000008678373
 20
102.2499999997907
 40
0
100
AcDbArc
 50
90
 51
180
  0
ARC
  5
81
100
AcDbEntity
  8
0
  6
ByLayer
 62
  256
370
   -1
100
AcDbCircle
 10
102.2500000867837
 20
102.2499999997907
 40
0
100
AcDbArc
 50
0
 51
90
  0
ARC
  5
82
100
AcDbEntity
  8
0
  6
ByLayer
 62
  256
370
   -1
100
AcDbCircle
 10
88.25000008678373
 20
88.24999999979073
 40
0
100
AcDbArc
 50
180
 51
270
  0
ARC
  5
83
100
AcDbEntity
  8
0
  6
ByLayer
 62
  256
370
   -1
100
AcDbCircle
 10
102.2500000867837
 20
88.24999999979073
 40
0
100
AcDbArc
 50
270
 51
360
  0
LINE
  5
84
100
AcDbEntity
  8
0
  6
ByLayer
 62
  256
370
   -1
100
AcDbLine
 10
107.3000000867837
 20
102.2499999997907
 11
121.3000000867837
 21
102.2499999997907
  0
LINE
  5
85
100
AcDbEntity
  8
0
  6
ByLayer
 62
  256
370
   -1
100
AcDbLine
 10
107.3000000867837
 20
88.24999999979073
 11
121.3000000867837
 21
88.24999999979073
  0
LINE
  5
86
100
AcDbEntity
  8
0
  6
ByLayer
 62
  256
370
   -1
100
AcDbLine
 10
107.3000000867837
 20
102.2499999997907
 11
107.3000000867837
 21
88.24999999979073
  0
LINE
  5
87
100
AcDbEntity
  8
0
  6
ByLayer
 62
  256
370
   -1
100
AcDbLine
 10
121.3000000867837
 20
102.2499999997907
 11
121.3000000867837
 21
88.24999999979073
  0
ARC
  5
88
100
AcDbEntity
  8
0
  6
ByLayer
 62
  256
370
   -1
100
AcDbCircle
 10
107.3000000867837
 20
102.2499999997907
 40
0
100
AcDbArc
 50
90
 51
180
  0
ARC
  5
89
100
AcDbEntity
  8
0
  6
ByLayer
 62
  256
370
   -1
100
AcDbCircle
 10
121.3000000867837
 20
102.2499999997907
 40
0
100
AcDbArc
 50
0
 51
90
  0
ARC
  5
8A
100
AcDbEntity
  8
0
  6
ByLayer
 62
  256
370
   -1
100
AcDbCircle
 10
107.3000000867837
 20
88.24999999979073
 40
0
100
AcDbArc
 50
180
 51
270
  0
ARC
  5
8B
100
AcDbEntity
  8
0
  6
ByLayer
 62
  256
370
   -1
100
AcDbCircle
 10
121.3000000867837
 20
88.24999999979073
 40
0
100
AcDbArc
 50
270
 51
360
  0
LINE
  5
8C
100
AcDbEntity
  8
0
  6
ByLayer
 62
  256
370
   -1
100
AcDbLine
 10
126.3500000867837
 20
102.2499999997907
 11
140.3500000867837
 21
102.2499999997907
  0
LINE
  5
8D
100
AcDbEntity
  8
0
  6
ByLayer
 62
  256
370
   -1
100
AcDbLine
 10
126.3500000867837
 20
88.24999999979073
 11
140.3500000867837
 21
88.24999999979073
  0
LINE
  5
8E
100
AcDbEntity
  8
0
  6
ByLayer
 62
  256
370
   -1
100
AcDbLine
 10
126.3500000867837
 20
102.2499999997907
 11
126.3500000867837
 21
88.24999999979073
  0
LINE
  5
8F
100
AcDbEntity
  8
0
  6
ByLayer
 62
  256
370
   -1
100
AcDbLine
 10
140.3500000867837
 20
102.2499999997907
 11
140.3500000867837
 21
88.24999999979073
  0
ARC
  5
90
100
AcDbEntity
  8
0
  6
ByLayer
 62
  256
370
   -1
100
AcDbCircle
 10
126.3500000867837
 20
102.2499999997907
 40
0
100
AcDbArc
 50
90
 51
180
  0
ARC
  5
91
100
AcDbEntity
  8
0
  6
ByLayer
 62
  256
370
   -1
100
AcDbCircle
 10
140.3500000867837
 20
102.2499999997907
 40
0
100
AcDbArc
 50
0
 51
90
  0
ARC
  5
92
100
AcDbEntity
  8
0
  6
ByLayer
 62
  256
370
   -1
100
AcDbCircle
 10
126.3500000867837
 20
88.24999999979073
 40
0
100
AcDbArc
 50
180
 51
270
  0
ARC
  5
93
100
AcDbEntity
  8
0
  6
ByLayer
 62
  256
370
   -1
100
AcDbCircle
 10
140.3500000867837
 20
88.24999999979073
 40
0
100
AcDbArc
 50
270
 51
360
  0
LINE
  5
94
100
AcDbEntity
  8
0
  6
ByLayer
 62
  256
370
   -1
100
AcDbLine
 10
145.4000000867837
 20
102.2499999997907
 11
159.4000000867838
 21
102.2499999997907
  0
LINE
  5
95
100
AcDbEntity
  8
0
  6
ByLayer
 62
  256
370
   -1
100
AcDbLine
 10
145.4000000867837
 20
88.24999999979073
 11
159.4000000867838
 21
88.24999999979073
  0
LINE
  5
96
100
AcDbEntity
  8
0
  6
ByLayer
 62
  256
370
   -1
100
AcDbLine
 10
145.4000000867837
 20
102.2499999997907
 11
145.4000000867837
 21
88.24999999979073
  0
LINE
  5
97
100
AcDbEntity
  8
0
  6
ByLayer
 62
  256
370
   -1
100
AcDbLine
 10
159.4000000867838
 20
102.2499999997907
 11
159.4000000867838
 21
88.24999999979073
  0
ARC
  5
98
100
AcDbEntity
  8
0
  6
ByLayer
 62
  256
370
   -1
100
AcDbCircle
 10
145.4000000867837
 20
102.2499999997907
 40
0
100
AcDbArc
 50
90
 51
180
  0
ARC
  5
99
100
AcDbEntity
  8
0
  6
ByLayer
 62
  256
370
   -1
100
AcDbCircle
 10
159.4000000867838
 20
102.2499999997907
 40
0
100
AcDbArc
 50
0
 51
90
  0
ARC
  5
9A
100
AcDbEntity
  8
0
  6
ByLayer
 62
  256
370
   -1
100
AcDbCircle
 10
145.4000000867837
 20
88.24999999979073
 40
0
100
AcDbArc
 50
180
 51
270
  0
ARC
  5
9B
100
AcDbEntity
  8
0
  6
ByLayer
 62
  256
370
   -1
100
AcDbCircle
 10
159.4000000867838
 20
88.24999999979073
 40
0
100
AcDbArc
 50
270
 51
360
  0
LINE
  5
9C
100
AcDbEntity
  8
0
  6
ByLayer
 62
  256
370
   -1
100
AcDbLine
 10
164.4500000867838
 20
102.2499999997907
 11
178.4500000867838
 21
102.2499999997907
  0
LINE
  5
9D
100
AcDbEntity
  8
0
  6
ByLayer
 62
  256
370
   -1
100
AcDbLine
 10
164.4500000867838
 20
88.24999999979073
 11
178.4500000867838
 21
88.24999999979073
  0
LINE
  5
9E
100
AcDbEntity
  8
0
  6
ByLayer
 62
  256
370
   -1
100
AcDbLine
 10
164.4500000867838
 20
102.2499999997907
 11
164.4500000867838
 21
88.24999999979073
  0
LINE
  5
9F
100
AcDbEntity
  8
0
  6
ByLayer
 62
  256
370
   -1
100
AcDbLine
 10
178.4500000867838
 20
102.2499999997907
 11
178.4500000867838
 21
88.24999999979073
  0
ARC
  5
A0
100
AcDbEntity
  8
0
  6
ByLayer
 62
  256
370
   -1
100
AcDbCircle
 10
164.4500000867838
 20
102.2499999997907
 40
0
100
AcDbArc
 50
90
 51
180
  0
ARC
  5
A1
100
AcDbEntity
  8
0
  6
ByLayer
 62
  256
370
   -1
100
AcDbCircle
 10
178.4500000867838
 20
102.2499999997907
 40
0
100
AcDbArc
 50
0
 51
90
  0
ARC
  5
A2
100
AcDbEntity
  8
0
  6
ByLayer
 62
  256
370
   -1
100
AcDbCircle
 10
164.4500000867838
 20
88.24999999979073
 40
0
100
AcDbArc
 50
180
 51
270
  0
ARC
  5
A3
100
AcDbEntity
  8
0
  6
ByLayer
 62
  256
370
   -1
100
AcDbCircle
 10
178.4500000867838
 20
88.24999999979073
 40
0
100
AcDbArc
 50
270
 51
360
  0
LINE
  5
A4
100
AcDbEntity
  8
0
  6
ByLayer
 62
  256
370
   -1
100
AcDbLine
 10
183.5000000867838
 20
102.2499999997907
 11
197.5000000867838
 21
102.2499999997907
  0
LINE
  5
A5
100
AcDbEntity
  8
0
  6
ByLayer
 62
  256
370
   -1
100
AcDbLine
 10
183.5000000867838
 20
88.24999999979073
 11
197.5000000867838
 21
88.24999999979073
  0
LINE
  5
A6
100
AcDbEntity
  8
0
  6
ByLayer
 62
  256
370
   -1
100
AcDbLine
 10
183.5000000867838
 20
102.2499999997907
 11
183.5000000867838
 21
88.24999999979073
  0
LINE
  5
A7
100
AcDbEntity
  8
0
  6
ByLayer
 62
  256
370
   -1
100
AcDbLine
 10
197.5000000867838
 20
102.2499999997907
 11
197.5000000867838
 21
88.24999999979073
  0
ARC
  5
A8
100
AcDbEntity
  8
0
  6
ByLayer
 62
  256
370
   -1
100
AcDbCircle
 10
183.5000000867838
 20
102.2499999997907
 40
0
100
AcDbArc
 50
90
 51
180
  0
ARC
  5
A9
100
AcDbEntity
  8
0
  6
ByLayer
 62
  256
370
   -1
100
AcDbCircle
 10
197.5000000867838
 20
102.2499999997907
 40
0
100
AcDbArc
 50
0
 51
90
  0
ARC
  5
AA
100
AcDbEntity
  8
0
  6
ByLayer
 62
  256
370
   -1
100
AcDbCircle
 10
183.5000000867838
 20
88.24999999979073
 40
0
100
AcDbArc
 50
180
 51
270
  0
ARC
  5
AB
100
AcDbEntity
  8
0
  6
ByLayer
 62
  256
370
   -1
100
AcDbCircle
 10
197.5000000867838
 20
88.24999999979073
 40
0
100
AcDbArc
 50
270
 51
360
  0
LINE
  5
AC
100
AcDbEntity
  8
0
  6
ByLayer
 62
  256
370
   -1
100
AcDbLine
 10
202.5500000867838
 20
102.2499999997907
 11
216.5500000867838
 21
102.2499999997907
  0
LINE
  5
AD
100
AcDbEntity
  8
0
  6
ByLayer
 62
  256
370
   -1
100
AcDbLine
 10
202.5500000867838
 20
88.24999999979073
 11
216.5500000867838
 21
88.24999999979073
  0
LINE
  5
AE
100
AcDbEntity
  8
0
  6
ByLayer
 62
  256
370
   -1
100
AcDbLine
 10
202.5500000867838
 20
102.2499999997907
 11
202.5500000867838
 21
88.24999999979073
  0
LINE
  5
AF
100
AcDbEntity
  8
0
  6
ByLayer
 62
  256
370
   -1
100
AcDbLine
 10
216.5500000867838
 20
102.2499999997907
 11
216.5500000867838
 21
88.24999999979073
  0
ARC
  5
B0
100
AcDbEntity
  8
0
  6
ByLayer
 62
  256
370
   -1
100
AcDbCircle
 10
202.5500000867838
 20
102.2499999997907
 40
0
100
AcDbArc
 50
90
 51
180
  0
ARC
  5
B1
100
AcDbEntity
  8
0
  6
ByLayer
 62
  256
370
   -1
100
AcDbCircle
 10
216.5500000867838
 20
102.2499999997907
 40
0
100
AcDbArc
 50
0
 51
90
  0
ARC
  5
B2
100
AcDbEntity
  8
0
  6
ByLayer
 62
  256
370
   -1
100
AcDbCircle
 10
202.5500000867838
 20
88.24999999979073
 40
0
100
AcDbArc
 50
180
 51
270
  0
ARC
  5
B3
100
AcDbEntity
  8
0
  6
ByLayer
 62
  256
370
   -1
100
AcDbCircle
 10
216.5500000867838
 20
88.24999999979073
 40
0
100
AcDbArc
 50
270
 51
360
  0
LINE
  5
B4
100
AcDbEntity
  8
0
  6
ByLayer
 62
  256
370
   -1
100
AcDbLine
 10
221.6000000867838
 20
102.2499999997907
 11
235.6000000867838
 21
102.2499999997907
  0
LINE
  5
B5
100
AcDbEntity
  8
0
  6
ByLayer
 62
  256
370
   -1
100
AcDbLine
 10
221.6000000867838
 20
88.24999999979073
 11
235.6000000867838
 21
88.24999999979073
  0
LINE
  5
B6
100
AcDbEntity
  8
0
  6
ByLayer
 62
  256
370
   -1
100
AcDbLine
 10
221.6000000867838
 20
102.2499999997907
 11
221.6000000867838
 21
88.24999999979073
  0
LINE
  5
B7
100
AcDbEntity
  8
0
  6
ByLayer
 62
  256
370
   -1
100
AcDbLine
 10
235.6000000867838
 20
102.2499999997907
 11
235.6000000867838
 21
88.24999999979073
  0
ARC
  5
B8
100
AcDbEntity
  8
0
  6
ByLayer
 62
  256
370
   -1
100
AcDbCircle
 10
221.6000000867838
 20
102.2499999997907
 40
0
100
AcDbArc
 50
90
 51
180
  0
ARC
  5
B9
100
AcDbEntity
  8
0
  6
ByLayer
 62
  256
370
   -1
100
AcDbCircle
 10
235.6000000867838
 20
102.2499999997907
 40
0
100
AcDbArc
 50
0
 51
90
  0
ARC
  5
BA
100
AcDbEntity
  8
0
  6
ByLayer
 62
  256
370
   -1
100
AcDbCircle
 10
221.6000000867838
 20
88.24999999979073
 40
0
100
AcDbArc
 50
180
 51
270
  0
ARC
  5
BB
100
AcDbEntity
  8
0
  6
ByLayer
 62
  256
370
   -1
100
AcDbCircle
 10
235.6000000867838
 20
88.24999999979073
 40
0
100
AcDbArc
 50
270
 51
360
  0
LINE
  5
BC
100
AcDbEntity
  8
0
  6
ByLayer
 62
  256
370
   -1
100
AcDbLine
 10
240.6500000867838
 20
102.2499999997907
 11
254.6500000867838
 21
102.2499999997907
  0
LINE
  5
BD
100
AcDbEntity
  8
0
  6
ByLayer
 62
  256
370
   -1
100
AcDbLine
 10
240.6500000867838
 20
88.24999999979073
 11
254.6500000867838
 21
88.24999999979073
  0
LINE
  5
BE
100
AcDbEntity
  8
0
  6
ByLayer
 62
  256
370
   -1
100
AcDbLine
 10
240.6500000867838
 20
102.2499999997907
 11
240.6500000867838
 21
88.24999999979073
  0
LINE
  5
BF
100
AcDbEntity
  8
0
  6
ByLayer
 62
  256
370
   -1
100
AcDbLine
 10
254.6500000867838
 20
102.2499999997907
 11
254.6500000867838
 21
88.24999999979073
  0
ARC
  5
C0
100
AcDbEntity
  8
0
  6
ByLayer
 62
  256
370
   -1
100
AcDbCircle
 10
240.6500000867838
 20
102.2499999997907
 40
0
100
AcDbArc
 50
90
 51
180
  0
ARC
  5
C1
100
AcDbEntity
  8
0
  6
ByLayer
 62
  256
370
   -1
100
AcDbCircle
 10
254.6500000867838
 20
102.2499999997907
 40
0
100
AcDbArc
 50
0
 51
90
  0
ARC
  5
C2
100
AcDbEntity
  8
0
  6
ByLayer
 62
  256
370
   -1
100
AcDbCircle
 10
240.6500000867838
 20
88.24999999979073
 40
0
100
AcDbArc
 50
180
 51
270
  0
ARC
  5
C3
100
AcDbEntity
  8
0
  6
ByLayer
 62
  256
370
   -1
100
AcDbCircle
 10
254.6500000867838
 20
88.24999999979073
 40
0
100
AcDbArc
 50
270
 51
360
  0
LINE
  5
C4
100
AcDbEntity
  8
0
  6
ByLayer
 62
  256
370
   -1
100
AcDbLine
 10
259.7000000867837
 20
102.2499999997907
 11
273.7000000867837
 21
102.2499999997907
  0
LINE
  5
C5
100
AcDbEntity
  8
0
  6
ByLayer
 62
  256
370
   -1
100
AcDbLine
 10
259.7000000867837
 20
88.24999999979073
 11
273.7000000867837
 21
88.24999999979073
  0
LINE
  5
C6
100
AcDbEntity
  8
0
  6
ByLayer
 62
  256
370
   -1
100
AcDbLine
 10
259.7000000867837
 20
102.2499999997907
 11
259.7000000867837
 21
88.24999999979073
  0
LINE
  5
C7
100
AcDbEntity
  8
0
  6
ByLayer
 62
  256
370
   -1
100
AcDbLine
 10
273.7000000867837
 20
102.2499999997907
 11
273.7000000867837
 21
88.24999999979073
  0
ARC
  5
C8
100
AcDbEntity
  8
0
  6
ByLayer
 62
  256
370
   -1
100
AcDbCircle
 10
259.7000000867837
 20
102.2499999997907
 40
0
100
AcDbArc
 50
90
 51
180
  0
ARC
  5
C9
100
AcDbEntity
  8
0
  6
ByLayer
 62
  256
370
   -1
100
AcDbCircle
 10
273.7000000867837
 20
102.2499999997907
 40
0
100
AcDbArc
 50
0
 51
90
  0
ARC
  5
CA
100
AcDbEntity
  8
0
  6
ByLayer
 62
  256
370
   -1
100
AcDbCircle
 10
259.7000000867837
 20
88.24999999979073
 40
0
100
AcDbArc
 50
180
 51
270
  0
ARC
  5
CB
100
AcDbEntity
  8
0
  6
ByLayer
 62
  256
370
   -1
100
AcDbCircle
 10
273.7000000867837
 20
88.24999999979073
 40
0
100
AcDbArc
 50
270
 51
360
  0
LINE
  5
CC
100
AcDbEntity
  8
0
  6
ByLayer
 62
  256
370
   -1
100
AcDbLine
 10
278.7500000867838
 20
102.2499999997907
 11
292.7500000867838
 21
102.2499999997907
  0
LINE
  5
CD
100
AcDbEntity
  8
0
  6
ByLayer
 62
  256
370
   -1
100
AcDbLine
 10
278.7500000867838
 20
88.24999999979073
 11
292.7500000867838
 21
88.24999999979073
  0
LINE
  5
CE
100
AcDbEntity
  8
0
  6
ByLayer
 62
  256
370
   -1
100
AcDbLine
 10
278.7500000867838
 20
102.2499999997907
 11
278.7500000867838
 21
88.24999999979073
  0
LINE
  5
CF
100
AcDbEntity
  8
0
  6
ByLayer
 62
  256
370
   -1
100
AcDbLine
 10
292.7500000867838
 20
102.2499999997907
 11
292.7500000867838
 21
88.24999999979073
  0
ARC
  5
D0
100
AcDbEntity
  8
0
  6
ByLayer
 62
  256
370
   -1
100
AcDbCircle
 10
278.7500000867838
 20
102.2499999997907
 40
0
100
AcDbArc
 50
90
 51
180
  0
ARC
  5
D1
100
AcDbEntity
  8
0
  6
ByLayer
 62
  256
370
   -1
100
AcDbCircle
 10
292.7500000867838
 20
102.2499999997907
 40
0
100
AcDbArc
 50
0
 51
90
  0
ARC
  5
D2
100
AcDbEntity
  8
0
  6
ByLayer
 62
  256
370
   -1
100
AcDbCircle
 10
278.7500000867838
 20
88.24999999979073
 40
0
100
AcDbArc
 50
180
 51
270
  0
ARC
  5
D3
100
AcDbEntity
  8
0
  6
ByLayer
 62
  256
370
   -1
100
AcDbCircle
 10
292.7500000867838
 20
88.24999999979073
 40
0
100
AcDbArc
 50
270
 51
360
  0
LINE
  5
D4
100
AcDbEntity
  8
0
  6
ByLayer
 62
  256
370
   -1
100
AcDbLine
 10
16.81250008678374
 20
83.19999999979072
 11
30.81250008678374
 21
83.19999999979072
  0
LINE
  5
D5
100
AcDbEntity
  8
0
  6
ByLayer
 62
  256
370
   -1
100
AcDbLine
 10
16.81250008678374
 20
69.19999999979072
 11
30.81250008678374
 21
69.19999999979072
  0
LINE
  5
D6
100
AcDbEntity
  8
0
  6
ByLayer
 62
  256
370
   -1
100
AcDbLine
 10
16.81250008678374
 20
83.19999999979072
 11
16.81250008678374
 21
69.19999999979072
  0
LINE
  5
D7
100
AcDbEntity
  8
0
  6
ByLayer
 62
  256
370
   -1
100
AcDbLine
 10
30.81250008678374
 20
83.19999999979072
 11
30.81250008678374
 21
69.19999999979072
  0
ARC
  5
D8
100
AcDbEntity
  8
0
  6
ByLayer
 62
  256
370
   -1
100
AcDbCircle
 10
16.81250008678374
 20
83.19999999979072
 40
0
100
AcDbArc
 50
90
 51
180
  0
ARC
  5
D9
100
AcDbEntity
  8
0
  6
ByLayer
 62
  256
370
   -1
100
AcDbCircle
 10
30.81250008678374
 20
83.19999999979072
 40
0
100
AcDbArc
 50
0
 51
90
  0
ARC
  5
DA
100
AcDbEntity
  8
0
  6
ByLayer
 62
  256
370
   -1
100
AcDbCircle
 10
16.81250008678374
 20
69.19999999979072
 40
0
100
AcDbArc
 50
180
 51
270
  0
ARC
  5
DB
100
AcDbEntity
  8
0
  6
ByLayer
 62
  256
370
   -1
100
AcDbCircle
 10
30.81250008678374
 20
69.19999999979072
 40
0
100
AcDbArc
 50
270
 51
360
  0
LINE
  5
DC
100
AcDbEntity
  8
0
  6
ByLayer
 62
  256
370
   -1
100
AcDbLine
 10
40.62500008678374
 20
83.19999999979072
 11
54.62500008678374
 21
83.19999999979072
  0
LINE
  5
DD
100
AcDbEntity
  8
0
  6
ByLayer
 62
  256
370
   -1
100
AcDbLine
 10
40.62500008678374
 20
69.19999999979072
 11
54.62500008678374
 21
69.19999999979072
  0
LINE
  5
DE
100
AcDbEntity
  8
0
  6
ByLayer
 62
  256
370
   -1
100
AcDbLine
 10
40.62500008678374
 20
83.19999999979072
 11
40.62500008678374
 21
69.19999999979072
  0
LINE
  5
DF
100
AcDbEntity
  8
0
  6
ByLayer
 62
  256
370
   -1
100
AcDbLine
 10
54.62500008678374
 20
83.19999999979072
 11
54.62500008678374
 21
69.19999999979072
  0
ARC
  5
E0
100
AcDbEntity
  8
0
  6
ByLayer
 62
  256
370
   -1
100
AcDbCircle
 10
40.62500008678374
 20
83.19999999979072
 40
0
100
AcDbArc
 50
90
 51
180
  0
ARC
  5
E1
100
AcDbEntity
  8
0
  6
ByLayer
 62
  256
370
   -1
100
AcDbCircle
 10
54.62500008678374
 20
83.19999999979072
 40
0
100
AcDbArc
 50
0
 51
90
  0
ARC
  5
E2
100
AcDbEntity
  8
0
  6
ByLayer
 62
  256
370
   -1
100
AcDbCircle
 10
40.62500008678374
 20
69.19999999979072
 40
0
100
AcDbArc
 50
180
 51
270
  0
ARC
  5
E3
100
AcDbEntity
  8
0
  6
ByLayer
 62
  256
370
   -1
100
AcDbCircle
 10
54.62500008678374
 20
69.19999999979072
 40
0
100
AcDbArc
 50
270
 51
360
  0
LINE
  5
E4
100
AcDbEntity
  8
0
  6
ByLayer
 62
  256
370
   -1
100
AcDbLine
 10
59.67500008678374
 20
83.19999999979072
 11
73.67500008678375
 21
83.19999999979072
  0
LINE
  5
E5
100
AcDbEntity
  8
0
  6
ByLayer
 62
  256
370
   -1
100
AcDbLine
 10
59.67500008678374
 20
69.19999999979072
 11
73.67500008678375
 21
69.19999999979072
  0
LINE
  5
E6
100
AcDbEntity
  8
0
  6
ByLayer
 62
  256
370
   -1
100
AcDbLine
 10
59.67500008678374
 20
83.19999999979072
 11
59.67500008678374
 21
69.19999999979072
  0
LINE
  5
E7
100
AcDbEntity
  8
0
  6
ByLayer
 62
  256
370
   -1
100
AcDbLine
 10
73.67500008678375
 20
83.19999999979072
 11
73.67500008678375
 21
69.19999999979072
  0
ARC
  5
E8
100
AcDbEntity
  8
0
  6
ByLayer
 62
  256
370
   -1
100
AcDbCircle
 10
59.67500008678374
 20
83.19999999979072
 40
0
100
AcDbArc
 50
90
 51
180
  0
ARC
  5
E9
100
AcDbEntity
  8
0
  6
ByLayer
 62
  256
370
   -1
100
AcDbCircle
 10
73.67500008678375
 20
83.19999999979072
 40
0
100
AcDbArc
 50
0
 51
90
  0
ARC
  5
EA
100
AcDbEntity
  8
0
  6
ByLayer
 62
  256
370
   -1
100
AcDbCircle
 10
59.67500008678374
 20
69.19999999979072
 40
0
100
AcDbArc
 50
180
 51
270
  0
ARC
  5
EB
100
AcDbEntity
  8
0
  6
ByLayer
 62
  256
370
   -1
100
AcDbCircle
 10
73.67500008678375
 20
69.19999999979072
 40
0
100
AcDbArc
 50
270
 51
360
  0
LINE
  5
EC
100
AcDbEntity
  8
0
  6
ByLayer
 62
  256
370
   -1
100
AcDbLine
 10
78.72500008678375
 20
83.19999999979072
 11
92.72500008678374
 21
83.19999999979072
  0
LINE
  5
ED
100
AcDbEntity
  8
0
  6
ByLayer
 62
  256
370
   -1
100
AcDbLine
 10
78.72500008678375
 20
69.19999999979072
 11
92.72500008678374
 21
69.19999999979072
  0
LINE
  5
EE
100
AcDbEntity
  8
0
  6
ByLayer
 62
  256
370
   -1
100
AcDbLine
 10
78.72500008678375
 20
83.19999999979072
 11
78.72500008678375
 21
69.19999999979072
  0
LINE
  5
EF
100
AcDbEntity
  8
0
  6
ByLayer
 62
  256
370
   -1
100
AcDbLine
 10
92.72500008678374
 20
83.19999999979072
 11
92.72500008678374
 21
69.19999999979072
  0
ARC
  5
F0
100
AcDbEntity
  8
0
  6
ByLayer
 62
  256
370
   -1
100
AcDbCircle
 10
78.72500008678375
 20
83.19999999979072
 40
0
100
AcDbArc
 50
90
 51
180
  0
ARC
  5
F1
100
AcDbEntity
  8
0
  6
ByLayer
 62
  256
370
   -1
100
AcDbCircle
 10
92.72500008678374
 20
83.19999999979072
 40
0
100
AcDbArc
 50
0
 51
90
  0
ARC
  5
F2
100
AcDbEntity
  8
0
  6
ByLayer
 62
  256
370
   -1
100
AcDbCircle
 10
78.72500008678375
 20
69.19999999979072
 40
0
100
AcDbArc
 50
180
 51
270
  0
ARC
  5
F3
100
AcDbEntity
  8
0
  6
ByLayer
 62
  256
370
   -1
100
AcDbCircle
 10
92.72500008678374
 20
69.19999999979072
 40
0
100
AcDbArc
 50
270
 51
360
  0
LINE
  5
F4
100
AcDbEntity
  8
0
  6
ByLayer
 62
  256
370
   -1
100
AcDbLine
 10
97.77500008678373
 20
83.19999999979072
 11
111.7750000867837
 21
83.19999999979072
  0
LINE
  5
F5
100
AcDbEntity
  8
0
  6
ByLayer
 62
  256
370
   -1
100
AcDbLine
 10
97.77500008678373
 20
69.19999999979072
 11
111.7750000867837
 21
69.19999999979072
  0
LINE
  5
F6
100
AcDbEntity
  8
0
  6
ByLayer
 62
  256
370
   -1
100
AcDbLine
 10
97.77500008678373
 20
83.19999999979072
 11
97.77500008678373
 21
69.19999999979072
  0
LINE
  5
F7
100
AcDbEntity
  8
0
  6
ByLayer
 62
  256
370
   -1
100
AcDbLine
 10
111.7750000867837
 20
83.19999999979072
 11
111.7750000867837
 21
69.19999999979072
  0
ARC
  5
F8
100
AcDbEntity
  8
0
  6
ByLayer
 62
  256
370
   -1
100
AcDbCircle
 10
97.77500008678373
 20
83.19999999979072
 40
0
100
AcDbArc
 50
90
 51
180
  0
ARC
  5
F9
100
AcDbEntity
  8
0
  6
ByLayer
 62
  256
370
   -1
100
AcDbCircle
 10
111.7750000867837
 20
83.19999999979072
 40
0
100
AcDbArc
 50
0
 51
90
  0
ARC
  5
FA
100
AcDbEntity
  8
0
  6
ByLayer
 62
  256
370
   -1
100
AcDbCircle
 10
97.77500008678373
 20
69.19999999979072
 40
0
100
AcDbArc
 50
180
 51
270
  0
ARC
  5
FB
100
AcDbEntity
  8
0
  6
ByLayer
 62
  256
370
   -1
100
AcDbCircle
 10
111.7750000867837
 20
69.19999999979072
 40
0
100
AcDbArc
 50
270
 51
360
  0
LINE
  5
FC
100
AcDbEntity
  8
0
  6
ByLayer
 62
  256
370
   -1
100
AcDbLine
 10
116.8250000867837
 20
83.19999999979072
 11
130.8250000867837
 21
83.19999999979072
  0
LINE
  5
FD
100
AcDbEntity
  8
0
  6
ByLayer
 62
  256
370
   -1
100
AcDbLine
 10
116.8250000867837
 20
69.19999999979072
 11
130.8250000867837
 21
69.19999999979072
  0
LINE
  5
FE
100
AcDbEntity
  8
0
  6
ByLayer
 62
  256
370
   -1
100
AcDbLine
 10
116.8250000867837
 20
83.19999999979072
 11
116.8250000867837
 21
69.19999999979072
  0
LINE
  5
FF
100
AcDbEntity
  8
0
  6
ByLayer
 62
  256
370
   -1
100
AcDbLine
 10
130.8250000867837
 20
83.19999999979072
 11
130.8250000867837
 21
69.19999999979072
  0
ARC
  5
100
100
AcDbEntity
  8
0
  6
ByLayer
 62
  256
370
   -1
100
AcDbCircle
 10
116.8250000867837
 20
83.19999999979072
 40
0
100
AcDbArc
 50
90
 51
180
  0
ARC
  5
101
100
AcDbEntity
  8
0
  6
ByLayer
 62
  256
370
   -1
100
AcDbCircle
 10
130.8250000867837
 20
83.19999999979072
 40
0
100
AcDbArc
 50
0
 51
90
  0
ARC
  5
102
100
AcDbEntity
  8
0
  6
ByLayer
 62
  256
370
   -1
100
AcDbCircle
 10
116.8250000867837
 20
69.19999999979072
 40
0
100
AcDbArc
 50
180
 51
270
  0
ARC
  5
103
100
AcDbEntity
  8
0
  6
ByLayer
 62
  256
370
   -1
100
AcDbCircle
 10
130.8250000867837
 20
69.19999999979072
 40
0
100
AcDbArc
 50
270
 51
360
  0
LINE
  5
104
100
AcDbEntity
  8
0
  6
ByLayer
 62
  256
370
   -1
100
AcDbLine
 10
135.8750000867837
 20
83.19999999979072
 11
149.8750000867838
 21
83.19999999979072
  0
LINE
  5
105
100
AcDbEntity
  8
0
  6
ByLayer
 62
  256
370
   -1
100
AcDbLine
 10
135.8750000867837
 20
69.19999999979072
 11
149.8750000867838
 21
69.19999999979072
  0
LINE
  5
106
100
AcDbEntity
  8
0
  6
ByLayer
 62
  256
370
   -1
100
AcDbLine
 10
135.8750000867837
 20
83.19999999979072
 11
135.8750000867837
 21
69.19999999979072
  0
LINE
  5
107
100
AcDbEntity
  8
0
  6
ByLayer
 62
  256
370
   -1
100
AcDbLine
 10
149.8750000867838
 20
83.19999999979072
 11
149.8750000867838
 21
69.19999999979072
  0
ARC
  5
108
100
AcDbEntity
  8
0
  6
ByLayer
 62
  256
370
   -1
100
AcDbCircle
 10
135.8750000867837
 20
83.19999999979072
 40
0
100
AcDbArc
 50
90
 51
180
  0
ARC
  5
109
100
AcDbEntity
  8
0
  6
ByLayer
 62
  256
370
   -1
100
AcDbCircle
 10
149.8750000867838
 20
83.19999999979072
 40
0
100
AcDbArc
 50
0
 51
90
  0
ARC
  5
10A
100
AcDbEntity
  8
0
  6
ByLayer
 62
  256
370
   -1
100
AcDbCircle
 10
135.8750000867837
 20
69.19999999979072
 40
0
100
AcDbArc
 50
180
 51
270
  0
ARC
  5
10B
100
AcDbEntity
  8
0
  6
ByLayer
 62
  256
370
   -1
100
AcDbCircle
 10
149.8750000867838
 20
69.19999999979072
 40
0
100
AcDbArc
 50
270
 51
360
  0
LINE
  5
10C
100
AcDbEntity
  8
0
  6
ByLayer
 62
  256
370
   -1
100
AcDbLine
 10
154.9250000867838
 20
83.19999999979072
 11
168.9250000867838
 21
83.19999999979072
  0
LINE
  5
10D
100
AcDbEntity
  8
0
  6
ByLayer
 62
  256
370
   -1
100
AcDbLine
 10
154.9250000867838
 20
69.19999999979072
 11
168.9250000867838
 21
69.19999999979072
  0
LINE
  5
10E
100
AcDbEntity
  8
0
  6
ByLayer
 62
  256
370
   -1
100
AcDbLine
 10
154.9250000867838
 20
83.19999999979072
 11
154.9250000867838
 21
69.19999999979072
  0
LINE
  5
10F
100
AcDbEntity
  8
0
  6
ByLayer
 62
  256
370
   -1
100
AcDbLine
 10
168.9250000867838
 20
83.19999999979072
 11
168.9250000867838
 21
69.19999999979072
  0
ARC
  5
110
100
AcDbEntity
  8
0
  6
ByLayer
 62
  256
370
   -1
100
AcDbCircle
 10
154.9250000867838
 20
83.19999999979072
 40
0
100
AcDbArc
 50
90
 51
180
  0
ARC
  5
111
100
AcDbEntity
  8
0
  6
ByLayer
 62
  256
370
   -1
100
AcDbCircle
 10
168.9250000867838
 20
83.19999999979072
 40
0
100
AcDbArc
 50
0
 51
90
  0
ARC
  5
112
100
AcDbEntity
  8
0
  6
ByLayer
 62
  256
370
   -1
100
AcDbCircle
 10
154.9250000867838
 20
69.19999999979072
 40
0
100
AcDbArc
 50
180
 51
270
  0
ARC
  5
113
100
AcDbEntity
  8
0
  6
ByLayer
 62
  256
370
   -1
100
AcDbCircle
 10
168.9250000867838
 20
69.19999999979072
 40
0
100
AcDbArc
 50
270
 51
360
  0
LINE
  5
114
100
AcDbEntity
  8
0
  6
ByLayer
 62
  256
370
   -1
100
AcDbLine
 10
173.9750000867838
 20
83.19999999979072
 11
187.9750000867838
 21
83.19999999979072
  0
LINE
  5
115
100
AcDbEntity
  8
0
  6
ByLayer
 62
  256
370
   -1
100
AcDbLine
 10
173.9750000867838
 20
69.19999999979072
 11
187.9750000867838
 21
69.19999999979072
  0
LINE
  5
116
100
AcDbEntity
  8
0
  6
ByLayer
 62
  256
370
   -1
100
AcDbLine
 10
173.9750000867838
 20
83.19999999979072
 11
173.9750000867838
 21
69.19999999979072
  0
LINE
  5
117
100
AcDbEntity
  8
0
  6
ByLayer
 62
  256
370
   -1
100
AcDbLine
 10
187.9750000867838
 20
83.19999999979072
 11
187.9750000867838
 21
69.19999999979072
  0
ARC
  5
118
100
AcDbEntity
  8
0
  6
ByLayer
 62
  256
370
   -1
100
AcDbCircle
 10
173.9750000867838
 20
83.19999999979072
 40
0
100
AcDbArc
 50
90
 51
180
  0
ARC
  5
119
100
AcDbEntity
  8
0
  6
ByLayer
 62
  256
370
   -1
100
AcDbCircle
 10
187.9750000867838
 20
83.19999999979072
 40
0
100
AcDbArc
 50
0
 51
90
  0
ARC
  5
11A
100
AcDbEntity
  8
0
  6
ByLayer
 62
  256
370
   -1
100
AcDbCircle
 10
173.9750000867838
 20
69.19999999979072
 40
0
100
AcDbArc
 50
180
 51
270
  0
ARC
  5
11B
100
AcDbEntity
  8
0
  6
ByLayer
 62
  256
370
   -1
100
AcDbCircle
 10
187.9750000867838
 20
69.19999999979072
 40
0
100
AcDbArc
 50
270
 51
360
  0
LINE
  5
11C
100
AcDbEntity
  8
0
  6
ByLayer
 62
  256
370
   -1
100
AcDbLine
 10
193.0250000867838
 20
83.19999999979072
 11
207.0250000867838
 21
83.19999999979072
  0
LINE
  5
11D
100
AcDbEntity
  8
0
  6
ByLayer
 62
  256
370
   -1
100
AcDbLine
 10
193.0250000867838
 20
69.19999999979072
 11
207.0250000867838
 21
69.19999999979072
  0
LINE
  5
11E
100
AcDbEntity
  8
0
  6
ByLayer
 62
  256
370
   -1
100
AcDbLine
 10
193.0250000867838
 20
83.19999999979072
 11
193.0250000867838
 21
69.19999999979072
  0
LINE
  5
11F
100
AcDbEntity
  8
0
  6
ByLayer
 62
  256
370
   -1
100
AcDbLine
 10
207.0250000867838
 20
83.19999999979072
 11
207.0250000867838
 21
69.19999999979072
  0
ARC
  5
120
100
AcDbEntity
  8
0
  6
ByLayer
 62
  256
370
   -1
100
AcDbCircle
 10
193.0250000867838
 20
83.19999999979072
 40
0
100
AcDbArc
 50
90
 51
180
  0
ARC
  5
121
100
AcDbEntity
  8
0
  6
ByLayer
 62
  256
370
   -1
100
AcDbCircle
 10
207.0250000867838
 20
83.19999999979072
 40
0
100
AcDbArc
 50
0
 51
90
  0
ARC
  5
122
100
AcDbEntity
  8
0
  6
ByLayer
 62
  256
370
   -1
100
AcDbCircle
 10
193.0250000867838
 20
69.19999999979072
 40
0
100
AcDbArc
 50
180
 51
270
  0
ARC
  5
123
100
AcDbEntity
  8
0
  6
ByLayer
 62
  256
370
   -1
100
AcDbCircle
 10
207.0250000867838
 20
69.19999999979072
 40
0
100
AcDbArc
 50
270
 51
360
  0
LINE
  5
124
100
AcDbEntity
  8
0
  6
ByLayer
 62
  256
370
   -1
100
AcDbLine
 10
212.0750000867838
 20
83.19999999979072
 11
226.0750000867838
 21
83.19999999979072
  0
LINE
  5
125
100
AcDbEntity
  8
0
  6
ByLayer
 62
  256
370
   -1
100
AcDbLine
 10
212.0750000867838
 20
69.19999999979072
 11
226.0750000867838
 21
69.19999999979072
  0
LINE
  5
126
100
AcDbEntity
  8
0
  6
ByLayer
 62
  256
370
   -1
100
AcDbLine
 10
212.0750000867838
 20
83.19999999979072
 11
212.0750000867838
 21
69.19999999979072
  0
LINE
  5
127
100
AcDbEntity
  8
0
  6
ByLayer
 62
  256
370
   -1
100
AcDbLine
 10
226.0750000867838
 20
83.19999999979072
 11
226.0750000867838
 21
69.19999999979072
  0
ARC
  5
128
100
AcDbEntity
  8
0
  6
ByLayer
 62
  256
370
   -1
100
AcDbCircle
 10
212.0750000867838
 20
83.19999999979072
 40
0
100
AcDbArc
 50
90
 51
180
  0
ARC
  5
129
100
AcDbEntity
  8
0
  6
ByLayer
 62
  256
370
   -1
100
AcDbCircle
 10
226.0750000867838
 20
83.19999999979072
 40
0
100
AcDbArc
 50
0
 51
90
  0
ARC
  5
12A
100
AcDbEntity
  8
0
  6
ByLayer
 62
  256
370
   -1
100
AcDbCircle
 10
212.0750000867838
 20
69.19999999979072
 40
0
100
AcDbArc
 50
180
 51
270
  0
ARC
  5
12B
100
AcDbEntity
  8
0
  6
ByLayer
 62
  256
370
   -1
100
AcDbCircle
 10
226.0750000867838
 20
69.19999999979072
 40
0
100
AcDbArc
 50
270
 51
360
  0
LINE
  5
12C
100
AcDbEntity
  8
0
  6
ByLayer
 62
  256
370
   -1
100
AcDbLine
 10
231.1250000867838
 20
83.19999999979072
 11
245.1250000867838
 21
83.19999999979072
  0
LINE
  5
12D
100
AcDbEntity
  8
0
  6
ByLayer
 62
  256
370
   -1
100
AcDbLine
 10
231.1250000867838
 20
69.19999999979072
 11
245.1250000867838
 21
69.19999999979072
  0
LINE
  5
12E
100
AcDbEntity
  8
0
  6
ByLayer
 62
  256
370
   -1
100
AcDbLine
 10
231.1250000867838
 20
83.19999999979072
 11
231.1250000867838
 21
69.19999999979072
  0
LINE
  5
12F
100
AcDbEntity
  8
0
  6
ByLayer
 62
  256
370
   -1
100
AcDbLine
 10
245.1250000867838
 20
83.19999999979072
 11
245.1250000867838
 21
69.19999999979072
  0
ARC
  5
130
100
AcDbEntity
  8
0
  6
ByLayer
 62
  256
370
   -1
100
AcDbCircle
 10
231.1250000867838
 20
83.19999999979072
 40
0
100
AcDbArc
 50
90
 51
180
  0
ARC
  5
131
100
AcDbEntity
  8
0
  6
ByLayer
 62
  256
370
   -1
100
AcDbCircle
 10
245.1250000867838
 20
83.19999999979072
 40
0
100
AcDbArc
 50
0
 51
90
  0
ARC
  5
132
100
AcDbEntity
  8
0
  6
ByLayer
 62
  256
370
   -1
100
AcDbCircle
 10
231.1250000867838
 20
69.19999999979072
 40
0
100
AcDbArc
 50
180
 51
270
  0
ARC
  5
133
100
AcDbEntity
  8
0
  6
ByLayer
 62
  256
370
   -1
100
AcDbCircle
 10
245.1250000867838
 20
69.19999999979072
 40
0
100
AcDbArc
 50
270
 51
360
  0
LINE
  5
134
100
AcDbEntity
  8
0
  6
ByLayer
 62
  256
370
   -1
100
AcDbLine
 10
250.1750000867838
 20
83.19999999979072
 11
264.1750000867838
 21
83.19999999979072
  0
LINE
  5
135
100
AcDbEntity
  8
0
  6
ByLayer
 62
  256
370
   -1
100
AcDbLine
 10
250.1750000867838
 20
69.19999999979072
 11
264.1750000867838
 21
69.19999999979072
  0
LINE
  5
136
100
AcDbEntity
  8
0
  6
ByLayer
 62
  256
370
   -1
100
AcDbLine
 10
250.1750000867838
 20
83.19999999979072
 11
250.1750000867838
 21
69.19999999979072
  0
LINE
  5
137
100
AcDbEntity
  8
0
  6
ByLayer
 62
  256
370
   -1
100
AcDbLine
 10
264.1750000867838
 20
83.19999999979072
 11
264.1750000867838
 21
69.19999999979072
  0
ARC
  5
138
100
AcDbEntity
  8
0
  6
ByLayer
 62
  256
370
   -1
100
AcDbCircle
 10
250.1750000867838
 20
83.19999999979072
 40
0
100
AcDbArc
 50
90
 51
180
  0
ARC
  5
139
100
AcDbEntity
  8
0
  6
ByLayer
 62
  256
370
   -1
100
AcDbCircle
 10
264.1750000867838
 20
83.19999999979072
 40
0
100
AcDbArc
 50
0
 51
90
  0
ARC
  5
13A
100
AcDbEntity
  8
0
  6
ByLayer
 62
  256
370
   -1
100
AcDbCircle
 10
250.1750000867838
 20
69.19999999979072
 40
0
100
AcDbArc
 50
180
 51
270
  0
ARC
  5
13B
100
AcDbEntity
  8
0
  6
ByLayer
 62
  256
370
   -1
100
AcDbCircle
 10
264.1750000867838
 20
69.19999999979072
 40
0
100
AcDbArc
 50
270
 51
360
  0
LINE
  5
13C
100
AcDbEntity
  8
0
  6
ByLayer
 62
  256
370
   -1
100
AcDbLine
 10
273.9875000867837
 20
83.19999999979072
 11
287.9875000867837
 21
83.19999999979072
  0
LINE
  5
13D
100
AcDbEntity
  8
0
  6
ByLayer
 62
  256
370
   -1
100
AcDbLine
 10
273.9875000867837
 20
69.19999999979072
 11
287.9875000867837
 21
69.19999999979072
  0
LINE
  5
13E
100
AcDbEntity
  8
0
  6
ByLayer
 62
  256
370
   -1
100
AcDbLine
 10
273.9875000867837
 20
83.19999999979072
 11
273.9875000867837
 21
69.19999999979072
  0
LINE
  5
13F
100
AcDbEntity
  8
0
  6
ByLayer
 62
  256
370
   -1
100
AcDbLine
 10
287.9875000867837
 20
83.19999999979072
 11
287.9875000867837
 21
69.19999999979072
  0
ARC
  5
140
100
AcDbEntity
  8
0
  6
ByLayer
 62
  256
370
   -1
100
AcDbCircle
 10
273.9875000867837
 20
83.19999999979072
 40
0
100
AcDbArc
 50
90
 51
180
  0
ARC
  5
141
100
AcDbEntity
  8
0
  6
ByLayer
 62
  256
370
   -1
100
AcDbCircle
 10
287.9875000867837
 20
83.19999999979072
 40
0
100
AcDbArc
 50
0
 51
90
  0
ARC
  5
142
100
AcDbEntity
  8
0
  6
ByLayer
 62
  256
370
   -1
100
AcDbCircle
 10
273.9875000867837
 20
69.19999999979072
 40
0
100
AcDbArc
 50
180
 51
270
  0
ARC
  5
143
100
AcDbEntity
  8
0
  6
ByLayer
 62
  256
370
   -1
100
AcDbCircle
 10
287.9875000867837
 20
69.19999999979072
 40
0
100
AcDbArc
 50
270
 51
360
  0
LINE
  5
144
100
AcDbEntity
  8
0
  6
ByLayer
 62
  256
370
   -1
100
AcDbLine
 10
19.19375008678374
 20
64.14999999979072
 11
33.19375008678374
 21
64.14999999979072
  0
LINE
  5
145
100
AcDbEntity
  8
0
  6
ByLayer
 62
  256
370
   -1
100
AcDbLine
 10
19.19375008678374
 20
50.14999999979072
 11
33.19375008678374
 21
50.14999999979072
  0
LINE
  5
146
100
AcDbEntity
  8
0
  6
ByLayer
 62
  256
370
   -1
100
AcDbLine
 10
19.19375008678374
 20
64.14999999979072
 11
19.19375008678374
 21
50.14999999979072
  0
LINE
  5
147
100
AcDbEntity
  8
0
  6
ByLayer
 62
  256
370
   -1
100
AcDbLine
 10
33.19375008678374
 20
64.14999999979072
 11
33.19375008678374
 21
50.14999999979072
  0
ARC
  5
148
100
AcDbEntity
  8
0
  6
ByLayer
 62
  256
370
   -1
100
AcDbCircle
 10
19.19375008678374
 20
64.14999999979072
 40
0
100
AcDbArc
 50
90
 51
180
  0
ARC
  5
149
100
AcDbEntity
  8
0
  6
ByLayer
 62
  256
370
   -1
100
AcDbCircle
 10
33.19375008678374
 20
64.14999999979072
 40
0
100
AcDbArc
 50
0
 51
90
  0
ARC
  5
14A
100
AcDbEntity
  8
0
  6
ByLayer
 62
  256
370
   -1
100
AcDbCircle
 10
19.19375008678374
 20
50.14999999979072
 40
0
100
AcDbArc
 50
180
 51
270
  0
ARC
  5
14B
100
AcDbEntity
  8
0
  6
ByLayer
 62
  256
370
   -1
100
AcDbCircle
 10
33.19375008678374
 20
50.14999999979072
 40
0
100
AcDbArc
 50
270
 51
360
  0
LINE
  5
14C
100
AcDbEntity
  8
0
  6
ByLayer
 62
  256
370
   -1
100
AcDbLine
 10
45.38750008678375
 20
64.14999999979072
 11
59.38750008678375
 21
64.14999999979072
  0
LINE
  5
14D
100
AcDbEntity
  8
0
  6
ByLayer
 62
  256
370
   -1
100
AcDbLine
 10
45.38750008678375
 20
50.14999999979072
 11
59.38750008678375
 21
50.14999999979072
  0
LINE
  5
14E
100
AcDbEntity
  8
0
  6
ByLayer
 62
  256
370
   -1
100
AcDbLine
 10
45.38750008678375
 20
64.14999999979072
 11
45.38750008678375
 21
50.14999999979072
  0
LINE
  5
14F
100
AcDbEntity
  8
0
  6
ByLayer
 62
  256
370
   -1
100
AcDbLine
 10
59.38750008678375
 20
64.14999999979072
 11
59.38750008678375
 21
50.14999999979072
  0
ARC
  5
150
100
AcDbEntity
  8
0
  6
ByLayer
 62
  256
370
   -1
100
AcDbCircle
 10
45.38750008678375
 20
64.14999999979072
 40
0
100
AcDbArc
 50
90
 51
180
  0
ARC
  5
151
100
AcDbEntity
  8
0
  6
ByLayer
 62
  256
370
   -1
100
AcDbCircle
 10
59.38750008678375
 20
64.14999999979072
 40
0
100
AcDbArc
 50
0
 51
90
  0
ARC
  5
152
100
AcDbEntity
  8
0
  6
ByLayer
 62
  256
370
   -1
100
AcDbCircle
 10
45.38750008678375
 20
50.14999999979072
 40
0
100
AcDbArc
 50
180
 51
270
  0
ARC
  5
153
100
AcDbEntity
  8
0
  6
ByLayer
 62
  256
370
   -1
100
AcDbCircle
 10
59.38750008678375
 20
50.14999999979072
 40
0
100
AcDbArc
 50
270
 51
360
  0
LINE
  5
154
100
AcDbEntity
  8
0
  6
ByLayer
 62
  256
370
   -1
100
AcDbLine
 10
64.43750008678374
 20
64.14999999979072
 11
78.43750008678374
 21
64.14999999979072
  0
LINE
  5
155
100
AcDbEntity
  8
0
  6
ByLayer
 62
  256
370
   -1
100
AcDbLine
 10
64.43750008678374
 20
50.14999999979072
 11
78.43750008678374
 21
50.14999999979072
  0
LINE
  5
156
100
AcDbEntity
  8
0
  6
ByLayer
 62
  256
370
   -1
100
AcDbLine
 10
64.43750008678374
 20
64.14999999979072
 11
64.43750008678374
 21
50.14999999979072
  0
LINE
  5
157
100
AcDbEntity
  8
0
  6
ByLayer
 62
  256
370
   -1
100
AcDbLine
 10
78.43750008678374
 20
64.14999999979072
 11
78.43750008678374
 21
50.14999999979072
  0
ARC
  5
158
100
AcDbEntity
  8
0
  6
ByLayer
 62
  256
370
   -1
100
AcDbCircle
 10
64.43750008678374
 20
64.14999999979072
 40
0
100
AcDbArc
 50
90
 51
180
  0
ARC
  5
159
100
AcDbEntity
  8
0
  6
ByLayer
 62
  256
370
   -1
100
AcDbCircle
 10
78.43750008678374
 20
64.14999999979072
 40
0
100
AcDbArc
 50
0
 51
90
  0
ARC
  5
15A
100
AcDbEntity
  8
0
  6
ByLayer
 62
  256
370
   -1
100
AcDbCircle
 10
64.43750008678374
 20
50.14999999979072
 40
0
100
AcDbArc
 50
180
 51
270
  0
ARC
  5
15B
100
AcDbEntity
  8
0
  6
ByLayer
 62
  256
370
   -1
100
AcDbCircle
 10
78.43750008678374
 20
50.14999999979072
 40
0
100
AcDbArc
 50
270
 51
360
  0
LINE
  5
15C
100
AcDbEntity
  8
0
  6
ByLayer
 62
  256
370
   -1
100
AcDbLine
 10
83.48750008678374
 20
64.14999999979072
 11
97.48750008678374
 21
64.14999999979072
  0
LINE
  5
15D
100
AcDbEntity
  8
0
  6
ByLayer
 62
  256
370
   -1
100
AcDbLine
 10
83.48750008678374
 20
50.14999999979072
 11
97.48750008678374
 21
50.14999999979072
  0
LINE
  5
15E
100
AcDbEntity
  8
0
  6
ByLayer
 62
  256
370
   -1
100
AcDbLine
 10
83.48750008678374
 20
64.14999999979072
 11
83.48750008678374
 21
50.14999999979072
  0
LINE
  5
15F
100
AcDbEntity
  8
0
  6
ByLayer
 62
  256
370
   -1
100
AcDbLine
 10
97.48750008678374
 20
64.14999999979072
 11
97.48750008678374
 21
50.14999999979072
  0
ARC
  5
160
100
AcDbEntity
  8
0
  6
ByLayer
 62
  256
370
   -1
100
AcDbCircle
 10
83.48750008678374
 20
64.14999999979072
 40
0
100
AcDbArc
 50
90
 51
180
  0
ARC
  5
161
100
AcDbEntity
  8
0
  6
ByLayer
 62
  256
370
   -1
100
AcDbCircle
 10
97.48750008678374
 20
64.14999999979072
 40
0
100
AcDbArc
 50
0
 51
90
  0
ARC
  5
162
100
AcDbEntity
  8
0
  6
ByLayer
 62
  256
370
   -1
100
AcDbCircle
 10
83.48750008678374
 20
50.14999999979072
 40
0
100
AcDbArc
 50
180
 51
270
  0
ARC
  5
163
100
AcDbEntity
  8
0
  6
ByLayer
 62
  256
370
   -1
100
AcDbCircle
 10
97.48750008678374
 20
50.14999999979072
 40
0
100
AcDbArc
 50
270
 51
360
  0
LINE
  5
164
100
AcDbEntity
  8
0
  6
ByLayer
 62
  256
370
   -1
100
AcDbLine
 10
102.5375000867837
 20
64.14999999979072
 11
116.5375000867837
 21
64.14999999979072
  0
LINE
  5
165
100
AcDbEntity
  8
0
  6
ByLayer
 62
  256
370
   -1
100
AcDbLine
 10
102.5375000867837
 20
50.14999999979072
 11
116.5375000867837
 21
50.14999999979072
  0
LINE
  5
166
100
AcDbEntity
  8
0
  6
ByLayer
 62
  256
370
   -1
100
AcDbLine
 10
102.5375000867837
 20
64.14999999979072
 11
102.5375000867837
 21
50.14999999979072
  0
LINE
  5
167
100
AcDbEntity
  8
0
  6
ByLayer
 62
  256
370
   -1
100
AcDbLine
 10
116.5375000867837
 20
64.14999999979072
 11
116.5375000867837
 21
50.14999999979072
  0
ARC
  5
168
100
AcDbEntity
  8
0
  6
ByLayer
 62
  256
370
   -1
100
AcDbCircle
 10
102.5375000867837
 20
64.14999999979072
 40
0
100
AcDbArc
 50
90
 51
180
  0
ARC
  5
169
100
AcDbEntity
  8
0
  6
ByLayer
 62
  256
370
   -1
100
AcDbCircle
 10
116.5375000867837
 20
64.14999999979072
 40
0
100
AcDbArc
 50
0
 51
90
  0
ARC
  5
16A
100
AcDbEntity
  8
0
  6
ByLayer
 62
  256
370
   -1
100
AcDbCircle
 10
102.5375000867837
 20
50.14999999979072
 40
0
100
AcDbArc
 50
180
 51
270
  0
ARC
  5
16B
100
AcDbEntity
  8
0
  6
ByLayer
 62
  256
370
   -1
100
AcDbCircle
 10
116.5375000867837
 20
50.14999999979072
 40
0
100
AcDbArc
 50
270
 51
360
  0
LINE
  5
16C
100
AcDbEntity
  8
0
  6
ByLayer
 62
  256
370
   -1
100
AcDbLine
 10
121.5875000867837
 20
64.14999999979072
 11
135.5875000867837
 21
64.14999999979072
  0
LINE
  5
16D
100
AcDbEntity
  8
0
  6
ByLayer
 62
  256
370
   -1
100
AcDbLine
 10
121.5875000867837
 20
50.14999999979072
 11
135.5875000867837
 21
50.14999999979072
  0
LINE
  5
16E
100
AcDbEntity
  8
0
  6
ByLayer
 62
  256
370
   -1
100
AcDbLine
 10
121.5875000867837
 20
64.14999999979072
 11
121.5875000867837
 21
50.14999999979072
  0
LINE
  5
16F
100
AcDbEntity
  8
0
  6
ByLayer
 62
  256
370
   -1
100
AcDbLine
 10
135.5875000867837
 20
64.14999999979072
 11
135.5875000867837
 21
50.14999999979072
  0
ARC
  5
170
100
AcDbEntity
  8
0
  6
ByLayer
 62
  256
370
   -1
100
AcDbCircle
 10
121.5875000867837
 20
64.14999999979072
 40
0
100
AcDbArc
 50
90
 51
180
  0
ARC
  5
171
100
AcDbEntity
  8
0
  6
ByLayer
 62
  256
370
   -1
100
AcDbCircle
 10
135.5875000867837
 20
64.14999999979072
 40
0
100
AcDbArc
 50
0
 51
90
  0
ARC
  5
172
100
AcDbEntity
  8
0
  6
ByLayer
 62
  256
370
   -1
100
AcDbCircle
 10
121.5875000867837
 20
50.14999999979072
 40
0
100
AcDbArc
 50
180
 51
270
  0
ARC
  5
173
100
AcDbEntity
  8
0
  6
ByLayer
 62
  256
370
   -1
100
AcDbCircle
 10
135.5875000867837
 20
50.14999999979072
 40
0
100
AcDbArc
 50
270
 51
360
  0
LINE
  5
174
100
AcDbEntity
  8
0
  6
ByLayer
 62
  256
370
   -1
100
AcDbLine
 10
140.6375000867837
 20
64.14999999979072
 11
154.6375000867838
 21
64.14999999979072
  0
LINE
  5
175
100
AcDbEntity
  8
0
  6
ByLayer
 62
  256
370
   -1
100
AcDbLine
 10
140.6375000867837
 20
50.14999999979072
 11
154.6375000867838
 21
50.14999999979072
  0
LINE
  5
176
100
AcDbEntity
  8
0
  6
ByLayer
 62
  256
370
   -1
100
AcDbLine
 10
140.6375000867837
 20
64.14999999979072
 11
140.6375000867837
 21
50.14999999979072
  0
LINE
  5
177
100
AcDbEntity
  8
0
  6
ByLayer
 62
  256
370
   -1
100
AcDbLine
 10
154.6375000867838
 20
64.14999999979072
 11
154.6375000867838
 21
50.14999999979072
  0
ARC
  5
178
100
AcDbEntity
  8
0
  6
ByLayer
 62
  256
370
   -1
100
AcDbCircle
 10
140.6375000867837
 20
64.14999999979072
 40
0
100
AcDbArc
 50
90
 51
180
  0
ARC
  5
179
100
AcDbEntity
  8
0
  6
ByLayer
 62
  256
370
   -1
100
AcDbCircle
 10
154.6375000867838
 20
64.14999999979072
 40
0
100
AcDbArc
 50
0
 51
90
  0
ARC
  5
17A
100
AcDbEntity
  8
0
  6
ByLayer
 62
  256
370
   -1
100
AcDbCircle
 10
140.6375000867837
 20
50.14999999979072
 40
0
100
AcDbArc
 50
180
 51
270
  0
ARC
  5
17B
100
AcDbEntity
  8
0
  6
ByLayer
 62
  256
370
   -1
100
AcDbCircle
 10
154.6375000867838
 20
50.14999999979072
 40
0
100
AcDbArc
 50
270
 51
360
  0
LINE
  5
17C
100
AcDbEntity
  8
0
  6
ByLayer
 62
  256
370
   -1
100
AcDbLine
 10
159.6875000867838
 20
64.14999999979072
 11
173.6875000867838
 21
64.14999999979072
  0
LINE
  5
17D
100
AcDbEntity
  8
0
  6
ByLayer
 62
  256
370
   -1
100
AcDbLine
 10
159.6875000867838
 20
50.14999999979072
 11
173.6875000867838
 21
50.14999999979072
  0
LINE
  5
17E
100
AcDbEntity
  8
0
  6
ByLayer
 62
  256
370
   -1
100
AcDbLine
 10
159.6875000867838
 20
64.14999999979072
 11
159.6875000867838
 21
50.14999999979072
  0
LINE
  5
17F
100
AcDbEntity
  8
0
  6
ByLayer
 62
  256
370
   -1
100
AcDbLine
 10
173.6875000867838
 20
64.14999999979072
 11
173.6875000867838
 21
50.14999999979072
  0
ARC
  5
180
100
AcDbEntity
  8
0
  6
ByLayer
 62
  256
370
   -1
100
AcDbCircle
 10
159.6875000867838
 20
64.14999999979072
 40
0
100
AcDbArc
 50
90
 51
180
  0
ARC
  5
181
100
AcDbEntity
  8
0
  6
ByLayer
 62
  256
370
   -1
100
AcDbCircle
 10
173.6875000867838
 20
64.14999999979072
 40
0
100
AcDbArc
 50
0
 51
90
  0
ARC
  5
182
100
AcDbEntity
  8
0
  6
ByLayer
 62
  256
370
   -1
100
AcDbCircle
 10
159.6875000867838
 20
50.14999999979072
 40
0
100
AcDbArc
 50
180
 51
270
  0
ARC
  5
183
100
AcDbEntity
  8
0
  6
ByLayer
 62
  256
370
   -1
100
AcDbCircle
 10
173.6875000867838
 20
50.14999999979072
 40
0
100
AcDbArc
 50
270
 51
360
  0
LINE
  5
184
100
AcDbEntity
  8
0
  6
ByLayer
 62
  256
370
   -1
100
AcDbLine
 10
178.7375000867838
 20
64.14999999979072
 11
192.7375000867838
 21
64.14999999979072
  0
LINE
  5
185
100
AcDbEntity
  8
0
  6
ByLayer
 62
  256
370
   -1
100
AcDbLine
 10
178.7375000867838
 20
50.14999999979072
 11
192.7375000867838
 21
50.14999999979072
  0
LINE
  5
186
100
AcDbEntity
  8
0
  6
ByLayer
 62
  256
370
   -1
100
AcDbLine
 10
178.7375000867838
 20
64.14999999979072
 11
178.7375000867838
 21
50.14999999979072
  0
LINE
  5
187
100
AcDbEntity
  8
0
  6
ByLayer
 62
  256
370
   -1
100
AcDbLine
 10
192.7375000867838
 20
64.14999999979072
 11
192.7375000867838
 21
50.14999999979072
  0
ARC
  5
188
100
AcDbEntity
  8
0
  6
ByLayer
 62
  256
370
   -1
100
AcDbCircle
 10
178.7375000867838
 20
64.14999999979072
 40
0
100
AcDbArc
 50
90
 51
180
  0
ARC
  5
189
100
AcDbEntity
  8
0
  6
ByLayer
 62
  256
370
   -1
100
AcDbCircle
 10
192.7375000867838
 20
64.14999999979072
 40
0
100
AcDbArc
 50
0
 51
90
  0
ARC
  5
18A
100
AcDbEntity
  8
0
  6
ByLayer
 62
  256
370
   -1
100
AcDbCircle
 10
178.7375000867838
 20
50.14999999979072
 40
0
100
AcDbArc
 50
180
 51
270
  0
ARC
  5
18B
100
AcDbEntity
  8
0
  6
ByLayer
 62
  256
370
   -1
100
AcDbCircle
 10
192.7375000867838
 20
50.14999999979072
 40
0
100
AcDbArc
 50
270
 51
360
  0
LINE
  5
18C
100
AcDbEntity
  8
0
  6
ByLayer
 62
  256
370
   -1
100
AcDbLine
 10
197.7875000867838
 20
64.14999999979072
 11
211.7875000867838
 21
64.14999999979072
  0
LINE
  5
18D
100
AcDbEntity
  8
0
  6
ByLayer
 62
  256
370
   -1
100
AcDbLine
 10
197.7875000867838
 20
50.14999999979072
 11
211.7875000867838
 21
50.14999999979072
  0
LINE
  5
18E
100
AcDbEntity
  8
0
  6
ByLayer
 62
  256
370
   -1
100
AcDbLine
 10
197.7875000867838
 20
64.14999999979072
 11
197.7875000867838
 21
50.14999999979072
  0
LINE
  5
18F
100
AcDbEntity
  8
0
  6
ByLayer
 62
  256
370
   -1
100
AcDbLine
 10
211.7875000867838
 20
64.14999999979072
 11
211.7875000867838
 21
50.14999999979072
  0
ARC
  5
190
100
AcDbEntity
  8
0
  6
ByLayer
 62
  256
370
   -1
100
AcDbCircle
 10
197.7875000867838
 20
64.14999999979072
 40
0
100
AcDbArc
 50
90
 51
180
  0
ARC
  5
191
100
AcDbEntity
  8
0
  6
ByLayer
 62
  256
370
   -1
100
AcDbCircle
 10
211.7875000867838
 20
64.14999999979072
 40
0
100
AcDbArc
 50
0
 51
90
  0
ARC
  5
192
100
AcDbEntity
  8
0
  6
ByLayer
 62
  256
370
   -1
100
AcDbCircle
 10
197.7875000867838
 20
50.14999999979072
 40
0
100
AcDbArc
 50
180
 51
270
  0
ARC
  5
193
100
AcDbEntity
  8
0
  6
ByLayer
 62
  256
370
   -1
100
AcDbCircle
 10
211.7875000867838
 20
50.14999999979072
 40
0
100
AcDbArc
 50
270
 51
360
  0
LINE
  5
194
100
AcDbEntity
  8
0
  6
ByLayer
 62
  256
370
   -1
100
AcDbLine
 10
216.8375000867838
 20
64.14999999979072
 11
230.8375000867838
 21
64.14999999979072
  0
LINE
  5
195
100
AcDbEntity
  8
0
  6
ByLayer
 62
  256
370
   -1
100
AcDbLine
 10
216.8375000867838
 20
50.14999999979072
 11
230.8375000867838
 21
50.14999999979072
  0
LINE
  5
196
100
AcDbEntity
  8
0
  6
ByLayer
 62
  256
370
   -1
100
AcDbLine
 10
216.8375000867838
 20
64.14999999979072
 11
216.8375000867838
 21
50.14999999979072
  0
LINE
  5
197
100
AcDbEntity
  8
0
  6
ByLayer
 62
  256
370
   -1
100
AcDbLine
 10
230.8375000867838
 20
64.14999999979072
 11
230.8375000867838
 21
50.14999999979072
  0
ARC
  5
198
100
AcDbEntity
  8
0
  6
ByLayer
 62
  256
370
   -1
100
AcDbCircle
 10
216.8375000867838
 20
64.14999999979072
 40
0
100
AcDbArc
 50
90
 51
180
  0
ARC
  5
199
100
AcDbEntity
  8
0
  6
ByLayer
 62
  256
370
   -1
100
AcDbCircle
 10
230.8375000867838
 20
64.14999999979072
 40
0
100
AcDbArc
 50
0
 51
90
  0
ARC
  5
19A
100
AcDbEntity
  8
0
  6
ByLayer
 62
  256
370
   -1
100
AcDbCircle
 10
216.8375000867838
 20
50.14999999979072
 40
0
100
AcDbArc
 50
180
 51
270
  0
ARC
  5
19B
100
AcDbEntity
  8
0
  6
ByLayer
 62
  256
370
   -1
100
AcDbCircle
 10
230.8375000867838
 20
50.14999999979072
 40
0
100
AcDbArc
 50
270
 51
360
  0
LINE
  5
19C
100
AcDbEntity
  8
0
  6
ByLayer
 62
  256
370
   -1
100
AcDbLine
 10
235.8875000867838
 20
64.14999999979072
 11
249.8875000867838
 21
64.14999999979072
  0
LINE
  5
19D
100
AcDbEntity
  8
0
  6
ByLayer
 62
  256
370
   -1
100
AcDbLine
 10
235.8875000867838
 20
50.14999999979072
 11
249.8875000867838
 21
50.14999999979072
  0
LINE
  5
19E
100
AcDbEntity
  8
0
  6
ByLayer
 62
  256
370
   -1
100
AcDbLine
 10
235.8875000867838
 20
64.14999999979072
 11
235.8875000867838
 21
50.14999999979072
  0
LINE
  5
19F
100
AcDbEntity
  8
0
  6
ByLayer
 62
  256
370
   -1
100
AcDbLine
 10
249.8875000867838
 20
64.14999999979072
 11
249.8875000867838
 21
50.14999999979072
  0
ARC
  5
1A0
100
AcDbEntity
  8
0
  6
ByLayer
 62
  256
370
   -1
100
AcDbCircle
 10
235.8875000867838
 20
64.14999999979072
 40
0
100
AcDbArc
 50
90
 51
180
  0
ARC
  5
1A1
100
AcDbEntity
  8
0
  6
ByLayer
 62
  256
370
   -1
100
AcDbCircle
 10
249.8875000867838
 20
64.14999999979072
 40
0
100
AcDbArc
 50
0
 51
90
  0
ARC
  5
1A2
100
AcDbEntity
  8
0
  6
ByLayer
 62
  256
370
   -1
100
AcDbCircle
 10
235.8875000867838
 20
50.14999999979072
 40
0
100
AcDbArc
 50
180
 51
270
  0
ARC
  5
1A3
100
AcDbEntity
  8
0
  6
ByLayer
 62
  256
370
   -1
100
AcDbCircle
 10
249.8875000867838
 20
50.14999999979072
 40
0
100
AcDbArc
 50
270
 51
360
  0
LINE
  5
1A4
100
AcDbEntity
  8
0
  6
ByLayer
 62
  256
370
   -1
100
AcDbLine
 10
266.8437500867838
 20
64.14999999979072
 11
280.8437500867838
 21
64.14999999979072
  0
LINE
  5
1A5
100
AcDbEntity
  8
0
  6
ByLayer
 62
  256
370
   -1
100
AcDbLine
 10
266.8437500867838
 20
50.14999999979072
 11
280.8437500867838
 21
50.14999999979072
  0
LINE
  5
1A6
100
AcDbEntity
  8
0
  6
ByLayer
 62
  256
370
   -1
100
AcDbLine
 10
266.8437500867838
 20
64.14999999979072
 11
266.8437500867838
 21
50.14999999979072
  0
LINE
  5
1A7
100
AcDbEntity
  8
0
  6
ByLayer
 62
  256
370
   -1
100
AcDbLine
 10
280.8437500867838
 20
64.14999999979072
 11
280.8437500867838
 21
50.14999999979072
  0
ARC
  5
1A8
100
AcDbEntity
  8
0
  6
ByLayer
 62
  256
370
   -1
100
AcDbCircle
 10
266.8437500867838
 20
64.14999999979072
 40
0
100
AcDbArc
 50
90
 51
180
  0
ARC
  5
1A9
100
AcDbEntity
  8
0
  6
ByLayer
 62
  256
370
   -1
100
AcDbCircle
 10
280.8437500867838
 20
64.14999999979072
 40
0
100
AcDbArc
 50
0
 51
90
  0
ARC
  5
1AA
100
AcDbEntity
  8
0
  6
ByLayer
 62
  256
370
   -1
100
AcDbCircle
 10
266.8437500867838
 20
50.14999999979072
 40
0
100
AcDbArc
 50
180
 51
270
  0
ARC
  5
1AB
100
AcDbEntity
  8
0
  6
ByLayer
 62
  256
370
   -1
100
AcDbCircle
 10
280.8437500867838
 20
50.14999999979072
 40
0
100
AcDbArc
 50
270
 51
360
  0
LINE
  5
1AC
100
AcDbEntity
  8
0
  6
ByLayer
 62
  256
370
   -1
100
AcDbLine
 10
282.4067500867837
 20
63.14999999979072
 11
289.1567500867837
 21
63.14999999979072
  0
LINE
  5
1AD
100
AcDbEntity
  8
0
  6
ByLayer
 62
  256
370
   -1
100
AcDbLine
 10
282.4067500867837
 20
49.14999999979072
 11
289.1567500867837
 21
49.14999999979072
  0
LINE
  5
1AE
100
AcDbEntity
  8
0
  6
ByLayer
 62
  256
370
   -1
100
AcDbLine
 10
282.4067500867837
 20
63.14999999979072
 11
282.4067500867837
 21
49.14999999979072
  0
LINE
  5
1AF
100
AcDbEntity
  8
0
  6
ByLayer
 62
  256
370
   -1
100
AcDbLine
 10
289.1567500867837
 20
63.14999999979072
 11
289.1567500867837
 21
49.14999999979072
  0
ARC
  5
1B0
100
AcDbEntity
  8
0
  6
ByLayer
 62
  256
370
   -1
100
AcDbCircle
 10
282.4067500867837
 20
63.14999999979072
 40
0
100
AcDbArc
 50
90
 51
180
  0
ARC
  5
1B1
100
AcDbEntity
  8
0
  6
ByLayer
 62
  256
370
   -1
100
AcDbCircle
 10
289.1567500867837
 20
63.14999999979072
 40
0
100
AcDbArc
 50
0
 51
90
  0
ARC
  5
1B2
100
AcDbEntity
  8
0
  6
ByLayer
 62
  256
370
   -1
100
AcDbCircle
 10
282.4067500867837
 20
49.14999999979072
 40
0
100
AcDbArc
 50
180
 51
270
  0
ARC
  5
1B3
100
AcDbEntity
  8
0
  6
ByLayer
 62
  256
370
   -1
100
AcDbCircle
 10
289.1567500867837
 20
49.14999999979072
 40
0
100
AcDbArc
 50
270
 51
360
  0
LINE
  5
1B4
100
AcDbEntity
  8
0
  6
ByLayer
 62
  256
370
   -1
100
AcDbLine
 10
258.5307500867838
 20
63.14999999979072
 11
265.2807500867838
 21
63.14999999979072
  0
LINE
  5
1B5
100
AcDbEntity
  8
0
  6
ByLayer
 62
  256
370
   -1
100
AcDbLine
 10
258.5307500867838
 20
49.14999999979072
 11
265.2807500867838
 21
49.14999999979072
  0
LINE
  5
1B6
100
AcDbEntity
  8
0
  6
ByLayer
 62
  256
370
   -1
100
AcDbLine
 10
258.5307500867838
 20
63.14999999979072
 11
258.5307500867838
 21
49.14999999979072
  0
LINE
  5
1B7
100
AcDbEntity
  8
0
  6
ByLayer
 62
  256
370
   -1
100
AcDbLine
 10
265.2807500867838
 20
63.14999999979072
 11
265.2807500867838
 21
49.14999999979072
  0
ARC
  5
1B8
100
AcDbEntity
  8
0
  6
ByLayer
 62
  256
370
   -1
100
AcDbCircle
 10
258.5307500867838
 20
63.14999999979072
 40
0
100
AcDbArc
 50
90
 51
180
  0
ARC
  5
1B9
100
AcDbEntity
  8
0
  6
ByLayer
 62
  256
370
   -1
100
AcDbCircle
 10
265.2807500867838
 20
63.14999999979072
 40
0
100
AcDbArc
 50
0
 51
90
  0
ARC
  5
1BA
100
AcDbEntity
  8
0
  6
ByLayer
 62
  256
370
   -1
100
AcDbCircle
 10
258.5307500867838
 20
49.14999999979072
 40
0
100
AcDbArc
 50
180
 51
270
  0
ARC
  5
1BB
100
AcDbEntity
  8
0
  6
ByLayer
 62
  256
370
   -1
100
AcDbCircle
 10
265.2807500867838
 20
49.14999999979072
 40
0
100
AcDbArc
 50
270
 51
360
  0
LINE
  5
1BC
100
AcDbEntity
  8
0
  6
ByLayer
 62
  256
370
   -1
100
AcDbLine
 10
23.95625008678374
 20
45.09999999979073
 11
37.95625008678374
 21
45.09999999979073
  0
LINE
  5
1BD
100
AcDbEntity
  8
0
  6
ByLayer
 62
  256
370
   -1
100
AcDbLine
 10
23.95625008678374
 20
31.09999999979073
 11
37.95625008678374
 21
31.09999999979073
  0
LINE
  5
1BE
100
AcDbEntity
  8
0
  6
ByLayer
 62
  256
370
   -1
100
AcDbLine
 10
23.95625008678374
 20
45.09999999979073
 11
23.95625008678374
 21
31.09999999979073
  0
LINE
  5
1BF
100
AcDbEntity
  8
0
  6
ByLayer
 62
  256
370
   -1
100
AcDbLine
 10
37.95625008678374
 20
45.09999999979073
 11
37.95625008678374
 21
31.09999999979073
  0
ARC
  5
1C0
100
AcDbEntity
  8
0
  6
ByLayer
 62
  256
370
   -1
100
AcDbCircle
 10
23.95625008678374
 20
45.09999999979073
 40
0
100
AcDbArc
 50
90
 51
180
  0
ARC
  5
1C1
100
AcDbEntity
  8
0
  6
ByLayer
 62
  256
370
   -1
100
AcDbCircle
 10
37.95625008678374
 20
45.09999999979073
 40
0
100
AcDbArc
 50
0
 51
90
  0
ARC
  5
1C2
100
AcDbEntity
  8
0
  6
ByLayer
 62
  256
370
   -1
100
AcDbCircle
 10
23.95625008678374
 20
31.09999999979073
 40
0
100
AcDbArc
 50
180
 51
270
  0
ARC
  5
1C3
100
AcDbEntity
  8
0
  6
ByLayer
 62
  256
370
   -1
100
AcDbCircle
 10
37.95625008678374
 20
31.09999999979073
 40
0
100
AcDbArc
 50
270
 51
360
  0
LINE
  5
1C4
100
AcDbEntity
  8
0
  6
ByLayer
 62
  256
370
   -1
100
AcDbLine
 10
39.51925008678374
 20
44.09999999979073
 11
46.26925008678374
 21
44.09999999979073
  0
LINE
  5
1C5
100
AcDbEntity
  8
0
  6
ByLayer
 62
  256
370
   -1
100
AcDbLine
 10
39.51925008678374
 20
30.09999999979073
 11
46.26925008678374
 21
30.09999999979073
  0
LINE
  5
1C6
100
AcDbEntity
  8
0
  6
ByLayer
 62
  256
370
   -1
100
AcDbLine
 10
39.51925008678374
 20
44.09999999979073
 11
39.51925008678374
 21
30.09999999979073
  0
LINE
  5
1C7
100
AcDbEntity
  8
0
  6
ByLayer
 62
  256
370
   -1
100
AcDbLine
 10
46.26925008678374
 20
44.09999999979073
 11
46.26925008678374
 21
30.09999999979073
  0
ARC
  5
1C8
100
AcDbEntity
  8
0
  6
ByLayer
 62
  256
370
   -1
100
AcDbCircle
 10
39.51925008678374
 20
44.09999999979073
 40
0
100
AcDbArc
 50
90
 51
180
  0
ARC
  5
1C9
100
AcDbEntity
  8
0
  6
ByLayer
 62
  256
370
   -1
100
AcDbCircle
 10
46.26925008678374
 20
44.09999999979073
 40
0
100
AcDbArc
 50
0
 51
90
  0
ARC
  5
1CA
100
AcDbEntity
  8
0
  6
ByLayer
 62
  256
370
   -1
100
AcDbCircle
 10
39.51925008678374
 20
30.09999999979073
 40
0
100
AcDbArc
 50
180
 51
270
  0
ARC
  5
1CB
100
AcDbEntity
  8
0
  6
ByLayer
 62
  256
370
   -1
100
AcDbCircle
 10
46.26925008678374
 20
30.09999999979073
 40
0
100
AcDbArc
 50
270
 51
360
  0
LINE
  5
1CC
100
AcDbEntity
  8
0
  6
ByLayer
 62
  256
370
   -1
100
AcDbLine
 10
15.64325008678374
 20
44.09999999979073
 11
22.39325008678374
 21
44.09999999979073
  0
LINE
  5
1CD
100
AcDbEntity
  8
0
  6
ByLayer
 62
  256
370
   -1
100
AcDbLine
 10
15.64325008678374
 20
30.09999999979073
 11
22.39325008678374
 21
30.09999999979073
  0
LINE
  5
1CE
100
AcDbEntity
  8
0
  6
ByLayer
 62
  256
370
   -1
100
AcDbLine
 10
15.64325008678374
 20
44.09999999979073
 11
15.64325008678374
 21
30.09999999979073
  0
LINE
  5
1CF
100
AcDbEntity
  8
0
  6
ByLayer
 62
  256
370
   -1
100
AcDbLine
 10
22.39325008678374
 20
44.09999999979073
 11
22.39325008678374
 21
30.09999999979073
  0
ARC
  5
1D0
100
AcDbEntity
  8
0
  6
ByLayer
 62
  256
370
   -1
100
AcDbCircle
 10
15.64325008678374
 20
44.09999999979073
 40
0
100
AcDbArc
 50
90
 51
180
  0
ARC
  5
1D1
100
AcDbEntity
  8
0
  6
ByLayer
 62
  256
370
   -1
100
AcDbCircle
 10
22.39325008678374
 20
44.09999999979073
 40
0
100
AcDbArc
 50
0
 51
90
  0
ARC
  5
1D2
100
AcDbEntity
  8
0
  6
ByLayer
 62
  256
370
   -1
100
AcDbCircle
 10
15.64325008678374
 20
30.09999999979073
 40
0
100
AcDbArc
 50
180
 51
270
  0
ARC
  5
1D3
100
AcDbEntity
  8
0
  6
ByLayer
 62
  256
370
   -1
100
AcDbCircle
 10
22.39325008678374
 20
30.09999999979073
 40
0
100
AcDbArc
 50
270
 51
360
  0
LINE
  5
1D4
100
AcDbEntity
  8
0
  6
ByLayer
 62
  256
370
   -1
100
AcDbLine
 10
54.91250008678375
 20
45.09999999979073
 11
68.91250008678375
 21
45.09999999979073
  0
LINE
  5
1D5
100
AcDbEntity
  8
0
  6
ByLayer
 62
  256
370
   -1
100
AcDbLine
 10
54.91250008678375
 20
31.09999999979073
 11
68.91250008678375
 21
31.09999999979073
  0
LINE
  5
1D6
100
AcDbEntity
  8
0
  6
ByLayer
 62
  256
370
   -1
100
AcDbLine
 10
54.91250008678375
 20
45.09999999979073
 11
54.91250008678375
 21
31.09999999979073
  0
LINE
  5
1D7
100
AcDbEntity
  8
0
  6
ByLayer
 62
  256
370
   -1
100
AcDbLine
 10
68.91250008678375
 20
45.09999999979073
 11
68.91250008678375
 21
31.09999999979073
  0
ARC
  5
1D8
100
AcDbEntity
  8
0
  6
ByLayer
 62
  256
370
   -1
100
AcDbCircle
 10
54.91250008678375
 20
45.09999999979073
 40
0
100
AcDbArc
 50
90
 51
180
  0
ARC
  5
1D9
100
AcDbEntity
  8
0
  6
ByLayer
 62
  256
370
   -1
100
AcDbCircle
 10
68.91250008678375
 20
45.09999999979073
 40
0
100
AcDbArc
 50
0
 51
90
  0
ARC
  5
1DA
100
AcDbEntity
  8
0
  6
ByLayer
 62
  256
370
   -1
100
AcDbCircle
 10
54.91250008678375
 20
31.09999999979073
 40
0
100
AcDbArc
 50
180
 51
270
  0
ARC
  5
1DB
100
AcDbEntity
  8
0
  6
ByLayer
 62
  256
370
   -1
100
AcDbCircle
 10
68.91250008678375
 20
31.09999999979073
 40
0
100
AcDbArc
 50
270
 51
360
  0
LINE
  5
1DC
100
AcDbEntity
  8
0
  6
ByLayer
 62
  256
370
   -1
100
AcDbLine
 10
73.96250008678375
 20
45.09999999979073
 11
87.96250008678373
 21
45.09999999979073
  0
LINE
  5
1DD
100
AcDbEntity
  8
0
  6
ByLayer
 62
  256
370
   -1
100
AcDbLine
 10
73.96250008678375
 20
31.09999999979073
 11
87.96250008678373
 21
31.09999999979073
  0
LINE
  5
1DE
100
AcDbEntity
  8
0
  6
ByLayer
 62
  256
370
   -1
100
AcDbLine
 10
73.96250008678375
 20
45.09999999979073
 11
73.96250008678375
 21
31.09999999979073
  0
LINE
  5
1DF
100
AcDbEntity
  8
0
  6
ByLayer
 62
  256
370
   -1
100
AcDbLine
 10
87.96250008678373
 20
45.09999999979073
 11
87.96250008678373
 21
31.09999999979073
  0
ARC
  5
1E0
100
AcDbEntity
  8
0
  6
ByLayer
 62
  256
370
   -1
100
AcDbCircle
 10
73.96250008678375
 20
45.09999999979073
 40
0
100
AcDbArc
 50
90
 51
180
  0
ARC
  5
1E1
100
AcDbEntity
  8
0
  6
ByLayer
 62
  256
370
   -1
100
AcDbCircle
 10
87.96250008678373
 20
45.09999999979073
 40
0
100
AcDbArc
 50
0
 51
90
  0
ARC
  5
1E2
100
AcDbEntity
  8
0
  6
ByLayer
 62
  256
370
   -1
100
AcDbCircle
 10
73.96250008678375
 20
31.09999999979073
 40
0
100
AcDbArc
 50
180
 51
270
  0
ARC
  5
1E3
100
AcDbEntity
  8
0
  6
ByLayer
 62
  256
370
   -1
100
AcDbCircle
 10
87.96250008678373
 20
31.09999999979073
 40
0
100
AcDbArc
 50
270
 51
360
  0
LINE
  5
1E4
100
AcDbEntity
  8
0
  6
ByLayer
 62
  256
370
   -1
100
AcDbLine
 10
93.01250008678373
 20
45.09999999979073
 11
107.0125000867837
 21
45.09999999979073
  0
LINE
  5
1E5
100
AcDbEntity
  8
0
  6
ByLayer
 62
  256
370
   -1
100
AcDbLine
 10
93.01250008678373
 20
31.09999999979073
 11
107.0125000867837
 21
31.09999999979073
  0
LINE
  5
1E6
100
AcDbEntity
  8
0
  6
ByLayer
 62
  256
370
   -1
100
AcDbLine
 10
93.01250008678373
 20
45.09999999979073
 11
93.01250008678373
 21
31.09999999979073
  0
LINE
  5
1E7
100
AcDbEntity
  8
0
  6
ByLayer
 62
  256
370
   -1
100
AcDbLine
 10
107.0125000867837
 20
45.09999999979073
 11
107.0125000867837
 21
31.09999999979073
  0
ARC
  5
1E8
100
AcDbEntity
  8
0
  6
ByLayer
 62
  256
370
   -1
100
AcDbCircle
 10
93.01250008678373
 20
45.09999999979073
 40
0
100
AcDbArc
 50
90
 51
180
  0
ARC
  5
1E9
100
AcDbEntity
  8
0
  6
ByLayer
 62
  256
370
   -1
100
AcDbCircle
 10
107.0125000867837
 20
45.09999999979073
 40
0
100
AcDbArc
 50
0
 51
90
  0
ARC
  5
1EA
100
AcDbEntity
  8
0
  6
ByLayer
 62
  256
370
   -1
100
AcDbCircle
 10
93.01250008678373
 20
31.09999999979073
 40
0
100
AcDbArc
 50
180
 51
270
  0
ARC
  5
1EB
100
AcDbEntity
  8
0
  6
ByLayer
 62
  256
370
   -1
100
AcDbCircle
 10
107.0125000867837
 20
31.09999999979073
 40
0
100
AcDbArc
 50
270
 51
360
  0
LINE
  5
1EC
100
AcDbEntity
  8
0
  6
ByLayer
 62
  256
370
   -1
100
AcDbLine
 10
112.0625000867837
 20
45.09999999979073
 11
126.0625000867837
 21
45.09999999979073
  0
LINE
  5
1ED
100
AcDbEntity
  8
0
  6
ByLayer
 62
  256
370
   -1
100
AcDbLine
 10
112.0625000867837
 20
31.09999999979073
 11
126.0625000867837
 21
31.09999999979073
  0
LINE
  5
1EE
100
AcDbEntity
  8
0
  6
ByLayer
 62
  256
370
   -1
100
AcDbLine
 10
112.0625000867837
 20
45.09999999979073
 11
112.0625000867837
 21
31.09999999979073
  0
LINE
  5
1EF
100
AcDbEntity
  8
0
  6
ByLayer
 62
  256
370
   -1
100
AcDbLine
 10
126.0625000867837
 20
45.09999999979073
 11
126.0625000867837
 21
31.09999999979073
  0
ARC
  5
1F0
100
AcDbEntity
  8
0
  6
ByLayer
 62
  256
370
   -1
100
AcDbCircle
 10
112.0625000867837
 20
45.09999999979073
 40
0
100
AcDbArc
 50
90
 51
180
  0
ARC
  5
1F1
100
AcDbEntity
  8
0
  6
ByLayer
 62
  256
370
   -1
100
AcDbCircle
 10
126.0625000867837
 20
45.09999999979073
 40
0
100
AcDbArc
 50
0
 51
90
  0
ARC
  5
1F2
100
AcDbEntity
  8
0
  6
ByLayer
 62
  256
370
   -1
100
AcDbCircle
 10
112.0625000867837
 20
31.09999999979073
 40
0
100
AcDbArc
 50
180
 51
270
  0
ARC
  5
1F3
100
AcDbEntity
  8
0
  6
ByLayer
 62
  256
370
   -1
100
AcDbCircle
 10
126.0625000867837
 20
31.09999999979073
 40
0
100
AcDbArc
 50
270
 51
360
  0
LINE
  5
1F4
100
AcDbEntity
  8
0
  6
ByLayer
 62
  256
370
   -1
100
AcDbLine
 10
131.1125000867837
 20
45.09999999979073
 11
145.1125000867837
 21
45.09999999979073
  0
LINE
  5
1F5
100
AcDbEntity
  8
0
  6
ByLayer
 62
  256
370
   -1
100
AcDbLine
 10
131.1125000867837
 20
31.09999999979073
 11
145.1125000867837
 21
31.09999999979073
  0
LINE
  5
1F6
100
AcDbEntity
  8
0
  6
ByLayer
 62
  256
370
   -1
100
AcDbLine
 10
131.1125000867837
 20
45.09999999979073
 11
131.1125000867837
 21
31.09999999979073
  0
LINE
  5
1F7
100
AcDbEntity
  8
0
  6
ByLayer
 62
  256
370
   -1
100
AcDbLine
 10
145.1125000867837
 20
45.09999999979073
 11
145.1125000867837
 21
31.09999999979073
  0
ARC
  5
1F8
100
AcDbEntity
  8
0
  6
ByLayer
 62
  256
370
   -1
100
AcDbCircle
 10
131.1125000867837
 20
45.09999999979073
 40
0
100
AcDbArc
 50
90
 51
180
  0
ARC
  5
1F9
100
AcDbEntity
  8
0
  6
ByLayer
 62
  256
370
   -1
100
AcDbCircle
 10
145.1125000867837
 20
45.09999999979073
 40
0
100
AcDbArc
 50
0
 51
90
  0
ARC
  5
1FA
100
AcDbEntity
  8
0
  6
ByLayer
 62
  256
370
   -1
100
AcDbCircle
 10
131.1125000867837
 20
31.09999999979073
 40
0
100
AcDbArc
 50
180
 51
270
  0
ARC
  5
1FB
100
AcDbEntity
  8
0
  6
ByLayer
 62
  256
370
   -1
100
AcDbCircle
 10
145.1125000867837
 20
31.09999999979073
 40
0
100
AcDbArc
 50
270
 51
360
  0
LINE
  5
1FC
100
AcDbEntity
  8
0
  6
ByLayer
 62
  256
370
   -1
100
AcDbLine
 10
150.1625000867838
 20
45.09999999979073
 11
164.1625000867838
 21
45.09999999979073
  0
LINE
  5
1FD
100
AcDbEntity
  8
0
  6
ByLayer
 62
  256
370
   -1
100
AcDbLine
 10
150.1625000867838
 20
31.09999999979073
 11
164.1625000867838
 21
31.09999999979073
  0
LINE
  5
1FE
100
AcDbEntity
  8
0
  6
ByLayer
 62
  256
370
   -1
100
AcDbLine
 10
150.1625000867838
 20
45.09999999979073
 11
150.1625000867838
 21
31.09999999979073
  0
LINE
  5
1FF
100
AcDbEntity
  8
0
  6
ByLayer
 62
  256
370
   -1
100
AcDbLine
 10
164.1625000867838
 20
45.09999999979073
 11
164.1625000867838
 21
31.09999999979073
  0
ARC
  5
200
100
AcDbEntity
  8
0
  6
ByLayer
 62
  256
370
   -1
100
AcDbCircle
 10
150.1625000867838
 20
45.09999999979073
 40
0
100
AcDbArc
 50
90
 51
180
  0
ARC
  5
201
100
AcDbEntity
  8
0
  6
ByLayer
 62
  256
370
   -1
100
AcDbCircle
 10
164.1625000867838
 20
45.09999999979073
 40
0
100
AcDbArc
 50
0
 51
90
  0
ARC
  5
202
100
AcDbEntity
  8
0
  6
ByLayer
 62
  256
370
   -1
100
AcDbCircle
 10
150.1625000867838
 20
31.09999999979073
 40
0
100
AcDbArc
 50
180
 51
270
  0
ARC
  5
203
100
AcDbEntity
  8
0
  6
ByLayer
 62
  256
370
   -1
100
AcDbCircle
 10
164.1625000867838
 20
31.09999999979073
 40
0
100
AcDbArc
 50
270
 51
360
  0
LINE
  5
204
100
AcDbEntity
  8
0
  6
ByLayer
 62
  256
370
   -1
100
AcDbLine
 10
169.2125000867838
 20
45.09999999979073
 11
183.2125000867838
 21
45.09999999979073
  0
LINE
  5
205
100
AcDbEntity
  8
0
  6
ByLayer
 62
  256
370
   -1
100
AcDbLine
 10
169.2125000867838
 20
31.09999999979073
 11
183.2125000867838
 21
31.09999999979073
  0
LINE
  5
206
100
AcDbEntity
  8
0
  6
ByLayer
 62
  256
370
   -1
100
AcDbLine
 10
169.2125000867838
 20
45.09999999979073
 11
169.2125000867838
 21
31.09999999979073
  0
LINE
  5
207
100
AcDbEntity
  8
0
  6
ByLayer
 62
  256
370
   -1
100
AcDbLine
 10
183.2125000867838
 20
45.09999999979073
 11
183.2125000867838
 21
31.09999999979073
  0
ARC
  5
208
100
AcDbEntity
  8
0
  6
ByLayer
 62
  256
370
   -1
100
AcDbCircle
 10
169.2125000867838
 20
45.09999999979073
 40
0
100
AcDbArc
 50
90
 51
180
  0
ARC
  5
209
100
AcDbEntity
  8
0
  6
ByLayer
 62
  256
370
   -1
100
AcDbCircle
 10
183.2125000867838
 20
45.09999999979073
 40
0
100
AcDbArc
 50
0
 51
90
  0
ARC
  5
20A
100
AcDbEntity
  8
0
  6
ByLayer
 62
  256
370
   -1
100
AcDbCircle
 10
169.2125000867838
 20
31.09999999979073
 40
0
100
AcDbArc
 50
180
 51
270
  0
ARC
  5
20B
100
AcDbEntity
  8
0
  6
ByLayer
 62
  256
370
   -1
100
AcDbCircle
 10
183.2125000867838
 20
31.09999999979073
 40
0
100
AcDbArc
 50
270
 51
360
  0
LINE
  5
20C
100
AcDbEntity
  8
0
  6
ByLayer
 62
  256
370
   -1
100
AcDbLine
 10
188.2625000867838
 20
45.09999999979073
 11
202.2625000867838
 21
45.09999999979073
  0
LINE
  5
20D
100
AcDbEntity
  8
0
  6
ByLayer
 62
  256
370
   -1
100
AcDbLine
 10
188.2625000867838
 20
31.09999999979073
 11
202.2625000867838
 21
31.09999999979073
  0
LINE
  5
20E
100
AcDbEntity
  8
0
  6
ByLayer
 62
  256
370
   -1
100
AcDbLine
 10
188.2625000867838
 20
45.09999999979073
 11
188.2625000867838
 21
31.09999999979073
  0
LINE
  5
20F
100
AcDbEntity
  8
0
  6
ByLayer
 62
  256
370
   -1
100
AcDbLine
 10
202.2625000867838
 20
45.09999999979073
 11
202.2625000867838
 21
31.09999999979073
  0
ARC
  5
210
100
AcDbEntity
  8
0
  6
ByLayer
 62
  256
370
   -1
100
AcDbCircle
 10
188.2625000867838
 20
45.09999999979073
 40
0
100
AcDbArc
 50
90
 51
180
  0
ARC
  5
211
100
AcDbEntity
  8
0
  6
ByLayer
 62
  256
370
   -1
100
AcDbCircle
 10
202.2625000867838
 20
45.09999999979073
 40
0
100
AcDbArc
 50
0
 51
90
  0
ARC
  5
212
100
AcDbEntity
  8
0
  6
ByLayer
 62
  256
370
   -1
100
AcDbCircle
 10
188.2625000867838
 20
31.09999999979073
 40
0
100
AcDbArc
 50
180
 51
270
  0
ARC
  5
213
100
AcDbEntity
  8
0
  6
ByLayer
 62
  256
370
   -1
100
AcDbCircle
 10
202.2625000867838
 20
31.09999999979073
 40
0
100
AcDbArc
 50
270
 51
360
  0
LINE
  5
214
100
AcDbEntity
  8
0
  6
ByLayer
 62
  256
370
   -1
100
AcDbLine
 10
207.3125000867838
 20
45.09999999979073
 11
221.3125000867838
 21
45.09999999979073
  0
LINE
  5
215
100
AcDbEntity
  8
0
  6
ByLayer
 62
  256
370
   -1
100
AcDbLine
 10
207.3125000867838
 20
31.09999999979073
 11
221.3125000867838
 21
31.09999999979073
  0
LINE
  5
216
100
AcDbEntity
  8
0
  6
ByLayer
 62
  256
370
   -1
100
AcDbLine
 10
207.3125000867838
 20
45.09999999979073
 11
207.3125000867838
 21
31.09999999979073
  0
LINE
  5
217
100
AcDbEntity
  8
0
  6
ByLayer
 62
  256
370
   -1
100
AcDbLine
 10
221.3125000867838
 20
45.09999999979073
 11
221.3125000867838
 21
31.09999999979073
  0
ARC
  5
218
100
AcDbEntity
  8
0
  6
ByLayer
 62
  256
370
   -1
100
AcDbCircle
 10
207.3125000867838
 20
45.09999999979073
 40
0
100
AcDbArc
 50
90
 51
180
  0
ARC
  5
219
100
AcDbEntity
  8
0
  6
ByLayer
 62
  256
370
   -1
100
AcDbCircle
 10
221.3125000867838
 20
45.09999999979073
 40
0
100
AcDbArc
 50
0
 51
90
  0
ARC
  5
21A
100
AcDbEntity
  8
0
  6
ByLayer
 62
  256
370
   -1
100
AcDbCircle
 10
207.3125000867838
 20
31.09999999979073
 40
0
100
AcDbArc
 50
180
 51
270
  0
ARC
  5
21B
100
AcDbEntity
  8
0
  6
ByLayer
 62
  256
370
   -1
100
AcDbCircle
 10
221.3125000867838
 20
31.09999999979073
 40
0
100
AcDbArc
 50
270
 51
360
  0
LINE
  5
21C
100
AcDbEntity
  8
0
  6
ByLayer
 62
  256
370
   -1
100
AcDbLine
 10
226.3625000867838
 20
45.09999999979073
 11
240.3625000867838
 21
45.09999999979073
  0
LINE
  5
21D
100
AcDbEntity
  8
0
  6
ByLayer
 62
  256
370
   -1
100
AcDbLine
 10
226.3625000867838
 20
31.09999999979073
 11
240.3625000867838
 21
31.09999999979073
  0
LINE
  5
21E
100
AcDbEntity
  8
0
  6
ByLayer
 62
  256
370
   -1
100
AcDbLine
 10
226.3625000867838
 20
45.09999999979073
 11
226.3625000867838
 21
31.09999999979073
  0
LINE
  5
21F
100
AcDbEntity
  8
0
  6
ByLayer
 62
  256
370
   -1
100
AcDbLine
 10
240.3625000867838
 20
45.09999999979073
 11
240.3625000867838
 21
31.09999999979073
  0
ARC
  5
220
100
AcDbEntity
  8
0
  6
ByLayer
 62
  256
370
   -1
100
AcDbCircle
 10
226.3625000867838
 20
45.09999999979073
 40
0
100
AcDbArc
 50
90
 51
180
  0
ARC
  5
221
100
AcDbEntity
  8
0
  6
ByLayer
 62
  256
370
   -1
100
AcDbCircle
 10
240.3625000867838
 20
45.09999999979073
 40
0
100
AcDbArc
 50
0
 51
90
  0
ARC
  5
222
100
AcDbEntity
  8
0
  6
ByLayer
 62
  256
370
   -1
100
AcDbCircle
 10
226.3625000867838
 20
31.09999999979073
 40
0
100
AcDbArc
 50
180
 51
270
  0
ARC
  5
223
100
AcDbEntity
  8
0
  6
ByLayer
 62
  256
370
   -1
100
AcDbCircle
 10
240.3625000867838
 20
31.09999999979073
 40
0
100
AcDbArc
 50
270
 51
360
  0
LINE
  5
224
100
AcDbEntity
  8
0
  6
ByLayer
 62
  256
370
   -1
100
AcDbLine
 10
252.5562500867838
 20
45.09999999979073
 11
266.5562500867837
 21
45.09999999979073
  0
LINE
  5
225
100
AcDbEntity
  8
0
  6
ByLayer
 62
  256
370
   -1
100
AcDbLine
 10
252.5562500867838
 20
31.09999999979073
 11
266.5562500867837
 21
31.09999999979073
  0
LINE
  5
226
100
AcDbEntity
  8
0
  6
ByLayer
 62
  256
370
   -1
100
AcDbLine
 10
252.5562500867838
 20
45.09999999979073
 11
252.5562500867838
 21
31.09999999979073
  0
LINE
  5
227
100
AcDbEntity
  8
0
  6
ByLayer
 62
  256
370
   -1
100
AcDbLine
 10
266.5562500867837
 20
45.09999999979073
 11
266.5562500867837
 21
31.09999999979073
  0
ARC
  5
228
100
AcDbEntity
  8
0
  6
ByLayer
 62
  256
370
   -1
100
AcDbCircle
 10
252.5562500867838
 20
45.09999999979073
 40
0
100
AcDbArc
 50
90
 51
180
  0
ARC
  5
229
100
AcDbEntity
  8
0
  6
ByLayer
 62
  256
370
   -1
100
AcDbCircle
 10
266.5562500867837
 20
45.09999999979073
 40
0
100
AcDbArc
 50
0
 51
90
  0
ARC
  5
22A
100
AcDbEntity
  8
0
  6
ByLayer
 62
  256
370
   -1
100
AcDbCircle
 10
252.5562500867838
 20
31.09999999979073
 40
0
100
AcDbArc
 50
180
 51
270
  0
ARC
  5
22B
100
AcDbEntity
  8
0
  6
ByLayer
 62
  256
370
   -1
100
AcDbCircle
 10
266.5562500867837
 20
31.09999999979073
 40
0
100
AcDbArc
 50
270
 51
360
  0
LINE
  5
22C
100
AcDbEntity
  8
0
  6
ByLayer
 62
  256
370
   -1
100
AcDbLine
 10
278.7500000867838
 20
45.09999999979073
 11
292.7500000867838
 21
45.09999999979073
  0
LINE
  5
22D
100
AcDbEntity
  8
0
  6
ByLayer
 62
  256
370
   -1
100
AcDbLine
 10
278.7500000867838
 20
31.09999999979073
 11
292.7500000867838
 21
31.09999999979073
  0
LINE
  5
22E
100
AcDbEntity
  8
0
  6
ByLayer
 62
  256
370
   -1
100
AcDbLine
 10
278.7500000867838
 20
45.09999999979073
 11
278.7500000867838
 21
31.09999999979073
  0
LINE
  5
22F
100
AcDbEntity
  8
0
  6
ByLayer
 62
  256
370
   -1
100
AcDbLine
 10
292.7500000867838
 20
45.09999999979073
 11
292.7500000867838
 21
31.09999999979073
  0
ARC
  5
230
100
AcDbEntity
  8
0
  6
ByLayer
 62
  256
370
   -1
100
AcDbCircle
 10
278.7500000867838
 20
45.09999999979073
 40
0
100
AcDbArc
 50
90
 51
180
  0
ARC
  5
231
100
AcDbEntity
  8
0
  6
ByLayer
 62
  256
370
   -1
100
AcDbCircle
 10
292.7500000867838
 20
45.09999999979073
 40
0
100
AcDbArc
 50
0
 51
90
  0
ARC
  5
232
100
AcDbEntity
  8
0
  6
ByLayer
 62
  256
370
   -1
100
AcDbCircle
 10
278.7500000867838
 20
31.09999999979073
 40
0
100
AcDbArc
 50
180
 51
270
  0
ARC
  5
233
100
AcDbEntity
  8
0
  6
ByLayer
 62
  256
370
   -1
100
AcDbCircle
 10
292.7500000867838
 20
31.09999999979073
 40
0
100
AcDbArc
 50
270
 51
360
  0
LINE
  5
234
100
AcDbEntity
  8
0
  6
ByLayer
 62
  256
370
   -1
100
AcDbLine
 10
40.62500008678374
 20
26.04999999979073
 11
54.62500008678374
 21
26.04999999979073
  0
LINE
  5
235
100
AcDbEntity
  8
0
  6
ByLayer
 62
  256
370
   -1
100
AcDbLine
 10
40.62500008678374
 20
12.04999999979073
 11
54.62500008678374
 21
12.04999999979073
  0
LINE
  5
236
100
AcDbEntity
  8
0
  6
ByLayer
 62
  256
370
   -1
100
AcDbLine
 10
40.62500008678374
 20
26.04999999979073
 11
40.62500008678374
 21
12.04999999979073
  0
LINE
  5
237
100
AcDbEntity
  8
0
  6
ByLayer
 62
  256
370
   -1
100
AcDbLine
 10
54.62500008678374
 20
26.04999999979073
 11
54.62500008678374
 21
12.04999999979073
  0
ARC
  5
238
100
AcDbEntity
  8
0
  6
ByLayer
 62
  256
370
   -1
100
AcDbCircle
 10
40.62500008678374
 20
26.04999999979073
 40
0
100
AcDbArc
 50
90
 51
180
  0
ARC
  5
239
100
AcDbEntity
  8
0
  6
ByLayer
 62
  256
370
   -1
100
AcDbCircle
 10
54.62500008678374
 20
26.04999999979073
 40
0
100
AcDbArc
 50
0
 51
90
  0
ARC
  5
23A
100
AcDbEntity
  8
0
  6
ByLayer
 62
  256
370
   -1
100
AcDbCircle
 10
40.62500008678374
 20
12.04999999979073
 40
0
100
AcDbArc
 50
180
 51
270
  0
ARC
  5
23B
100
AcDbEntity
  8
0
  6
ByLayer
 62
  256
370
   -1
100
AcDbCircle
 10
54.62500008678374
 20
12.04999999979073
 40
0
100
AcDbArc
 50
270
 51
360
  0
LINE
  5
23C
100
AcDbEntity
  8
0
  6
ByLayer
 62
  256
370
   -1
100
AcDbLine
 10
64.43750008678374
 20
26.04999999979073
 11
78.43750008678374
 21
26.04999999979073
  0
LINE
  5
23D
100
AcDbEntity
  8
0
  6
ByLayer
 62
  256
370
   -1
100
AcDbLine
 10
64.43750008678374
 20
12.04999999979073
 11
78.43750008678374
 21
12.04999999979073
  0
LINE
  5
23E
100
AcDbEntity
  8
0
  6
ByLayer
 62
  256
370
   -1
100
AcDbLine
 10
64.43750008678374
 20
26.04999999979073
 11
64.43750008678374
 21
12.04999999979073
  0
LINE
  5
23F
100
AcDbEntity
  8
0
  6
ByLayer
 62
  256
370
   -1
100
AcDbLine
 10
78.43750008678374
 20
26.04999999979073
 11
78.43750008678374
 21
12.04999999979073
  0
ARC
  5
240
100
AcDbEntity
  8
0
  6
ByLayer
 62
  256
370
   -1
100
AcDbCircle
 10
64.43750008678374
 20
26.04999999979073
 40
0
100
AcDbArc
 50
90
 51
180
  0
ARC
  5
241
100
AcDbEntity
  8
0
  6
ByLayer
 62
  256
370
   -1
100
AcDbCircle
 10
78.43750008678374
 20
26.04999999979073
 40
0
100
AcDbArc
 50
0
 51
90
  0
ARC
  5
242
100
AcDbEntity
  8
0
  6
ByLayer
 62
  256
370
   -1
100
AcDbCircle
 10
64.43750008678374
 20
12.04999999979073
 40
0
100
AcDbArc
 50
180
 51
270
  0
ARC
  5
243
100
AcDbEntity
  8
0
  6
ByLayer
 62
  256
370
   -1
100
AcDbCircle
 10
78.43750008678374
 20
12.04999999979073
 40
0
100
AcDbArc
 50
270
 51
360
  0
LINE
  5
244
100
AcDbEntity
  8
0
  6
ByLayer
 62
  256
370
   -1
100
AcDbLine
 10
135.8750000867837
 20
26.04999999979073
 11
149.8750000867838
 21
26.04999999979073
  0
LINE
  5
245
100
AcDbEntity
  8
0
  6
ByLayer
 62
  256
370
   -1
100
AcDbLine
 10
135.8750000867837
 20
12.04999999979073
 11
149.8750000867838
 21
12.04999999979073
  0
LINE
  5
246
100
AcDbEntity
  8
0
  6
ByLayer
 62
  256
370
   -1
100
AcDbLine
 10
135.8750000867837
 20
26.04999999979073
 11
135.8750000867837
 21
12.04999999979073
  0
LINE
  5
247
100
AcDbEntity
  8
0
  6
ByLayer
 62
  256
370
   -1
100
AcDbLine
 10
149.8750000867838
 20
26.04999999979073
 11
149.8750000867838
 21
12.04999999979073
  0
ARC
  5
248
100
AcDbEntity
  8
0
  6
ByLayer
 62
  256
370
   -1
100
AcDbCircle
 10
135.8750000867837
 20
26.04999999979073
 40
0
100
AcDbArc
 50
90
 51
180
  0
ARC
  5
249
100
AcDbEntity
  8
0
  6
ByLayer
 62
  256
370
   -1
100
AcDbCircle
 10
149.8750000867838
 20
26.04999999979073
 40
0
100
AcDbArc
 50
0
 51
90
  0
ARC
  5
24A
100
AcDbEntity
  8
0
  6
ByLayer
 62
  256
370
   -1
100
AcDbCircle
 10
135.8750000867837
 20
12.04999999979073
 40
0
100
AcDbArc
 50
180
 51
270
  0
ARC
  5
24B
100
AcDbEntity
  8
0
  6
ByLayer
 62
  256
370
   -1
100
AcDbCircle
 10
149.8750000867838
 20
12.04999999979073
 40
0
100
AcDbArc
 50
270
 51
360
  0
LINE
  5
24C
100
AcDbEntity
  8
0
  6
ByLayer
 62
  256
370
   -1
100
AcDbLine
 10
177.6000000867838
 20
25.04999999979073
 11
184.3500000867838
 21
25.04999999979073
  0
LINE
  5
24D
100
AcDbEntity
  8
0
  6
ByLayer
 62
  256
370
   -1
100
AcDbLine
 10
177.6000000867838
 20
11.04999999979073
 11
184.3500000867838
 21
11.04999999979073
  0
LINE
  5
24E
100
AcDbEntity
  8
0
  6
ByLayer
 62
  256
370
   -1
100
AcDbLine
 10
177.6000000867838
 20
25.04999999979073
 11
177.6000000867838
 21
11.04999999979073
  0
LINE
  5
24F
100
AcDbEntity
  8
0
  6
ByLayer
 62
  256
370
   -1
100
AcDbLine
 10
184.3500000867838
 20
25.04999999979073
 11
184.3500000867838
 21
11.04999999979073
  0
ARC
  5
250
100
AcDbEntity
  8
0
  6
ByLayer
 62
  256
370
   -1
100
AcDbCircle
 10
177.6000000867838
 20
25.04999999979073
 40
0
100
AcDbArc
 50
90
 51
180
  0
ARC
  5
251
100
AcDbEntity
  8
0
  6
ByLayer
 62
  256
370
   -1
100
AcDbCircle
 10
184.3500000867838
 20
25.04999999979073
 40
0
100
AcDbArc
 50
0
 51
90
  0
ARC
  5
252
100
AcDbEntity
  8
0
  6
ByLayer
 62
  256
370
   -1
100
AcDbCircle
 10
177.6000000867838
 20
11.04999999979073
 40
0
100
AcDbArc
 50
180
 51
270
  0
ARC
  5
253
100
AcDbEntity
  8
0
  6
ByLayer
 62
  256
370
   -1
100
AcDbCircle
 10
184.3500000867838
 20
11.04999999979073
 40
0
100
AcDbArc
 50
270
 51
360
  0
LINE
  5
254
100
AcDbEntity
  8
0
  6
ByLayer
 62
  256
370
   -1
100
AcDbLine
 10
82.35000008678375
 20
25.04999999979073
 11
89.10000008678374
 21
25.04999999979073
  0
LINE
  5
255
100
AcDbEntity
  8
0
  6
ByLayer
 62
  256
370
   -1
100
AcDbLine
 10
82.35000008678375
 20
11.04999999979073
 11
89.10000008678374
 21
11.04999999979073
  0
LINE
  5
256
100
AcDbEntity
  8
0
  6
ByLayer
 62
  256
370
   -1
100
AcDbLine
 10
82.35000008678375
 20
25.04999999979073
 11
82.35000008678375
 21
11.04999999979073
  0
LINE
  5
257
100
AcDbEntity
  8
0
  6
ByLayer
 62
  256
370
   -1
100
AcDbLine
 10
89.10000008678374
 20
25.04999999979073
 11
89.10000008678374
 21
11.04999999979073
  0
ARC
  5
258
100
AcDbEntity
  8
0
  6
ByLayer
 62
  256
370
   -1
100
AcDbCircle
 10
82.35000008678375
 20
25.04999999979073
 40
0
100
AcDbArc
 50
90
 51
180
  0
ARC
  5
259
100
AcDbEntity
  8
0
  6
ByLayer
 62
  256
370
   -1
100
AcDbCircle
 10
89.10000008678374
 20
25.04999999979073
 40
0
100
AcDbArc
 50
0
 51
90
  0
ARC
  5
25A
100
AcDbEntity
  8
0
  6
ByLayer
 62
  256
370
   -1
100
AcDbCircle
 10
82.35000008678375
 20
11.04999999979073
 40
0
100
AcDbArc
 50
180
 51
270
  0
ARC
  5
25B
100
AcDbEntity
  8
0
  6
ByLayer
 62
  256
370
   -1
100
AcDbCircle
 10
89.10000008678374
 20
11.04999999979073
 40
0
100
AcDbArc
 50
270
 51
360
  0
LINE
  5
25C
100
AcDbEntity
  8
0
  6
ByLayer
 62
  256
370
   -1
100
AcDbLine
 10
207.3125000867838
 20
26.04999999979073
 11
221.3125000867838
 21
26.04999999979073
  0
LINE
  5
25D
100
AcDbEntity
  8
0
  6
ByLayer
 62
  256
370
   -1
100
AcDbLine
 10
207.3125000867838
 20
12.04999999979073
 11
221.3125000867838
 21
12.04999999979073
  0
LINE
  5
25E
100
AcDbEntity
  8
0
  6
ByLayer
 62
  256
370
   -1
100
AcDbLine
 10
207.3125000867838
 20
26.04999999979073
 11
207.3125000867838
 21
12.04999999979073
  0
LINE
  5
25F
100
AcDbEntity
  8
0
  6
ByLayer
 62
  256
370
   -1
100
AcDbLine
 10
221.3125000867838
 20
26.04999999979073
 11
221.3125000867838
 21
12.04999999979073
  0
ARC
  5
260
100
AcDbEntity
  8
0
  6
ByLayer
 62
  256
370
   -1
100
AcDbCircle
 10
207.3125000867838
 20
26.04999999979073
 40
0
100
AcDbArc
 50
90
 51
180
  0
ARC
  5
261
100
AcDbEntity
  8
0
  6
ByLayer
 62
  256
370
   -1
100
AcDbCircle
 10
221.3125000867838
 20
26.04999999979073
 40
0
100
AcDbArc
 50
0
 51
90
  0
ARC
  5
262
100
AcDbEntity
  8
0
  6
ByLayer
 62
  256
370
   -1
100
AcDbCircle
 10
207.3125000867838
 20
12.04999999979073
 40
0
100
AcDbArc
 50
180
 51
270
  0
ARC
  5
263
100
AcDbEntity
  8
0
  6
ByLayer
 62
  256
370
   -1
100
AcDbCircle
 10
221.3125000867838
 20
12.04999999979073
 40
0
100
AcDbArc
 50
270
 51
360
  0
LINE
  5
264
100
AcDbEntity
  8
0
  6
ByLayer
 62
  256
370
   -1
100
AcDbLine
 10
231.1250000867838
 20
26.04999999979073
 11
245.1250000867838
 21
26.04999999979073
  0
LINE
  5
265
100
AcDbEntity
  8
0
  6
ByLayer
 62
  256
370
   -1
100
AcDbLine
 10
231.1250000867838
 20
12.04999999979073
 11
245.1250000867838
 21
12.04999999979073
  0
LINE
  5
266
100
AcDbEntity
  8
0
  6
ByLayer
 62
  256
370
   -1
100
AcDbLine
 10
231.1250000867838
 20
26.04999999979073
 11
231.1250000867838
 21
12.04999999979073
  0
LINE
  5
267
100
AcDbEntity
  8
0
  6
ByLayer
 62
  256
370
   -1
100
AcDbLine
 10
245.1250000867838
 20
26.04999999979073
 11
245.1250000867838
 21
12.04999999979073
  0
ARC
  5
268
100
AcDbEntity
  8
0
  6
ByLayer
 62
  256
370
   -1
100
AcDbCircle
 10
231.1250000867838
 20
26.04999999979073
 40
0
100
AcDbArc
 50
90
 51
180
  0
ARC
  5
269
100
AcDbEntity
  8
0
  6
ByLayer
 62
  256
370
   -1
100
AcDbCircle
 10
245.1250000867838
 20
26.04999999979073
 40
0
100
AcDbArc
 50
0
 51
90
  0
ARC
  5
26A
100
AcDbEntity
  8
0
  6
ByLayer
 62
  256
370
   -1
100
AcDbCircle
 10
231.1250000867838
 20
12.04999999979073
 40
0
100
AcDbArc
 50
180
 51
270
  0
ARC
  5
26B
100
AcDbEntity
  8
0
  6
ByLayer
 62
  256
370
   -1
100
AcDbCircle
 10
245.1250000867838
 20
12.04999999979073
 40
0
100
AcDbArc
 50
270
 51
360
  0
CIRCLE
  5
26C
100
AcDbEntity
  8
0
  6
ByLayer
 62
  256
370
   -1
100
AcDbCircle
 10
19.05000000020927
 20
95.24999999979073
 40
2
  0
CIRCLE
  5
26D
100
AcDbEntity
  8
0
  6
ByLayer
 62
  256
370
   -1
100
AcDbCircle
 10
38.10000078224242
 20
95.24999976278455
 40
2
  0
CIRCLE
  5
26E
100
AcDbEntity
  8
0
  6
ByLayer
 62
  256
370
   -1
100
AcDbCircle
 10
57.15000000020927
 20
95.24999976278454
 40
2
  0
CIRCLE
  5
26F
100
AcDbEntity
  8
0
  6
ByLayer
 62
  256
370
   -1
100
AcDbCircle
 10
76.20000000020927
 20
95.25000083471315
 40
2
  0
CIRCLE
  5
270
100
AcDbEntity
  8
0
  6
ByLayer
 62
  256
370
   -1
100
AcDbCircle
 10
95.25000000020925
 20
95.25000235011365
 40
2
  0
CIRCLE
  5
271
100
AcDbEntity
  8
0
  6
ByLayer
 62
  256
370
   -1
100
AcDbCircle
 10
114.3000022501485
 20
95.24999976278455
 40
2
  0
CIRCLE
  5
272
100
AcDbEntity
  8
0
  6
ByLayer
 62
  256
370
   -1
100
AcDbCircle
 10
133.3500000002093
 20
95.25000217513832
 40
2
  0
CIRCLE
  5
273
100
AcDbEntity
  8
0
  6
ByLayer
 62
  256
370
   -1
100
AcDbCircle
 10
152.4000000002093
 20
95.24999976278454
 40
2
  0
CIRCLE
  5
274
100
AcDbEntity
  8
0
  6
ByLayer
 62
  256
370
   -1
100
AcDbCircle
 10
171.4500000002093
 20
95.2500024622106
 40
2
  0
CIRCLE
  5
275
100
AcDbEntity
  8
0
  6
ByLayer
 62
  256
370
   -1
100
AcDbCircle
 10
190.5000026089695
 20
95.24999976278455
 40
2
  0
CIRCLE
  5
276
100
AcDbEntity
  8
0
  6
ByLayer
 62
  256
370
   -1
100
AcDbCircle
 10
209.5500000002093
 20
95.25000197650817
 40
2
  0
CIRCLE
  5
277
100
AcDbEntity
  8
0
  6
ByLayer
 62
  256
370
   -1
100
AcDbCircle
 10
228.6000000002093
 20
95.24999976278454
 40
2
  0
CIRCLE
  5
278
100
AcDbEntity
  8
0
  6
ByLayer
 62
  256
370
   -1
100
AcDbCircle
 10
247.6500000002093
 20
95.24999976278454
 40
2
  0
CIRCLE
  5
279
100
AcDbEntity
  8
0
  6
ByLayer
 62
  256
370
   -1
100
AcDbCircle
 10
266.7000020027326
 20
95.24999976278455
 40
2
  0
CIRCLE
  5
27A
100
AcDbEntity
  8
0
  6
ByLayer
 62
  256
370
   -1
100
AcDbCircle
 10
285.7500000002092
 20
95.25000329110807
 40
2
  0
CIRCLE
  5
27B
100
AcDbEntity
  8
0
  6
ByLayer
 62
  256
370
   -1
100
AcDbCircle
 10
280.9875000002093
 20
76.19999976278453
 40
2
  0
CIRCLE
  5
27C
100
AcDbEntity
  8
0
  6
ByLayer
 62
  256
370
   -1
100
AcDbCircle
 10
257.1750000002093
 20
76.19999976278453
 40
2
  0
CIRCLE
  5
27D
100
AcDbEntity
  8
0
  6
ByLayer
 62
  256
370
   -1
100
AcDbCircle
 10
238.1250024783527
 20
76.19999976278453
 40
2
  0
CIRCLE
  5
27E
100
AcDbEntity
  8
0
  6
ByLayer
 62
  256
370
   -1
100
AcDbCircle
 10
219.0750000002093
 20
76.19999976278453
 40
2
  0
CIRCLE
  5
27F
100
AcDbEntity
  8
0
  6
ByLayer
 62
  256
370
   -1
100
AcDbCircle
 10
200.0250000002093
 20
76.19999976278453
 40
2
  0
CIRCLE
  5
280
100
AcDbEntity
  8
0
  6
ByLayer
 62
  256
370
   -1
100
AcDbCircle
 10
180.9750000002093
 20
76.20000080216371
 40
2
  0
CIRCLE
  5
281
100
AcDbEntity
  8
0
  6
ByLayer
 62
  256
370
   -1
100
AcDbCircle
 10
161.9250034435077
 20
76.19999976278453
 40
2
  0
CIRCLE
  5
282
100
AcDbEntity
  8
0
  6
ByLayer
 62
  256
370
   -1
100
AcDbCircle
 10
142.8750000002093
 20
76.19999976278453
 40
2
  0
CIRCLE
  5
283
100
AcDbEntity
  8
0
  6
ByLayer
 62
  256
370
   -1
100
AcDbCircle
 10
123.8250025446007
 20
76.19999976278453
 40
2
  0
CIRCLE
  5
284
100
AcDbEntity
  8
0
  6
ByLayer
 62
  256
370
   -1
100
AcDbCircle
 10
104.7750000002093
 20
76.19999976278453
 40
2
  0
CIRCLE
  5
285
100
AcDbEntity
  8
0
  6
ByLayer
 62
  256
370
   -1
100
AcDbCircle
 10
85.72500000020928
 20
76.19999976278453
 40
2
  0
CIRCLE
  5
286
100
AcDbEntity
  8
0
  6
ByLayer
 62
  256
370
   -1
100
AcDbCircle
 10
66.67500000020928
 20
76.20000171063711
 40
2
  0
CIRCLE
  5
287
100
AcDbEntity
  8
0
  6
ByLayer
 62
  256
370
   -1
100
AcDbCircle
 10
47.62500000020927
 20
76.19999976278453
 40
2
  0
CIRCLE
  5
288
100
AcDbEntity
  8
0
  6
ByLayer
 62
  256
370
   -1
100
AcDbCircle
 10
23.81250000020927
 20
76.19999976278453
 40
2
  0
CIRCLE
  5
289
100
AcDbEntity
  8
0
  6
ByLayer
 62
  256
370
   -1
100
AcDbCircle
 10
26.19375000020927
 20
57.14999976278453
 40
2
  0
CIRCLE
  5
28A
100
AcDbEntity
  8
0
  6
ByLayer
 62
  256
370
   -1
100
AcDbCircle
 10
52.38750000020927
 20
57.14999976278453
 40
2
  0
CIRCLE
  5
28B
100
AcDbEntity
  8
0
  6
ByLayer
 62
  256
370
   -1
100
AcDbCircle
 10
71.43750000020927
 20
57.15000091588148
 40
2
  0
CIRCLE
  5
28C
100
AcDbEntity
  8
0
  6
ByLayer
 62
  256
370
   -1
100
AcDbCircle
 10
90.48750000020928
 20
57.15000155290591
 40
2
  0
CIRCLE
  5
28D
100
AcDbEntity
  8
0
  6
ByLayer
 62
  256
370
   -1
100
AcDbCircle
 10
109.5375000002093
 20
57.15000188362312
 40
2
  0
CIRCLE
  5
28E
100
AcDbEntity
  8
0
  6
ByLayer
 62
  256
370
   -1
100
AcDbCircle
 10
128.5875000002093
 20
57.1500017592712
 40
2
  0
CIRCLE
  5
28F
100
AcDbEntity
  8
0
  6
ByLayer
 62
  256
370
   -1
100
AcDbCircle
 10
147.6375000002093
 20
57.15000165316525
 40
2
  0
CIRCLE
  5
290
100
AcDbEntity
  8
0
  6
ByLayer
 62
  256
370
   -1
100
AcDbCircle
 10
166.6875000002093
 20
57.15000318309551
 40
2
  0
CIRCLE
  5
291
100
AcDbEntity
  8
0
  6
ByLayer
 62
  256
370
   -1
100
AcDbCircle
 10
185.7375000002093
 20
57.14999976278453
 40
2
  0
CIRCLE
  5
292
100
AcDbEntity
  8
0
  6
ByLayer
 62
  256
370
   -1
100
AcDbCircle
 10
204.7875000002093
 20
57.15000335489789
 40
2
  0
CIRCLE
  5
293
100
AcDbEntity
  8
0
  6
ByLayer
 62
  256
370
   -1
100
AcDbCircle
 10
223.8375000002093
 20
57.15000295677071
 40
2
  0
CIRCLE
  5
294
100
AcDbEntity
  8
0
  6
ByLayer
 62
  256
370
   -1
100
AcDbCircle
 10
242.8875000002093
 20
57.14999976278453
 40
2
  0
CIRCLE
  5
295
100
AcDbEntity
  8
0
  6
ByLayer
 62
  256
370
   -1
100
AcDbCircle
 10
273.8437500002093
 20
57.14999976278453
 40
2
  0
CIRCLE
  5
296
100
AcDbEntity
  8
0
  6
ByLayer
 62
  256
370
   -1
100
AcDbCircle
 10
285.7500000002093
 20
38.09999976278453
 40
2
  0
CIRCLE
  5
297
100
AcDbEntity
  8
0
  6
ByLayer
 62
  256
370
   -1
100
AcDbCircle
 10
259.5562500002093
 20
38.09999976278453
 40
2
  0
CIRCLE
  5
298
100
AcDbEntity
  8
0
  6
ByLayer
 62
  256
370
   -1
100
AcDbCircle
 10
233.3625000002093
 20
38.09999976278453
 40
2
  0
CIRCLE
  5
299
100
AcDbEntity
  8
0
  6
ByLayer
 62
  256
370
   -1
100
AcDbCircle
 10
214.3125000002093
 20
38.10000072263759
 40
2
  0
CIRCLE
  5
29A
100
AcDbEntity
  8
0
  6
ByLayer
 62
  256
370
   -1
100
AcDbCircle
 10
195.2625000002093
 20
38.09999976278453
 40
2
  0
CIRCLE
  5
29B
100
AcDbEntity
  8
0
  6
ByLayer
 62
  256
370
   -1
100
AcDbCircle
 10
176.2125000002093
 20
38.09999976278453
 40
2
  0
CIRCLE
  5
29C
100
AcDbEntity
  8
0
  6
ByLayer
 62
  256
370
   -1
100
AcDbCircle
 10
157.1625000002093
 20
38.09999976278453
 40
2
  0
CIRCLE
  5
29D
100
AcDbEntity
  8
0
  6
ByLayer
 62
  256
370
   -1
100
AcDbCircle
 10
138.1125017156435
 20
38.09999976278454
 40
2
  0
CIRCLE
  5
29E
100
AcDbEntity
  8
0
  6
ByLayer
 62
  256
370
   -1
100
AcDbCircle
 10
119.0625000002093
 20
38.09999976278453
 40
2
  0
CIRCLE
  5
29F
100
AcDbEntity
  8
0
  6
ByLayer
 62
  256
370
   -1
100
AcDbCircle
 10
100.0125000002093
 20
38.09999976278453
 40
2
  0
CIRCLE
  5
2A0
100
AcDbEntity
  8
0
  6
ByLayer
 62
  256
370
   -1
100
AcDbCircle
 10
80.96250000020927
 20
38.09999976278453
 40
2
  0
CIRCLE
  5
2A1
100
AcDbEntity
  8
0
  6
ByLayer
 62
  256
370
   -1
100
AcDbCircle
 10
61.91250000020928
 20
38.09999976278453
 40
2
  0
CIRCLE
  5
2A2
100
AcDbEntity
  8
0
  6
ByLayer
 62
  256
370
   -1
100
AcDbCircle
 10
30.95625000020927
 20
38.09999999316625
 40
2
  0
CIRCLE
  5
2A3
100
AcDbEntity
  8
0
  6
ByLayer
 62
  256
370
   -1
100
AcDbCircle
 10
47.62500000020927
 20
19.05000044640541
 40
2
  0
CIRCLE
  5
2A4
100
AcDbEntity
  8
0
  6
ByLayer
 62
  256
370
   -1
100
AcDbCircle
 10
71.43750000020927
 20
19.05000033293901
 40
2
  0
CIRCLE
  5
2A5
100
AcDbEntity
  8
0
  6
ByLayer
 62
  256
370
   -1
100
AcDbCircle
 10
142.8750000002093
 20
19.05000245825617
 40
2
  0
CIRCLE
  5
2A6
100
AcDbEntity
  8
0
  6
ByLayer
 62
  256
370
   -1
100
AcDbCircle
 10
214.3125000002093
 20
19.05000234039331
 40
2
  0
CIRCLE
  5
2A7
100
AcDbEntity
  8
0
  6
ByLayer
 62
  256
370
   -1
100
AcDbCircle
 10
238.1250000002093
 20
19.05000265366133
 40
2
  0
LINE
  5
2A8
100
AcDbEntity
  8
0
  6
ByLayer
 62
  256
370
   -1
100
AcDbLine
 10
23.57500039112121
 20
106.2499999997907
 11
23.57500039112121
 21
104.2499999997907
  0
LINE
  5
2A9
100
AcDbEntity
  8
0
  6
ByLayer
 62
  256
370
   -1
100
AcDbLine
 10
33.57500039112121
 20
106.2499999997907
 11
33.57500039112121
 21
104.2499999997907
  0
LINE
  5
2AA
100
AcDbEntity
  8
0
  6
ByLayer
 62
  256
370
   -1
100
AcDbLine
 10
23.57500039112121
 20
106.2499999997907
 11
33.57500039112121
 21
106.2499999997907
  0
LINE
  5
2AB
100
AcDbEntity
  8
0
  6
ByLayer
 62
  256
370
   -1
100
AcDbLine
 10
23.57500039112121
 20
108.6499999997907
 11
33.57500039112121
 21
108.6499999997907
  0
LINE
  5
2AC
100
AcDbEntity
  8
0
  6
ByLayer
 62
  256
370
   -1
100
AcDbLine
 10
28.57500039112121
 20
108.6499999997907
 11
28.57500039112121
 21
106.2499999997907
  0
ARC
  5
2AD
100
AcDbEntity
  8
0
  6
ByLayer
 62
  256
370
   -1
100
AcDbCircle
 10
12.05000000020927
 20
102.2499999997907
 40
2
100
AcDbArc
 50
90
 51
180
  0
LINE
  5
2AE
100
AcDbEntity
  8
0
  6
ByLayer
 62
  256
370
   -1
100
AcDbLine
 10
10.05000000020927
 20
102.2499999997907
 11
10.05000000020927
 21
12.05000033293902
  0
ARC
  5
2AF
100
AcDbEntity
  8
0
  6
ByLayer
 62
  256
370
   -1
100
AcDbCircle
 10
12.05000000020927
 20
12.05000033293901
 40
2
100
AcDbArc
 50
179.9999999999998
 51
269.9999999999994
  0
LINE
  5
2B0
100
AcDbEntity
  8
0
  6
ByLayer
 62
  256
370
   -1
100
AcDbLine
 10
292.7500000002093
 20
10.05000033293901
 11
12.05000000020925
 21
10.05000033293901
  0
ARC
  5
2B1
100
AcDbEntity
  8
0
  6
ByLayer
 62
  256
370
   -1
100
AcDbCircle
 10
292.7500000002093
 20
12.05000033293901
 40
2
100
AcDbArc
 50
270
 51
2.035554996136651e-013
  0
LINE
  5
2B2
100
AcDbEntity
  8
0
  6
ByLayer
 62
  256
370
   -1
100
AcDbLine
 10
12.05000000020927
 20
104.2499999997907
 11
292.7500000002093
 21
104.2499999997907
  0
LINE
  5
2B3
100
AcDbEntity
  8
0
  6
ByLayer
 62
  256
370
   -1
100
AcDbLine
 10
294.7500000002093
 20
102.2499999997907
 11
294.7500000002093
 21
12.05000033293902
  0
ARC
  5
2B4
100
AcDbEntity
  8
0
  6
ByLayer
 62
  256
370
   -1
100
AcDbCircle
 10
292.7500000002093
 20
102.2499999997907
 40
2
100
AcDbArc
 50
0
 51
90
  0
LINE
  5
2B5
100
AcDbEntity
  8
0
  6
ByLayer
 62
  256
370
   -1
100
AcDbLine
 10
260.8262500002093
 20
13.97500265366133
 11
260.8262500002093
 21
24.12500265366133
  0
LINE
  5
2B6
100
AcDbEntity
  8
0
  6
ByLayer
 62
  256
370
   -1
100
AcDbLine
 10
260.8262500002093
 20
24.12500265366133
 11
258.2862500002092
 21
24.12500265366133
  0
LINE
  5
2B7
100
AcDbEntity
  8
0
  6
ByLayer
 62
  256
370
   -1
100
AcDbLine
 10
258.2862500002092
 20
24.12500265366133
 11
258.2862500002092
 21
13.97500265366133
  0
LINE
  5
2B8
100
AcDbEntity
  8
0
  6
ByLayer
 62
  256
370
   -1
100
AcDbLine
 10
258.2862500002092
 20
13.97500265366133
 11
260.8262500002093
 21
13.97500265366133
  0
LINE
  5
2B9
100
AcDbEntity
  8
0
  6
ByLayer
 62
  256
370
   -1
100
AcDbLine
 10
258.2862500002092
 20
24.12500265366133
 11
260.8262500002093
 21
13.97500265366133
  0
LINE
  5
2BA
100
AcDbEntity
  8
0
  6
ByLayer
 62
  256
370
   -1
100
AcDbLine
 10
260.8262500002093
 20
24.12500265366133
 11
258.2862500002092
 21
13.97500265366133
  0
MTEXT
  5
2BB
100
AcDbEntity
  8
0
  6
ByLayer
 62
  256
370
   -1
100
AcDbMText
 10
258.1292640263391
 20
13.14656513949333
 30
0
 40
1
 41
3.000000000000061
 71
    1
 72
    1
  1
OLED
  7
Notes
210
0
220
0
230
1
 50
0
 73
    2
 44
1
  0
ENDSEC
  0
SECTION
  2
OBJECTS
  0
DICTIONARY
  5
C
330
0
100
AcDbDictionary
281
    1
  3
ACAD_GROUP
350
D
  0
DICTIONARY
  5
D
330
C
100
AcDbDictionary
281
    1
  0
ENDSEC
  0
EOF
